# Blender v2.79 (sub 0) OBJ File: 'lamp_rover.blend'
# www.blender.org
mtllib lamp_rover.mtl
o Plane
v -0.562478 0.000000 0.731221
v 0.562478 0.000000 0.731221
v -0.562478 0.000000 -0.731221
v 0.562478 0.000000 -0.731221
v -0.562478 0.803544 0.731221
v 0.562478 0.803544 0.731221
v -0.562478 0.803544 -0.731221
v 0.562478 0.803544 -0.731221
v -0.517768 0.000000 -0.695173
v -0.517768 0.000000 0.695173
v 0.517768 0.000000 0.695173
v 0.517768 0.000000 -0.695173
v -0.517768 0.748280 -0.695173
v -0.517768 0.748280 0.695173
v 0.517768 0.748280 0.695173
v 0.517768 0.748280 -0.695173
v -0.560061 -0.327553 0.551286
v -0.560061 -0.031216 0.117355
v -0.550166 -0.327133 0.553110
v -0.550166 -0.030503 0.118585
v -0.544051 -0.326034 0.557886
v -0.544051 -0.028636 0.121806
v -0.544051 -0.324676 0.563790
v -0.544051 -0.026328 0.125786
v -0.550166 -0.323578 0.568566
v -0.550166 -0.024461 0.129007
v -0.560061 -0.323158 0.570391
v -0.560061 -0.023748 0.130237
v -0.569956 -0.323578 0.568566
v -0.569956 -0.024461 0.129007
v -0.576071 -0.324676 0.563790
v -0.576071 -0.026328 0.125786
v -0.576071 -0.326034 0.557886
v -0.576071 -0.028636 0.121806
v -0.569956 -0.327133 0.553110
v -0.569956 -0.030503 0.118585
v -0.560061 -0.289463 0.476259
v -0.550166 -0.286816 0.478084
v -0.544051 -0.279885 0.482860
v -0.544051 -0.271318 0.488763
v -0.550166 -0.264387 0.493540
v -0.560061 -0.261740 0.495364
v -0.569956 -0.264387 0.493540
v -0.576071 -0.271318 0.488763
v -0.576071 -0.279885 0.482860
v -0.569956 -0.286816 0.478084
v -0.560061 -0.087053 0.182542
v -0.550166 -0.084405 0.184366
v -0.544051 -0.077474 0.189143
v -0.544051 -0.068908 0.195046
v -0.550166 -0.061977 0.199823
v -0.560061 -0.059329 0.201647
v -0.569956 -0.061977 0.199823
v -0.576071 -0.068908 0.195046
v -0.576071 -0.077474 0.189143
v -0.569956 -0.084405 0.184366
v -0.407136 -0.320707 0.722828
v -0.031599 0.003988 0.722828
v -0.408715 -0.320247 0.732723
v -0.032664 0.004770 0.732723
v -0.412848 -0.319043 0.738839
v -0.035451 0.006815 0.738839
v -0.417957 -0.317555 0.738839
v -0.038896 0.009343 0.738839
v -0.422091 -0.316352 0.732723
v -0.041683 0.011389 0.732723
v -0.423670 -0.315892 0.722828
v -0.042747 0.012170 0.722828
v -0.422091 -0.316352 0.712933
v -0.041683 0.011389 0.712933
v -0.417957 -0.317555 0.706818
v -0.038896 0.009343 0.706818
v -0.412848 -0.319043 0.706818
v -0.035451 0.006815 0.706818
v -0.408715 -0.320247 0.712933
v -0.032664 0.004770 0.712933
v -0.342206 -0.278972 0.722828
v -0.343784 -0.276072 0.732723
v -0.347918 -0.268477 0.738839
v -0.353027 -0.259091 0.738839
v -0.357161 -0.251497 0.732723
v -0.358740 -0.248596 0.722828
v -0.357161 -0.251497 0.712933
v -0.353027 -0.259091 0.706818
v -0.347918 -0.268477 0.706818
v -0.343784 -0.276072 0.712933
v -0.088014 -0.057192 0.722828
v -0.089593 -0.054291 0.732723
v -0.093726 -0.046697 0.738839
v -0.098835 -0.037311 0.738839
v -0.102969 -0.029717 0.732723
v -0.104548 -0.026816 0.722828
v -0.102969 -0.029717 0.712933
v -0.098835 -0.037311 0.706818
v -0.093726 -0.046697 0.706818
v -0.089593 -0.054291 0.712933
v 0.560061 -0.327553 0.551286
v 0.560061 -0.031216 0.117355
v 0.550166 -0.327133 0.553110
v 0.550166 -0.030503 0.118585
v 0.544051 -0.326034 0.557886
v 0.544051 -0.028636 0.121806
v 0.544051 -0.324676 0.563790
v 0.544051 -0.026328 0.125786
v 0.550166 -0.323578 0.568566
v 0.550166 -0.024461 0.129007
v 0.560061 -0.323158 0.570391
v 0.560061 -0.023748 0.130237
v 0.569956 -0.323578 0.568566
v 0.569956 -0.024461 0.129007
v 0.576071 -0.324676 0.563790
v 0.576071 -0.026328 0.125786
v 0.576071 -0.326034 0.557886
v 0.576071 -0.028636 0.121806
v 0.569956 -0.327133 0.553110
v 0.569956 -0.030503 0.118585
v 0.560061 -0.289463 0.476259
v 0.550166 -0.286816 0.478084
v 0.544051 -0.279885 0.482860
v 0.544051 -0.271318 0.488763
v 0.550166 -0.264387 0.493540
v 0.560061 -0.261740 0.495364
v 0.569956 -0.264387 0.493540
v 0.576071 -0.271318 0.488763
v 0.576071 -0.279885 0.482860
v 0.569956 -0.286816 0.478084
v 0.560061 -0.087053 0.182542
v 0.550166 -0.084405 0.184366
v 0.544051 -0.077474 0.189143
v 0.544051 -0.068908 0.195046
v 0.550166 -0.061977 0.199823
v 0.560061 -0.059329 0.201647
v 0.569956 -0.061977 0.199823
v 0.576071 -0.068908 0.195046
v 0.576071 -0.077474 0.189143
v 0.569956 -0.084405 0.184366
v 0.407136 -0.320707 0.722828
v 0.031599 0.003988 0.722828
v 0.408715 -0.320247 0.732723
v 0.032664 0.004770 0.732723
v 0.412848 -0.319043 0.738839
v 0.035451 0.006815 0.738839
v 0.417957 -0.317555 0.738839
v 0.038896 0.009343 0.738839
v 0.422091 -0.316352 0.732723
v 0.041683 0.011389 0.732723
v 0.423670 -0.315892 0.722828
v 0.042747 0.012170 0.722828
v 0.422091 -0.316352 0.712933
v 0.041683 0.011389 0.712933
v 0.417957 -0.317555 0.706818
v 0.038896 0.009343 0.706818
v 0.412848 -0.319043 0.706818
v 0.035451 0.006815 0.706818
v 0.408715 -0.320247 0.712933
v 0.032664 0.004770 0.712933
v 0.342206 -0.278972 0.722828
v 0.343784 -0.276072 0.732723
v 0.347918 -0.268477 0.738839
v 0.353027 -0.259091 0.738839
v 0.357161 -0.251497 0.732723
v 0.358740 -0.248596 0.722828
v 0.357161 -0.251497 0.712933
v 0.353027 -0.259091 0.706818
v 0.347918 -0.268477 0.706818
v 0.343784 -0.276072 0.712933
v 0.088014 -0.057192 0.722828
v 0.089593 -0.054291 0.732723
v 0.093726 -0.046697 0.738839
v 0.098835 -0.037311 0.738839
v 0.102969 -0.029717 0.732723
v 0.104548 -0.026816 0.722828
v 0.102969 -0.029717 0.712933
v 0.098835 -0.037311 0.706818
v 0.093726 -0.046697 0.706818
v 0.089593 -0.054291 0.712933
v -0.558457 -0.444772 -0.540782
v -0.558457 -0.168614 -0.540782
v -0.558457 -0.444772 -0.709231
v -0.558457 -0.168614 -0.709231
v -0.390008 -0.444772 -0.540782
v -0.390008 -0.168614 -0.540782
v -0.390008 -0.444772 -0.709231
v -0.390008 -0.168614 -0.709231
v 0.558457 -0.444772 -0.540782
v 0.558457 -0.168614 -0.540782
v 0.558457 -0.444772 -0.709231
v 0.558457 -0.168614 -0.709231
v 0.390008 -0.444772 -0.540782
v 0.390008 -0.168614 -0.540782
v 0.390008 -0.444772 -0.709231
v 0.390008 -0.168614 -0.709231
v 0.372504 -0.324502 0.540561
v 0.372504 -0.324502 0.768647
v 0.433107 -0.324502 0.768647
v 0.600591 -0.324502 0.540561
v 0.600591 -0.324502 0.601164
v 0.600591 -0.316797 0.540561
v 0.372504 -0.316797 0.540561
v 0.372504 -0.316797 0.768647
v 0.433107 -0.316797 0.768647
v 0.600591 -0.316797 0.601164
v -0.372504 -0.324502 0.540561
v -0.372504 -0.324502 0.768647
v -0.433107 -0.324502 0.768647
v -0.600591 -0.324502 0.540561
v -0.600591 -0.324502 0.601164
v -0.600591 -0.316797 0.540561
v -0.372504 -0.316797 0.540561
v -0.372504 -0.316797 0.768647
v -0.433107 -0.316797 0.768647
v -0.600591 -0.316797 0.601164
v 0.459257 -0.317813 0.566298
v 0.459257 -0.076773 0.566298
v 0.480491 -0.317813 0.570522
v 0.480491 -0.076773 0.570522
v 0.498492 -0.317813 0.582550
v 0.498492 -0.076773 0.582550
v 0.510520 -0.317813 0.600551
v 0.510520 -0.076773 0.600551
v 0.514744 -0.317813 0.621785
v 0.514744 -0.076773 0.621785
v 0.510520 -0.317813 0.643019
v 0.510520 -0.076773 0.643019
v 0.498492 -0.317813 0.661020
v 0.498492 -0.076773 0.661020
v 0.480491 -0.317813 0.673048
v 0.480491 -0.076773 0.673048
v 0.459257 -0.317813 0.677271
v 0.459257 -0.076773 0.677271
v 0.438024 -0.317813 0.673048
v 0.438024 -0.076773 0.673048
v 0.420023 -0.317813 0.661020
v 0.420023 -0.076773 0.661020
v 0.407995 -0.317813 0.643019
v 0.407995 -0.076773 0.643019
v 0.403771 -0.317813 0.621785
v 0.403771 -0.076773 0.621785
v 0.407995 -0.317813 0.600551
v 0.407995 -0.076773 0.600551
v 0.420023 -0.317813 0.582550
v 0.420023 -0.076773 0.582550
v 0.438024 -0.317813 0.570522
v 0.438024 -0.076773 0.570522
v 0.459257 -0.317813 0.566298
v 0.480491 -0.317813 0.570522
v 0.480491 -0.076773 0.570522
v 0.459257 -0.076773 0.566298
v 0.498492 -0.317813 0.582550
v 0.498492 -0.076773 0.582550
v 0.510520 -0.317813 0.600551
v 0.510520 -0.076773 0.600551
v 0.514744 -0.317813 0.621785
v 0.514744 -0.076773 0.621785
v 0.510520 -0.317813 0.643019
v 0.510520 -0.076773 0.643019
v 0.498492 -0.317813 0.661020
v 0.498492 -0.076773 0.661020
v 0.480491 -0.317813 0.673048
v 0.480491 -0.076773 0.673048
v 0.459257 -0.317813 0.677271
v 0.459257 -0.076773 0.677271
v 0.438024 -0.317813 0.673048
v 0.438024 -0.076773 0.673048
v 0.420023 -0.317813 0.661020
v 0.420023 -0.076773 0.661020
v 0.407995 -0.317813 0.643019
v 0.407995 -0.076773 0.643019
v 0.403771 -0.317813 0.621785
v 0.403771 -0.076773 0.621785
v 0.407995 -0.317813 0.600551
v 0.407995 -0.076773 0.600551
v 0.420023 -0.317813 0.582550
v 0.420023 -0.076773 0.582550
v 0.438024 -0.317813 0.570522
v 0.438024 -0.076773 0.570522
v -0.459257 -0.317813 0.566298
v -0.459257 -0.076773 0.566298
v -0.480491 -0.317813 0.570522
v -0.480491 -0.076773 0.570522
v -0.498492 -0.317813 0.582550
v -0.498492 -0.076773 0.582550
v -0.510520 -0.317813 0.600551
v -0.510520 -0.076773 0.600551
v -0.514744 -0.317813 0.621785
v -0.514744 -0.076773 0.621785
v -0.510520 -0.317813 0.643019
v -0.510520 -0.076773 0.643019
v -0.498492 -0.317813 0.661020
v -0.498492 -0.076773 0.661020
v -0.480491 -0.317813 0.673048
v -0.480491 -0.076773 0.673048
v -0.459257 -0.317813 0.677271
v -0.459257 -0.076773 0.677271
v -0.438024 -0.317813 0.673048
v -0.438024 -0.076773 0.673048
v -0.420023 -0.317813 0.661020
v -0.420023 -0.076773 0.661020
v -0.407995 -0.317813 0.643019
v -0.407995 -0.076773 0.643019
v -0.403771 -0.317813 0.621785
v -0.403771 -0.076773 0.621785
v -0.407995 -0.317813 0.600551
v -0.407995 -0.076773 0.600551
v -0.420023 -0.317813 0.582550
v -0.420023 -0.076773 0.582550
v -0.438024 -0.317813 0.570522
v -0.438024 -0.076773 0.570522
v -0.459257 -0.317813 0.566298
v -0.480491 -0.317813 0.570522
v -0.480491 -0.076773 0.570522
v -0.459257 -0.076773 0.566298
v -0.498492 -0.317813 0.582550
v -0.498492 -0.076773 0.582550
v -0.510520 -0.317813 0.600551
v -0.510520 -0.076773 0.600551
v -0.514744 -0.317813 0.621785
v -0.514744 -0.076773 0.621785
v -0.510520 -0.317813 0.643019
v -0.510520 -0.076773 0.643019
v -0.498492 -0.317813 0.661020
v -0.498492 -0.076773 0.661020
v -0.480491 -0.317813 0.673048
v -0.480491 -0.076773 0.673048
v -0.459257 -0.317813 0.677271
v -0.459257 -0.076773 0.677271
v -0.438024 -0.317813 0.673048
v -0.438024 -0.076773 0.673048
v -0.420023 -0.317813 0.661020
v -0.420023 -0.076773 0.661020
v -0.407995 -0.317813 0.643019
v -0.407995 -0.076773 0.643019
v -0.403771 -0.317813 0.621785
v -0.403771 -0.076773 0.621785
v -0.407995 -0.317813 0.600551
v -0.407995 -0.076773 0.600551
v -0.420023 -0.317813 0.582550
v -0.420023 -0.076773 0.582550
v -0.438024 -0.317813 0.570522
v -0.438024 -0.076773 0.570522
v -0.577025 -0.080295 0.729237
v -0.577025 -0.030003 0.729237
v -0.577025 -0.080295 0.490537
v -0.577025 -0.030003 0.490537
v -0.338325 -0.080295 0.729237
v -0.338325 -0.030003 0.729237
v -0.338325 -0.080295 0.490537
v -0.338325 -0.030003 0.490537
v 0.577025 -0.080295 0.729237
v 0.577025 -0.030003 0.729237
v 0.577025 -0.080295 0.490537
v 0.577025 -0.030003 0.490537
v 0.338325 -0.080295 0.729237
v 0.338325 -0.030003 0.729237
v 0.338325 -0.080295 0.490537
v 0.338325 -0.030003 0.490537
v -0.562478 -0.171820 -0.533888
v -0.562478 -0.026690 -0.533888
v -0.562478 -0.171820 -0.734084
v -0.562478 -0.026690 -0.734084
v 0.562478 -0.171820 -0.533888
v 0.562478 -0.026690 -0.533888
v 0.562478 -0.171820 -0.734084
v 0.562478 -0.026690 -0.734084
v -0.562478 -0.158173 -0.533888
v -0.562478 -0.040336 -0.533888
v -0.562478 -0.040336 -0.734084
v -0.562478 -0.158173 -0.734084
v 0.562478 -0.040336 -0.734084
v 0.562478 -0.158173 -0.734084
v 0.562478 -0.040336 -0.533888
v 0.562478 -0.158173 -0.533888
v -0.562478 -0.158173 -0.779637
v -0.562478 -0.171820 -0.779637
v 0.562478 -0.171820 -0.779637
v -0.562478 -0.026690 -0.779637
v 0.562478 -0.026690 -0.779637
v 0.562478 -0.158173 -0.779637
v -0.562478 -0.040336 -0.779637
v 0.562478 -0.040336 -0.779637
v -0.574567 0.028400 0.696809
v -0.574567 0.120726 0.696809
v -0.574567 0.028400 -0.696809
v -0.574567 0.120726 -0.696809
v -0.570640 0.028400 0.696809
v -0.570640 0.120726 0.696809
v -0.570640 0.028400 -0.696809
v -0.570640 0.120726 -0.696809
v -0.568715 0.121146 0.147008
v -0.568715 0.121146 0.239334
v -0.568715 0.781780 0.147008
v -0.568715 0.781780 0.239334
v -0.564787 0.121146 0.147008
v -0.564787 0.121146 0.239334
v -0.564787 0.781780 0.147008
v -0.564787 0.781780 0.239334
v 0.574567 0.028400 0.696809
v 0.574567 0.120726 0.696809
v 0.574567 0.028400 -0.696809
v 0.574567 0.120726 -0.696809
v 0.570640 0.028400 0.696809
v 0.570640 0.120726 0.696809
v 0.570640 0.028400 -0.696809
v 0.570640 0.120726 -0.696809
v 0.568715 0.121146 0.147008
v 0.568715 0.121146 0.239334
v 0.568715 0.781780 0.147008
v 0.568715 0.781780 0.239334
v 0.564787 0.121146 0.147008
v 0.564787 0.121146 0.239334
v 0.564787 0.781780 0.147008
v 0.564787 0.781780 0.239334
v -0.580444 0.027180 0.351780
v -0.580444 0.120168 0.351780
v -0.580444 0.027180 0.034742
v -0.580444 0.120168 0.034742
v -0.573079 0.027180 0.351780
v -0.573079 0.120168 0.351780
v -0.573079 0.027180 0.034742
v -0.573079 0.120168 0.034742
v -0.580444 0.027180 0.131850
v -0.580444 0.027180 0.254673
v -0.580444 0.302232 0.254673
v -0.580444 0.302232 0.131850
v -0.573079 0.027180 0.254673
v -0.573079 0.027180 0.131850
v -0.573079 0.302232 0.131850
v -0.573079 0.302232 0.254673
v 0.580444 0.027180 0.351780
v 0.580444 0.120168 0.351780
v 0.580444 0.027180 0.034742
v 0.580444 0.120168 0.034742
v 0.573079 0.027180 0.351780
v 0.573079 0.120168 0.351780
v 0.573079 0.027180 0.034742
v 0.573079 0.120168 0.034742
v 0.580444 0.027180 0.131850
v 0.580444 0.027180 0.254673
v 0.580444 0.302232 0.254673
v 0.580444 0.302232 0.131850
v 0.573079 0.027180 0.254673
v 0.573079 0.027180 0.131850
v 0.573079 0.302232 0.131850
v 0.573079 0.302232 0.254673
v -0.560133 0.004635 0.743722
v -0.560133 0.941133 0.743722
v -0.560133 0.004635 0.693704
v -0.560133 0.941133 0.693704
v 0.560133 0.004635 0.743722
v 0.560133 0.941133 0.743722
v 0.560133 0.004635 0.693704
v 0.560133 0.941133 0.693704
v 0.522737 -0.030707 0.731364
v 0.522737 0.030707 0.731364
v 0.522737 -0.030707 -0.731364
v 0.522737 0.030707 -0.731364
v 0.584150 -0.030707 0.731364
v 0.584150 0.030707 0.731364
v 0.584150 -0.030707 -0.731364
v 0.584150 0.030707 -0.731364
v 0.522737 -0.022880 0.731364
v 0.522737 0.022880 0.731364
v 0.522737 0.022880 -0.731364
v 0.522737 -0.022880 -0.731364
v 0.584150 0.022880 -0.731364
v 0.584150 -0.022880 -0.731364
v 0.584150 0.022880 0.731364
v 0.584150 -0.022880 0.731364
v 0.542251 -0.022880 0.731364
v 0.542251 0.022880 0.731364
v 0.542251 0.022880 -0.731364
v 0.542251 -0.022880 -0.731364
v 0.564636 0.022880 -0.731364
v 0.564636 -0.022880 -0.731364
v 0.564636 0.022880 0.731364
v 0.564636 -0.022880 0.731364
v 0.522737 0.031954 0.689622
v 0.522737 0.031954 0.751036
v 0.522737 0.786320 0.689622
v 0.522737 0.786320 0.751036
v 0.584150 0.031954 0.689622
v 0.584150 0.031954 0.751036
v 0.584150 0.786320 0.689622
v 0.584150 0.786320 0.751036
v 0.522737 0.031954 0.697449
v 0.522737 0.031954 0.743209
v 0.522737 0.786320 0.743209
v 0.522737 0.786320 0.697449
v 0.584150 0.786320 0.743209
v 0.584150 0.786320 0.697449
v 0.584150 0.031954 0.743209
v 0.584150 0.031954 0.697449
v 0.542251 0.031954 0.697449
v 0.542251 0.031954 0.743209
v 0.542251 0.786320 0.743209
v 0.542251 0.786320 0.697449
v 0.564636 0.786320 0.743209
v 0.564636 0.786320 0.697449
v 0.564636 0.031954 0.743209
v 0.564636 0.031954 0.697449
v 0.522737 0.031954 -0.756588
v 0.522737 0.031954 -0.695174
v 0.522737 0.786320 -0.756588
v 0.522737 0.786320 -0.695174
v 0.584150 0.031954 -0.756588
v 0.584150 0.031954 -0.695174
v 0.584150 0.786320 -0.756588
v 0.584150 0.786320 -0.695174
v 0.522737 0.031954 -0.748761
v 0.522737 0.031954 -0.703001
v 0.522737 0.786320 -0.703001
v 0.522737 0.786320 -0.748761
v 0.584150 0.786320 -0.703001
v 0.584150 0.786320 -0.748761
v 0.584150 0.031954 -0.703001
v 0.584150 0.031954 -0.748761
v 0.542251 0.031954 -0.748761
v 0.542251 0.031954 -0.703001
v 0.542251 0.786320 -0.703001
v 0.542251 0.786320 -0.748761
v 0.564636 0.786320 -0.703001
v 0.564636 0.786320 -0.748761
v 0.564636 0.031954 -0.703001
v 0.564636 0.031954 -0.748761
v -0.522737 -0.030707 0.731364
v -0.522737 0.030707 0.731364
v -0.522737 -0.030707 -0.731364
v -0.522737 0.030707 -0.731364
v -0.584150 -0.030707 0.731364
v -0.584150 0.030707 0.731364
v -0.584150 -0.030707 -0.731364
v -0.584150 0.030707 -0.731364
v -0.522737 -0.022880 0.731364
v -0.522737 0.022880 0.731364
v -0.522737 0.022880 -0.731364
v -0.522737 -0.022880 -0.731364
v -0.584150 0.022880 -0.731364
v -0.584150 -0.022880 -0.731364
v -0.584150 0.022880 0.731364
v -0.584150 -0.022880 0.731364
v -0.542251 -0.022880 0.731364
v -0.542251 0.022880 0.731364
v -0.542251 0.022880 -0.731364
v -0.542251 -0.022880 -0.731364
v -0.564636 0.022880 -0.731364
v -0.564636 -0.022880 -0.731364
v -0.564636 0.022880 0.731364
v -0.564636 -0.022880 0.731364
v -0.522737 0.031954 0.689622
v -0.522737 0.031954 0.751036
v -0.522737 0.786320 0.689622
v -0.522737 0.786320 0.751036
v -0.584150 0.031954 0.689622
v -0.584150 0.031954 0.751036
v -0.584150 0.786320 0.689622
v -0.584150 0.786320 0.751036
v -0.522737 0.031954 0.697449
v -0.522737 0.031954 0.743209
v -0.522737 0.786320 0.743209
v -0.522737 0.786320 0.697449
v -0.584150 0.786320 0.743209
v -0.584150 0.786320 0.697449
v -0.584150 0.031954 0.743209
v -0.584150 0.031954 0.697449
v -0.542251 0.031954 0.697449
v -0.542251 0.031954 0.743209
v -0.542251 0.786320 0.743209
v -0.542251 0.786320 0.697449
v -0.564636 0.786320 0.743209
v -0.564636 0.786320 0.697449
v -0.564636 0.031954 0.743209
v -0.564636 0.031954 0.697449
v -0.522737 0.031954 -0.756588
v -0.522737 0.031954 -0.695174
v -0.522737 0.786320 -0.756588
v -0.522737 0.786320 -0.695174
v -0.584150 0.031954 -0.756588
v -0.584150 0.031954 -0.695174
v -0.584150 0.786320 -0.756588
v -0.584150 0.786320 -0.695174
v -0.522737 0.031954 -0.748761
v -0.522737 0.031954 -0.703001
v -0.522737 0.786320 -0.703001
v -0.522737 0.786320 -0.748761
v -0.584150 0.786320 -0.703001
v -0.584150 0.786320 -0.748761
v -0.584150 0.031954 -0.703001
v -0.584150 0.031954 -0.748761
v -0.542251 0.031954 -0.748761
v -0.542251 0.031954 -0.703001
v -0.542251 0.786320 -0.703001
v -0.542251 0.786320 -0.748761
v -0.564636 0.786320 -0.703001
v -0.564636 0.786320 -0.748761
v -0.564636 0.031954 -0.703001
v -0.564636 0.031954 -0.748761
v 0.532342 0.771615 0.731364
v 0.532342 0.813817 0.731364
v 0.532342 0.771615 -0.731364
v 0.532342 0.813817 -0.731364
v 0.574545 0.771615 0.731364
v 0.574545 0.813817 0.731364
v 0.574545 0.771615 -0.731364
v 0.574545 0.813817 -0.731364
v -0.532342 0.771615 0.731364
v -0.532342 0.813817 0.731364
v -0.532342 0.771615 -0.731364
v -0.532342 0.813817 -0.731364
v -0.574545 0.771615 0.731364
v -0.574545 0.813817 0.731364
v -0.574545 0.771615 -0.731364
v -0.574545 0.813817 -0.731364
vt 0.004952 0.004948
vt 0.203014 0.004948
vt 0.195143 0.011287
vt 0.012823 0.011287
vt 0.410980 0.262028
vt 0.212918 0.262028
vt 0.212918 0.004948
vt 0.410980 0.004948
vt 0.354366 0.526285
vt 0.354366 0.724213
vt 0.212918 0.724213
vt 0.212918 0.526285
vt 0.405140 0.737055
vt 0.405140 0.539127
vt 0.546589 0.539127
vt 0.546589 0.737055
vt 0.146426 0.271986
vt 0.146426 0.529292
vt 0.004952 0.529292
vt 0.004952 0.271986
vt 0.546614 0.271924
vt 0.546614 0.529230
vt 0.405140 0.529230
vt 0.405140 0.271924
vt 0.727384 0.004948
vt 0.727384 0.249569
vt 0.595640 0.249570
vt 0.595640 0.004948
vt 0.203014 0.262089
vt 0.004952 0.262090
vt 0.012823 0.255751
vt 0.195143 0.255751
vt 0.212918 0.516388
vt 0.212918 0.271924
vt 0.395237 0.271924
vt 0.395237 0.516388
vt 0.688262 0.478923
vt 0.688262 0.723544
vt 0.556518 0.723544
vt 0.556517 0.478923
vt 0.698165 0.661118
vt 0.698165 0.478923
vt 0.829885 0.478923
vt 0.829885 0.661118
vt 0.004952 0.721384
vt 0.004952 0.539189
vt 0.136672 0.539189
vt 0.136672 0.721384
vt 0.779701 0.250145
vt 0.763445 0.250145
vt 0.763445 0.004948
vt 0.779701 0.004948
vt 0.190692 0.962177
vt 0.190692 0.945936
vt 0.191384 0.945936
vt 0.191384 0.962177
vt 0.920247 0.931152
vt 0.920247 0.914911
vt 0.920939 0.914911
vt 0.920939 0.931152
vt 0.680812 0.733441
vt 0.681504 0.733441
vt 0.681504 0.978481
vt 0.680813 0.978481
vt 0.234107 0.734109
vt 0.234798 0.734109
vt 0.234798 0.979090
vt 0.234107 0.979090
vt 0.780623 0.351967
vt 0.796879 0.351967
vt 0.796879 0.468201
vt 0.780623 0.468201
vt 0.931782 0.953835
vt 0.931782 0.970065
vt 0.931091 0.970065
vt 0.931091 0.953835
vt 0.963816 0.446053
vt 0.963816 0.462286
vt 0.963124 0.462286
vt 0.963124 0.446053
vt 0.786201 0.878839
vt 0.786892 0.878839
vt 0.786892 0.995052
vt 0.786201 0.995052
vt 0.807390 0.878839
vt 0.808081 0.878839
vt 0.808081 0.995052
vt 0.807390 0.995052
vt 0.753542 0.004948
vt 0.753542 0.250145
vt 0.737287 0.250145
vt 0.737287 0.004948
vt 0.953221 0.462294
vt 0.952529 0.462294
vt 0.952529 0.446053
vt 0.953221 0.446053
vt 0.920939 0.905015
vt 0.920247 0.905015
vt 0.920247 0.888774
vt 0.920939 0.888774
vt 0.213609 0.734109
vt 0.213609 0.979149
vt 0.212918 0.979149
vt 0.212918 0.734109
vt 0.224204 0.734109
vt 0.224204 0.979090
vt 0.223512 0.979090
vt 0.223512 0.734109
vt 0.806782 0.468201
vt 0.806782 0.351967
vt 0.823037 0.351967
vt 0.823037 0.468201
vt 0.964207 0.274384
vt 0.964898 0.274384
vt 0.964898 0.290614
vt 0.964207 0.290614
vt 0.201287 0.945936
vt 0.201978 0.945936
vt 0.201978 0.962170
vt 0.201287 0.962170
vt 0.177803 0.861814
vt 0.177803 0.978027
vt 0.177112 0.978027
vt 0.177112 0.861814
vt 0.797487 0.878839
vt 0.797487 0.995052
vt 0.796795 0.995052
vt 0.796795 0.878839
vt 0.832940 0.468201
vt 0.832940 0.303431
vt 0.841747 0.303431
vt 0.841747 0.468201
vt 0.585736 0.202051
vt 0.420884 0.202051
vt 0.420884 0.004948
vt 0.585736 0.004948
vt 0.860456 0.303431
vt 0.860456 0.468201
vt 0.851650 0.468201
vt 0.851650 0.303431
vt 0.721370 0.469027
vt 0.556517 0.469027
vt 0.556517 0.271924
vt 0.721370 0.271924
vt 0.770720 0.271099
vt 0.770720 0.468201
vt 0.761920 0.468201
vt 0.761920 0.271099
vt 0.776297 0.671015
vt 0.776297 0.868117
vt 0.767499 0.868117
vt 0.767499 0.671015
vt 0.912435 0.262305
vt 0.905004 0.262305
vt 0.905004 0.004948
vt 0.912435 0.004948
vt 0.927529 0.281810
vt 0.920100 0.281810
vt 0.920100 0.274384
vt 0.927529 0.274384
vt 0.893118 0.262305
vt 0.889654 0.262305
vt 0.889654 0.004948
vt 0.893117 0.004948
vt 0.797956 0.276161
vt 0.805385 0.276161
vt 0.805385 0.283586
vt 0.797956 0.283586
vt 0.715498 0.671015
vt 0.722929 0.671015
vt 0.722929 0.928206
vt 0.715498 0.928206
vt 0.750165 0.671015
vt 0.757596 0.671015
vt 0.757596 0.928144
vt 0.750165 0.928144
vt 0.903854 0.478923
vt 0.903854 0.736279
vt 0.896424 0.736279
vt 0.896424 0.478923
vt 0.921810 0.453478
vt 0.921810 0.446053
vt 0.929239 0.446053
vt 0.929239 0.453478
vt 0.919130 0.478923
vt 0.919130 0.736279
vt 0.915815 0.736279
vt 0.915815 0.478923
vt 0.780623 0.283586
vt 0.780623 0.276161
vt 0.788052 0.276161
vt 0.788052 0.283586
vt 0.705595 0.671015
vt 0.705595 0.928206
vt 0.698165 0.928206
vt 0.698165 0.671015
vt 0.740262 0.671015
vt 0.740262 0.928144
vt 0.732832 0.928144
vt 0.732832 0.671015
vt 0.870359 0.457532
vt 0.870360 0.453723
vt 0.871819 0.450204
vt 0.874513 0.447510
vt 0.878032 0.446053
vt 0.881840 0.446053
vt 0.885359 0.447510
vt 0.888051 0.450204
vt 0.889507 0.453723
vt 0.889506 0.457532
vt 0.888047 0.461051
vt 0.885353 0.463744
vt 0.881834 0.465202
vt 0.878026 0.465202
vt 0.874508 0.463744
vt 0.871815 0.461051
vt 0.832941 0.282056
vt 0.834400 0.278536
vt 0.837094 0.275843
vt 0.840614 0.274385
vt 0.844423 0.274385
vt 0.847942 0.275843
vt 0.850635 0.278536
vt 0.852092 0.282055
vt 0.852091 0.285865
vt 0.850632 0.289384
vt 0.847938 0.292077
vt 0.844418 0.293535
vt 0.840609 0.293535
vt 0.837090 0.292077
vt 0.834397 0.289384
vt 0.832940 0.285865
vt 0.908739 0.289380
vt 0.906046 0.292075
vt 0.902528 0.293533
vt 0.898719 0.293535
vt 0.895201 0.292078
vt 0.892508 0.289386
vt 0.891050 0.285867
vt 0.891050 0.282058
vt 0.892508 0.278539
vt 0.895201 0.275844
vt 0.898719 0.274386
vt 0.902528 0.274384
vt 0.906046 0.275841
vt 0.908739 0.278533
vt 0.910197 0.282052
vt 0.910197 0.285861
vt 0.881146 0.282056
vt 0.881147 0.285865
vt 0.879690 0.289384
vt 0.876997 0.292077
vt 0.873478 0.293535
vt 0.869669 0.293535
vt 0.866149 0.292077
vt 0.863455 0.289384
vt 0.861996 0.285865
vt 0.861995 0.282055
vt 0.863452 0.278536
vt 0.866145 0.275843
vt 0.869664 0.274385
vt 0.873474 0.274385
vt 0.876993 0.275843
vt 0.879688 0.278536
vt 0.274359 0.786003
vt 0.274359 0.834591
vt 0.244702 0.834591
vt 0.244702 0.786003
vt 0.151132 0.851917
vt 0.151132 0.803338
vt 0.180789 0.803338
vt 0.180789 0.851917
vt 0.434798 0.796978
vt 0.434798 0.845566
vt 0.405140 0.845566
vt 0.405140 0.796978
vt 0.484262 0.845557
vt 0.484262 0.796978
vt 0.513919 0.796978
vt 0.513919 0.845557
vt 0.138045 0.873878
vt 0.138045 0.903515
vt 0.108406 0.903516
vt 0.108406 0.873878
vt 0.627581 0.876038
vt 0.627581 0.905676
vt 0.597949 0.905676
vt 0.597949 0.876038
vt 0.004952 0.796957
vt 0.034609 0.796957
vt 0.034609 0.845545
vt 0.004952 0.845545
vt 0.474359 0.845557
vt 0.444701 0.845557
vt 0.444701 0.796978
vt 0.474359 0.796978
vt 0.810281 0.342071
vt 0.780623 0.342071
vt 0.780623 0.293483
vt 0.810281 0.293483
vt 0.274359 0.893067
vt 0.244702 0.893067
vt 0.244702 0.844487
vt 0.274359 0.844487
vt 0.556517 0.876038
vt 0.586156 0.876038
vt 0.586156 0.905676
vt 0.556517 0.905676
vt 0.669012 0.905676
vt 0.639381 0.905676
vt 0.639381 0.876038
vt 0.669012 0.876038
vt 0.465838 0.746951
vt 0.495307 0.776419
vt 0.495307 0.787081
vt 0.455175 0.787081
vt 0.455175 0.746951
vt 0.161792 0.793442
vt 0.151132 0.793442
vt 0.151132 0.753312
vt 0.191254 0.753312
vt 0.191254 0.763974
vt 0.956013 0.970381
vt 0.956013 0.981044
vt 0.954656 0.981044
vt 0.954656 0.970381
vt 0.455961 0.989502
vt 0.455961 0.978839
vt 0.457317 0.978839
vt 0.457317 0.989502
vt 0.956013 0.940914
vt 0.954656 0.940914
vt 0.874166 0.941126
vt 0.874166 0.981256
vt 0.872810 0.981256
vt 0.872810 0.941126
vt 0.896528 0.981256
vt 0.896528 0.941126
vt 0.897885 0.941126
vt 0.897885 0.981256
vt 0.434609 0.746951
vt 0.445272 0.746951
vt 0.445272 0.787081
vt 0.405140 0.787081
vt 0.405140 0.776419
vt 0.534672 0.787081
vt 0.505210 0.757614
vt 0.505210 0.746951
vt 0.545332 0.746951
vt 0.545332 0.787081
vt 0.944753 0.951577
vt 0.943396 0.951577
vt 0.943396 0.940914
vt 0.944753 0.940914
vt 0.444701 0.978839
vt 0.446057 0.978839
vt 0.446057 0.989502
vt 0.444701 0.989502
vt 0.944753 0.981044
vt 0.943396 0.981044
vt 0.201157 0.753312
vt 0.202514 0.753312
vt 0.202514 0.793442
vt 0.201157 0.793442
vt 0.885426 0.981256
vt 0.884070 0.981256
vt 0.884070 0.941126
vt 0.885426 0.941126
vt 0.589091 0.957570
vt 0.580236 0.957570
vt 0.580236 0.915572
vt 0.589091 0.915572
vt 0.637484 0.915572
vt 0.646337 0.915572
vt 0.646337 0.957570
vt 0.637484 0.957570
vt 0.140979 0.955409
vt 0.132125 0.955409
vt 0.132125 0.913412
vt 0.140979 0.913412
vt 0.732832 0.938040
vt 0.741685 0.938040
vt 0.741685 0.980038
vt 0.732832 0.980038
vt 0.472786 0.253945
vt 0.472786 0.211947
vt 0.514785 0.211947
vt 0.514785 0.253945
vt 0.566678 0.211947
vt 0.566678 0.253945
vt 0.524688 0.253945
vt 0.524688 0.211947
vt 0.585435 0.211947
vt 0.585435 0.253945
vt 0.576581 0.253945
vt 0.576581 0.211947
vt 0.617751 0.957570
vt 0.617751 0.915572
vt 0.626604 0.915572
vt 0.626604 0.957570
vt 0.607848 0.915572
vt 0.607848 0.957570
vt 0.598994 0.957570
vt 0.598994 0.915572
vt 0.656240 0.957570
vt 0.656240 0.915572
vt 0.665093 0.915572
vt 0.665093 0.957570
vt 0.462883 0.253945
vt 0.420884 0.253945
vt 0.420884 0.211947
vt 0.462883 0.211947
vt 0.286691 0.776107
vt 0.244702 0.776107
vt 0.244702 0.734109
vt 0.286691 0.734109
vt 0.447104 0.898691
vt 0.444701 0.898691
vt 0.444701 0.863468
vt 0.447104 0.863468
vt 0.191545 0.677738
vt 0.191545 0.479810
vt 0.199558 0.479810
vt 0.199558 0.677738
vt 0.028101 0.863456
vt 0.030504 0.863456
vt 0.030504 0.898679
vt 0.028101 0.898679
vt 0.387415 0.526285
vt 0.389817 0.526285
vt 0.389817 0.724213
vt 0.387415 0.724213
vt 0.164344 0.469914
vt 0.164344 0.271986
vt 0.199568 0.271986
vt 0.199568 0.469914
vt 0.156329 0.677738
vt 0.156329 0.479810
vt 0.364269 0.526285
vt 0.366672 0.526285
vt 0.366672 0.724213
vt 0.364270 0.724213
vt 0.004952 0.863456
vt 0.007354 0.863456
vt 0.007354 0.898679
vt 0.004952 0.898679
vt 0.028101 0.855442
vt 0.030504 0.855442
vt 0.731273 0.271099
vt 0.752016 0.271099
vt 0.752016 0.469027
vt 0.731273 0.469027
vt 0.470253 0.898691
vt 0.467850 0.898691
vt 0.467850 0.863468
vt 0.470253 0.863468
vt 0.862907 0.944104
vt 0.860504 0.944104
vt 0.860504 0.746176
vt 0.862907 0.746176
vt 0.933493 0.943939
vt 0.931091 0.943939
vt 0.931091 0.746011
vt 0.933493 0.746011
vt 0.786201 0.868942
vt 0.786201 0.671015
vt 0.794216 0.671015
vt 0.794216 0.868942
vt 0.444701 0.855453
vt 0.447104 0.855453
vt 0.467850 0.855453
vt 0.470253 0.855453
vt 0.004952 0.855442
vt 0.007354 0.855442
vt 0.156329 0.469914
vt 0.156329 0.271986
vt 0.804119 0.868942
vt 0.804119 0.671015
vt 0.812132 0.671015
vt 0.812132 0.868942
vt 0.053378 0.748366
vt 0.004952 0.748366
vt 0.037006 0.731280
vt 0.053378 0.731280
vt 0.822035 0.986811
vt 0.822035 0.970453
vt 0.823332 0.970453
vt 0.823332 0.986811
vt 0.537161 0.988284
vt 0.537161 0.971926
vt 0.538458 0.971926
vt 0.538458 0.988284
vt 0.820184 0.324997
vt 0.821481 0.324997
vt 0.821481 0.342071
vt 0.820184 0.342071
vt 0.537161 0.939576
vt 0.538458 0.939576
vt 0.822035 0.938102
vt 0.823332 0.938102
vt 0.910610 0.446053
vt 0.911907 0.446053
vt 0.911907 0.467643
vt 0.910610 0.467643
vt 0.820184 0.286326
vt 0.821481 0.286326
vt 0.821481 0.303401
vt 0.820184 0.303401
vt 0.053378 0.787061
vt 0.037006 0.787061
vt 0.004952 0.769975
vt 0.053378 0.769975
vt 0.199558 0.726330
vt 0.199558 0.743415
vt 0.183186 0.743415
vt 0.151132 0.726330
vt 0.045809 0.988263
vt 0.044512 0.988263
vt 0.044512 0.971906
vt 0.045809 0.971906
vt 0.525119 0.988284
vt 0.523822 0.988284
vt 0.523822 0.971926
vt 0.525119 0.971926
vt 0.469716 0.947258
vt 0.469716 0.964332
vt 0.468420 0.964332
vt 0.468420 0.947258
vt 0.525119 0.939576
vt 0.523822 0.939576
vt 0.044512 0.939555
vt 0.045809 0.939555
vt 0.900707 0.446053
vt 0.900707 0.467643
vt 0.899410 0.467643
vt 0.899410 0.446053
vt 0.469716 0.908588
vt 0.469716 0.925662
vt 0.468420 0.925662
vt 0.468420 0.908588
vt 0.199558 0.687635
vt 0.199558 0.704720
vt 0.151132 0.704720
vt 0.183186 0.687635
vt 0.075940 0.988637
vt 0.074562 0.988637
vt 0.074562 0.731280
vt 0.075940 0.731280
vt 0.202665 0.982871
vt 0.201287 0.982871
vt 0.201287 0.972066
vt 0.202665 0.972066
vt 0.972486 0.736279
vt 0.971108 0.736279
vt 0.971108 0.478923
vt 0.972486 0.478923
vt 0.858966 0.971946
vt 0.860343 0.971946
vt 0.860343 0.982751
vt 0.858966 0.982751
vt 0.789604 0.004948
vt 0.800416 0.004948
vt 0.800416 0.262139
vt 0.789604 0.262139
vt 0.839788 0.478923
vt 0.850601 0.478923
vt 0.850601 0.736052
vt 0.839788 0.736052
vt 0.556517 0.967878
vt 0.557895 0.967878
vt 0.557895 0.978683
vt 0.556517 0.978683
vt 0.977072 0.262305
vt 0.975694 0.262305
vt 0.975694 0.004948
vt 0.977072 0.004948
vt 0.962355 0.262078
vt 0.962355 0.004948
vt 0.965791 0.004948
vt 0.965791 0.262078
vt 0.651730 0.978271
vt 0.650352 0.978271
vt 0.650352 0.967466
vt 0.651730 0.967466
vt 0.064659 0.988637
vt 0.063281 0.988637
vt 0.063281 0.731280
vt 0.064659 0.731280
vt 0.859808 0.262305
vt 0.851751 0.262305
vt 0.851751 0.004948
vt 0.859808 0.004948
vt 0.877768 0.262305
vt 0.869711 0.262305
vt 0.869711 0.004948
vt 0.877768 0.004948
vt 0.931091 0.736114
vt 0.931091 0.478923
vt 0.934527 0.478923
vt 0.934527 0.736114
vt 0.939113 0.004948
vt 0.939113 0.262139
vt 0.935677 0.262139
vt 0.935677 0.004948
vt 0.952452 0.004948
vt 0.952452 0.262078
vt 0.949016 0.262078
vt 0.949016 0.004948
vt 0.444701 0.960893
vt 0.448642 0.960893
vt 0.448642 0.968943
vt 0.444701 0.968943
vt 0.248643 0.963365
vt 0.244702 0.963365
vt 0.244702 0.955315
vt 0.248643 0.955315
vt 0.285640 0.918728
vt 0.284262 0.918728
vt 0.284262 0.786003
vt 0.285640 0.786003
vt 0.972485 0.989296
vt 0.971108 0.989296
vt 0.971108 0.978490
vt 0.972485 0.978490
vt 0.152510 0.994539
vt 0.151132 0.994539
vt 0.151132 0.861814
vt 0.152510 0.861814
vt 0.255982 0.973261
vt 0.257359 0.973261
vt 0.257359 0.984067
vt 0.255982 0.984067
vt 0.119219 0.863982
vt 0.108406 0.863982
vt 0.108406 0.731280
vt 0.119219 0.731280
vt 0.597949 0.733441
vt 0.608762 0.733441
vt 0.608762 0.866142
vt 0.597949 0.866142
vt 0.190007 0.972074
vt 0.191384 0.972074
vt 0.191384 0.982879
vt 0.190007 0.982879
vt 0.995048 0.754270
vt 0.993670 0.754270
vt 0.993670 0.621544
vt 0.995048 0.621544
vt 0.044512 0.929659
vt 0.044512 0.796957
vt 0.047948 0.796957
vt 0.047948 0.929659
vt 0.985872 0.968594
vt 0.984495 0.968594
vt 0.984495 0.957789
vt 0.985872 0.957789
vt 0.416421 0.855462
vt 0.417799 0.855462
vt 0.417800 0.988187
vt 0.416421 0.988187
vt 0.878416 0.436156
vt 0.870359 0.436156
vt 0.870359 0.303431
vt 0.878416 0.303431
vt 0.368433 0.734109
vt 0.376489 0.734109
vt 0.376489 0.866834
vt 0.368433 0.866834
vt 0.540597 0.796978
vt 0.540597 0.929679
vt 0.537161 0.929679
vt 0.537161 0.796978
vt 0.888319 0.436132
vt 0.888319 0.303431
vt 0.891755 0.303431
vt 0.891755 0.436132
vt 0.960171 0.746011
vt 0.960171 0.878712
vt 0.956735 0.878712
vt 0.956735 0.746011
vt 0.598994 0.967466
vt 0.602935 0.967466
vt 0.602935 0.975510
vt 0.598994 0.975510
vt 0.108406 0.965717
vt 0.112347 0.965717
vt 0.112347 0.973763
vt 0.108406 0.973763
vt 0.491437 0.855453
vt 0.492815 0.855453
vt 0.492815 0.988179
vt 0.491437 0.988179
vt 0.985872 0.927190
vt 0.984495 0.927190
vt 0.984495 0.916385
vt 0.985872 0.916385
vt 0.995048 0.611648
vt 0.993670 0.611648
vt 0.993670 0.478923
vt 0.995048 0.478923
vt 0.351850 0.986199
vt 0.350473 0.986199
vt 0.350473 0.975393
vt 0.351850 0.975393
vt 0.639381 0.733441
vt 0.650194 0.733441
vt 0.650194 0.866142
vt 0.639381 0.866142
vt 0.577233 0.733441
vt 0.588046 0.733441
vt 0.588046 0.866142
vt 0.577233 0.866142
vt 0.384521 0.986199
vt 0.383144 0.986199
vt 0.383144 0.975393
vt 0.384521 0.975393
vt 0.406518 0.988187
vt 0.405140 0.988187
vt 0.405140 0.855462
vt 0.406518 0.855462
vt 0.914997 0.436132
vt 0.914997 0.303431
vt 0.918433 0.303431
vt 0.918433 0.436132
vt 0.841165 0.989069
vt 0.839788 0.989069
vt 0.839788 0.978263
vt 0.841165 0.978263
vt 0.480156 0.855453
vt 0.481534 0.855453
vt 0.481534 0.988179
vt 0.480156 0.988179
vt 0.847845 0.878674
vt 0.839788 0.878674
vt 0.839788 0.745949
vt 0.847845 0.745949
vt 0.350473 0.734109
vt 0.358530 0.734109
vt 0.358530 0.866834
vt 0.350473 0.866834
vt 0.928336 0.436132
vt 0.928336 0.303431
vt 0.931772 0.303431
vt 0.931772 0.436132
vt 0.876246 0.746176
vt 0.876246 0.878877
vt 0.872810 0.878877
vt 0.872810 0.746176
vt 0.958449 0.303431
vt 0.958449 0.436132
vt 0.955014 0.436132
vt 0.955014 0.303431
vt 0.636507 0.967466
vt 0.640449 0.967466
vt 0.640449 0.975510
vt 0.636507 0.975510
vt 0.132125 0.965306
vt 0.136066 0.965306
vt 0.136066 0.973352
vt 0.132125 0.973352
vt 0.988353 0.004948
vt 0.988353 0.262305
vt 0.986975 0.262305
vt 0.986975 0.004948
vt 0.976179 0.274384
vt 0.976179 0.285190
vt 0.974801 0.285190
vt 0.974801 0.274384
vt 0.098503 0.731280
vt 0.098503 0.988637
vt 0.097125 0.988637
vt 0.097125 0.731280
vt 0.567798 0.978683
vt 0.567798 0.967878
vt 0.569176 0.967878
vt 0.569176 0.978683
vt 0.810320 0.262139
vt 0.810319 0.004948
vt 0.821132 0.004948
vt 0.821132 0.262139
vt 0.841848 0.004948
vt 0.841848 0.262078
vt 0.831035 0.262078
vt 0.831035 0.004948
vt 0.661633 0.978271
vt 0.661633 0.967466
vt 0.663010 0.967466
vt 0.663010 0.978271
vt 0.087222 0.731280
vt 0.087222 0.988637
vt 0.085844 0.988637
vt 0.085844 0.731280
vt 0.961205 0.736052
vt 0.957769 0.736052
vt 0.957769 0.478923
vt 0.961205 0.478923
vt 0.975096 0.446053
vt 0.975096 0.456858
vt 0.973719 0.456858
vt 0.973719 0.446053
vt 0.983767 0.478923
vt 0.983767 0.736279
vt 0.982389 0.736279
vt 0.982389 0.478923
vt 0.886521 0.478923
vt 0.886521 0.736279
vt 0.878464 0.736279
vt 0.878464 0.478923
vt 0.868561 0.478923
vt 0.868561 0.736279
vt 0.860504 0.736279
vt 0.860504 0.478923
vt 0.825471 0.928206
vt 0.822035 0.928206
vt 0.822035 0.671015
vt 0.825471 0.671015
vt 0.922338 0.004948
vt 0.925774 0.004948
vt 0.925774 0.262139
vt 0.922338 0.262139
vt 0.944430 0.478923
vt 0.947866 0.478923
vt 0.947866 0.736052
vt 0.944430 0.736052
vt 0.008893 0.960928
vt 0.008893 0.968978
vt 0.004952 0.968978
vt 0.004952 0.960928
vt 0.858966 0.962050
vt 0.858966 0.954000
vt 0.862907 0.954000
vt 0.862907 0.962050
vt 0.995048 0.764166
vt 0.995048 0.896891
vt 0.993670 0.896891
vt 0.993670 0.764166
vt 0.768876 0.976676
vt 0.768876 0.987481
vt 0.767499 0.987481
vt 0.767499 0.976676
vt 0.982389 0.878901
vt 0.982389 0.746176
vt 0.983767 0.746176
vt 0.983767 0.878901
vt 0.986377 0.446053
vt 0.986377 0.456858
vt 0.985000 0.456858
vt 0.985000 0.446053
vt 0.618665 0.866142
vt 0.618665 0.733441
vt 0.629478 0.733441
vt 0.629478 0.866142
vt 0.567330 0.733441
vt 0.567330 0.866142
vt 0.556517 0.866142
vt 0.556517 0.733441
vt 0.469797 0.974229
vt 0.469797 0.985034
vt 0.468420 0.985034
vt 0.468420 0.974229
vt 0.979634 0.436156
vt 0.979634 0.303431
vt 0.981012 0.303431
vt 0.981012 0.436156
vt 0.916262 0.878877
vt 0.912827 0.878877
vt 0.912827 0.746176
vt 0.916262 0.746176
vt 0.985872 0.978490
vt 0.985872 0.989296
vt 0.984495 0.989296
vt 0.984495 0.978490
vt 0.429081 0.855462
vt 0.429081 0.988187
vt 0.427703 0.988187
vt 0.427703 0.855462
vt 0.332513 0.866834
vt 0.332513 0.734109
vt 0.340570 0.734109
vt 0.340570 0.866834
vt 0.394449 0.734109
vt 0.394449 0.866834
vt 0.386393 0.866834
vt 0.386393 0.734109
vt 0.527258 0.929679
vt 0.523822 0.929679
vt 0.523822 0.796978
vt 0.527258 0.796978
vt 0.899488 0.746176
vt 0.902923 0.746176
vt 0.902923 0.878877
vt 0.899488 0.878877
vt 0.943396 0.746011
vt 0.946832 0.746011
vt 0.946832 0.878712
vt 0.943396 0.878712
vt 0.584177 0.967466
vt 0.584177 0.975510
vt 0.580236 0.975510
vt 0.580236 0.967466
vt 0.166354 0.966160
vt 0.166354 0.974206
vt 0.162413 0.974206
vt 0.162413 0.966160
vt 0.992293 0.303431
vt 0.992293 0.436156
vt 0.990915 0.436156
vt 0.990915 0.303431
vt 0.985872 0.937087
vt 0.985872 0.947892
vt 0.984495 0.947892
vt 0.984495 0.937087
vt 0.971108 0.878901
vt 0.971108 0.746176
vt 0.972486 0.746176
vt 0.972486 0.878901
vt 0.244702 0.984067
vt 0.244702 0.973261
vt 0.246079 0.973261
vt 0.246079 0.984067
vt 0.660097 0.866142
vt 0.660097 0.733441
vt 0.670909 0.733441
vt 0.670909 0.866142
vt 0.139935 0.731280
vt 0.139935 0.863982
vt 0.129122 0.863982
vt 0.129122 0.731280
vt 0.365184 0.986199
vt 0.365184 0.975393
vt 0.366561 0.975393
vt 0.366561 0.986199
vt 0.968353 0.436156
vt 0.968353 0.303431
vt 0.969731 0.303431
vt 0.969731 0.436156
vt 0.905094 0.436132
vt 0.901658 0.436132
vt 0.901658 0.303431
vt 0.905094 0.303431
vt 0.987459 0.274384
vt 0.987459 0.285190
vt 0.986082 0.285190
vt 0.986082 0.274384
vt 0.504097 0.855453
vt 0.504097 0.988179
vt 0.502719 0.988179
vt 0.502719 0.855453
vt 0.314554 0.866834
vt 0.314554 0.734109
vt 0.322610 0.734109
vt 0.322610 0.866834
vt 0.296594 0.866834
vt 0.296594 0.734109
vt 0.304650 0.734109
vt 0.304650 0.866834
vt 0.190692 0.803338
vt 0.194128 0.803338
vt 0.194128 0.936040
vt 0.190692 0.936040
vt 0.886149 0.746176
vt 0.889585 0.746176
vt 0.889585 0.878877
vt 0.886149 0.878877
vt 0.941675 0.303431
vt 0.945110 0.303431
vt 0.945110 0.436132
vt 0.941675 0.436132
vt 0.621693 0.967466
vt 0.621693 0.975510
vt 0.617751 0.975510
vt 0.617751 0.967466
vt 0.911729 0.961924
vt 0.911729 0.969970
vt 0.907788 0.969970
vt 0.907788 0.961924
vt 0.030412 0.920389
vt 0.030412 0.908576
vt 0.032155 0.908788
vt 0.032155 0.920693
vt 0.167208 0.941353
vt 0.165966 0.956264
vt 0.165374 0.955984
vt 0.165726 0.941353
vt 0.164641 0.955638
vt 0.163895 0.941353
vt 0.164049 0.955357
vt 0.162413 0.941353
vt 0.974592 0.955868
vt 0.974592 0.968594
vt 0.972850 0.968383
vt 0.972850 0.955567
vt 0.971108 0.968594
vt 0.971108 0.955868
vt 0.334048 0.956270
vt 0.332412 0.970274
vt 0.331820 0.970554
vt 0.332566 0.956270
vt 0.331087 0.970901
vt 0.330734 0.956270
vt 0.330495 0.971181
vt 0.329252 0.956270
vt 0.028670 0.920693
vt 0.028670 0.908788
vt 0.028670 0.987059
vt 0.028670 0.973613
vt 0.030412 0.973309
vt 0.030412 0.986741
vt 0.331540 0.878033
vt 0.330734 0.893510
vt 0.329252 0.893510
vt 0.330903 0.878615
vt 0.332326 0.877313
vt 0.332566 0.893510
vt 0.332963 0.876731
vt 0.334048 0.893510
vt 0.972850 0.888797
vt 0.972850 0.902440
vt 0.971108 0.902741
vt 0.971108 0.889115
vt 0.974592 0.889115
vt 0.974592 0.902741
vt 0.164135 0.862396
vt 0.163895 0.878593
vt 0.162413 0.878593
vt 0.163498 0.861814
vt 0.164921 0.863116
vt 0.165726 0.878593
vt 0.165558 0.863698
vt 0.167208 0.878593
vt 0.032155 0.973613
vt 0.032155 0.987059
vt 0.952561 0.274384
vt 0.952561 0.285149
vt 0.950819 0.285286
vt 0.950819 0.274895
vt 0.387952 0.951119
vt 0.386706 0.965497
vt 0.386128 0.965351
vt 0.386482 0.951436
vt 0.385394 0.965186
vt 0.384645 0.951844
vt 0.384784 0.965067
vt 0.383144 0.952188
vt 0.701644 0.983071
vt 0.701717 0.993858
vt 0.699966 0.993732
vt 0.699873 0.982855
vt 0.698238 0.993980
vt 0.698165 0.983193
vt 0.373241 0.952188
vt 0.371600 0.965067
vt 0.370991 0.965186
vt 0.371740 0.951844
vt 0.370257 0.965351
vt 0.369903 0.951436
vt 0.369679 0.965497
vt 0.368433 0.951119
vt 0.954304 0.274895
vt 0.954304 0.285286
vt 0.285640 0.928728
vt 0.285578 0.940156
vt 0.283811 0.940381
vt 0.283889 0.928954
vt 0.370710 0.877631
vt 0.369903 0.892088
vt 0.368433 0.891771
vt 0.370088 0.878054
vt 0.371499 0.877126
vt 0.371740 0.892496
vt 0.372153 0.876731
vt 0.373241 0.892839
vt 0.940884 0.457893
vt 0.940884 0.446053
vt 0.942626 0.446563
vt 0.942626 0.457974
vt 0.939142 0.457974
vt 0.939142 0.446563
vt 0.384886 0.877126
vt 0.384645 0.892496
vt 0.383144 0.892839
vt 0.384232 0.876731
vt 0.385674 0.877631
vt 0.386482 0.892088
vt 0.386297 0.878054
vt 0.387952 0.891771
vt 0.282097 0.940052
vt 0.282160 0.928625
vt 0.285640 0.984901
vt 0.283874 0.985126
vt 0.699947 0.938102
vt 0.698238 0.938440
vt 0.701717 0.938318
vt 0.282160 0.984797
vt 0.270162 0.914777
vt 0.268420 0.915081
vt 0.268420 0.903175
vt 0.270162 0.902963
vt 0.296594 0.956270
vt 0.298076 0.956270
vt 0.298429 0.970901
vt 0.297836 0.971181
vt 0.299908 0.956270
vt 0.299161 0.970554
vt 0.301390 0.956270
vt 0.299753 0.970274
vt 0.839788 0.955641
vt 0.841531 0.955340
vt 0.841531 0.968156
vt 0.839788 0.968367
vt 0.843273 0.955641
vt 0.843273 0.968367
vt 0.314554 0.956270
vt 0.316036 0.956270
vt 0.316782 0.970554
vt 0.316190 0.970274
vt 0.317867 0.956270
vt 0.317514 0.970901
vt 0.319349 0.956270
vt 0.318107 0.971181
vt 0.271905 0.915081
vt 0.271905 0.903175
vt 0.271905 0.981446
vt 0.270162 0.981128
vt 0.270162 0.967696
vt 0.271905 0.968000
vt 0.317062 0.878033
vt 0.317699 0.878615
vt 0.319349 0.893510
vt 0.317867 0.893510
vt 0.316276 0.877313
vt 0.316036 0.893510
vt 0.315639 0.876731
vt 0.314554 0.893510
vt 0.841531 0.888570
vt 0.843273 0.888888
vt 0.843273 0.902514
vt 0.841531 0.902213
vt 0.839788 0.888888
vt 0.839788 0.902514
vt 0.299668 0.877313
vt 0.300304 0.876731
vt 0.301390 0.893510
vt 0.299908 0.893510
vt 0.298881 0.878033
vt 0.298076 0.893510
vt 0.298245 0.878615
vt 0.296594 0.893510
vt 0.268420 0.981446
vt 0.268420 0.968000
vt 0.909530 0.941126
vt 0.911272 0.941636
vt 0.911272 0.952027
vt 0.909530 0.951890
vt 0.767499 0.952402
vt 0.768969 0.952719
vt 0.769323 0.966633
vt 0.768745 0.966780
vt 0.770806 0.953127
vt 0.770057 0.966469
vt 0.772307 0.953470
vt 0.770666 0.966349
vt 0.718977 0.949011
vt 0.717207 0.949227
vt 0.717299 0.938350
vt 0.719051 0.938224
vt 0.715498 0.948889
vt 0.715572 0.938102
vt 0.355281 0.890040
vt 0.353780 0.890384
vt 0.353031 0.877041
vt 0.353641 0.877161
vt 0.351943 0.890792
vt 0.352297 0.876877
vt 0.350473 0.891108
vt 0.351719 0.876731
vt 0.907788 0.941636
vt 0.907788 0.952027
vt 0.755131 0.994438
vt 0.753380 0.994212
vt 0.753302 0.982785
vt 0.755068 0.983011
vt 0.352751 0.964596
vt 0.352128 0.964174
vt 0.350473 0.950457
vt 0.351943 0.950140
vt 0.353539 0.965101
vt 0.353780 0.949732
vt 0.354193 0.965497
vt 0.355281 0.949388
vt 0.939174 0.286224
vt 0.937432 0.286305
vt 0.937432 0.274895
vt 0.939174 0.274384
vt 0.940916 0.286305
vt 0.940916 0.274895
vt 0.770565 0.878409
vt 0.771219 0.878013
vt 0.772307 0.894122
vt 0.770806 0.893779
vt 0.769776 0.878914
vt 0.768969 0.893370
vt 0.769154 0.879337
vt 0.767499 0.893054
vt 0.751650 0.994542
vt 0.751588 0.983114
vt 0.753364 0.938040
vt 0.755131 0.938266
vt 0.717280 0.993980
vt 0.715572 0.993642
vt 0.719051 0.993764
vt 0.751650 0.938369
vt 0.879718 0.888774
vt 0.879718 0.931175
vt 0.875979 0.931189
vt 0.875979 0.888788
vt 0.872810 0.931229
vt 0.872810 0.888828
vt 0.108406 0.955821
vt 0.108406 0.913412
vt 0.111575 0.913412
vt 0.111575 0.955821
vt 0.115314 0.913412
vt 0.115314 0.955821
vt 0.119052 0.913412
vt 0.119052 0.955821
vt 0.122222 0.913412
vt 0.122222 0.955821
vt 0.018767 0.908630
vt 0.018767 0.951032
vt 0.015598 0.950992
vt 0.015598 0.908590
vt 0.011859 0.950977
vt 0.011859 0.908576
vt 0.008121 0.950992
vt 0.008121 0.908590
vt 0.004952 0.951032
vt 0.004952 0.908630
vt 0.556517 0.957982
vt 0.556517 0.915572
vt 0.559687 0.915572
vt 0.559687 0.957981
vt 0.563425 0.915572
vt 0.563425 0.957981
vt 0.567164 0.915572
vt 0.567164 0.957981
vt 0.570333 0.915572
vt 0.570333 0.957982
vt 0.886625 0.888828
vt 0.886625 0.931229
vt 0.883456 0.931189
vt 0.883456 0.888788
vt 0.903436 0.931229
vt 0.899698 0.931215
vt 0.899698 0.888814
vt 0.903436 0.888828
vt 0.896528 0.931175
vt 0.896528 0.888774
vt 0.957212 0.931018
vt 0.954043 0.931018
vt 0.954043 0.888608
vt 0.957212 0.888608
vt 0.950304 0.931018
vt 0.950304 0.888608
vt 0.946566 0.931018
vt 0.946566 0.888608
vt 0.943396 0.931018
vt 0.943396 0.888608
vt 0.244702 0.903017
vt 0.247871 0.902977
vt 0.247871 0.945379
vt 0.244702 0.945419
vt 0.251609 0.902963
vt 0.251609 0.945365
vt 0.255348 0.902977
vt 0.255348 0.945379
vt 0.258517 0.903017
vt 0.258517 0.945419
vt 0.444701 0.908588
vt 0.447870 0.908588
vt 0.447870 0.950997
vt 0.444701 0.950997
vt 0.451609 0.908588
vt 0.451609 0.950997
vt 0.455347 0.908588
vt 0.455347 0.950997
vt 0.458517 0.908588
vt 0.458517 0.950997
vt 0.910344 0.931175
vt 0.907175 0.931215
vt 0.907175 0.888814
vt 0.910344 0.888774
vn 0.0000 -1.0000 0.0000
vn 0.0000 1.0000 0.0000
vn 0.0000 0.0000 -1.0000
vn 0.0000 0.0000 1.0000
vn 1.0000 0.0000 0.0000
vn -1.0000 0.0000 0.0000
vn 0.7071 0.0000 0.7071
vn -0.7071 0.0000 0.7071
vn 0.0000 0.4706 0.8823
vn 0.0000 0.4706 -0.8823
vn 0.0000 -0.7958 -0.6056
vn 0.0000 -0.7665 -0.6422
vn 0.4581 -0.6901 -0.5602
vn 0.5304 -0.6780 -0.5089
vn 0.8817 -0.3735 -0.2882
vn 0.9361 -0.2835 -0.2081
vn 0.9518 0.2662 0.1522
vn 0.9340 0.3032 0.1886
vn 0.4952 0.7640 0.4135
vn 0.5257 0.7271 0.4415
vn 0.0000 0.8894 0.4571
vn 0.0000 0.8581 0.5134
vn -0.4952 0.7640 0.4135
vn -0.5257 0.7271 0.4415
vn -0.9518 0.2663 0.1522
vn -0.9340 0.3032 0.1886
vn -0.8817 -0.3735 -0.2882
vn -0.9361 -0.2835 -0.2081
vn -0.4581 -0.6901 -0.5602
vn -0.5304 -0.6780 -0.5089
vn -0.5161 -0.7505 -0.4127
vn -0.5272 -0.7251 -0.4431
vn 0.0000 -0.8564 -0.5163
vn 0.0000 -0.8863 -0.4631
vn -0.9688 -0.2146 -0.1236
vn -0.9345 -0.3018 -0.1886
vn -0.8464 0.4260 0.3196
vn -0.9375 0.2820 0.2036
vn -0.4403 0.7061 0.5546
vn -0.5351 0.6803 0.5008
vn 0.0000 0.7794 0.6265
vn 0.0000 0.8019 0.5975
vn 0.4403 0.7061 0.5546
vn 0.5351 0.6803 0.5008
vn 0.8464 0.4260 0.3196
vn 0.9375 0.2820 0.2036
vn 0.9688 -0.2145 -0.1236
vn 0.9345 -0.3018 -0.1886
vn 0.5161 -0.7505 -0.4127
vn 0.5272 -0.7251 -0.4431
vn 0.6919 -0.7220 0.0000
vn 0.7277 -0.6859 0.0000
vn 0.6332 -0.6175 0.4666
vn 0.5829 -0.6138 0.5323
vn 0.3001 -0.3071 0.9031
vn 0.2441 -0.2611 0.9339
vn -0.1996 0.2757 0.9403
vn -0.2178 0.2739 0.9367
vn -0.4908 0.7181 0.4934
vn -0.5176 0.6746 0.5262
vn -0.5454 0.8382 0.0000
vn -0.6006 0.7996 0.0000
vn -0.4908 0.7181 -0.4934
vn -0.5176 0.6746 -0.5262
vn -0.1996 0.2757 -0.9402
vn -0.2178 0.2739 -0.9367
vn 0.3001 -0.3071 -0.9031
vn 0.2441 -0.2611 -0.9339
vn 0.6332 -0.6175 -0.4666
vn 0.5829 -0.6138 -0.5323
vn 0.4892 -0.7044 -0.5142
vn 0.5192 -0.6723 -0.5277
vn 0.6037 -0.7972 0.0000
vn 0.5517 -0.8340 0.0000
vn 0.1625 -0.2228 -0.9612
vn 0.2178 -0.2727 -0.9371
vn -0.3421 0.3602 -0.8679
vn -0.2387 0.2598 -0.9357
vn -0.6282 0.6330 -0.4523
vn -0.5750 0.6171 -0.5372
vn -0.7132 0.7009 0.0000
vn -0.6847 0.7288 0.0000
vn -0.6282 0.6330 0.4523
vn -0.5750 0.6171 0.5372
vn -0.3420 0.3602 0.8679
vn -0.2386 0.2598 0.9357
vn 0.1625 -0.2228 0.9612
vn 0.2177 -0.2727 0.9371
vn 0.4892 -0.7044 0.5142
vn 0.5192 -0.6723 0.5277
vn -0.9518 0.2662 0.1522
vn 0.9518 0.2663 0.1522
vn 0.9688 -0.2146 -0.1236
vn -0.9688 -0.2145 -0.1236
vn -0.6919 -0.7220 0.0000
vn -0.5829 -0.6138 0.5323
vn -0.6332 -0.6175 0.4666
vn -0.7277 -0.6859 0.0000
vn -0.2441 -0.2611 0.9339
vn -0.3001 -0.3071 0.9031
vn 0.2178 0.2739 0.9367
vn 0.1996 0.2757 0.9403
vn 0.5176 0.6746 0.5262
vn 0.4908 0.7181 0.4934
vn 0.6006 0.7996 0.0000
vn 0.5454 0.8382 0.0000
vn 0.5176 0.6746 -0.5262
vn 0.4908 0.7181 -0.4934
vn 0.2178 0.2739 -0.9367
vn 0.1996 0.2757 -0.9402
vn -0.2441 -0.2611 -0.9339
vn -0.3001 -0.3071 -0.9031
vn -0.5829 -0.6138 -0.5323
vn -0.6332 -0.6175 -0.4666
vn -0.4892 -0.7044 -0.5142
vn -0.5517 -0.8340 0.0000
vn -0.6037 -0.7972 0.0000
vn -0.5192 -0.6723 -0.5277
vn -0.1625 -0.2228 -0.9612
vn -0.2178 -0.2727 -0.9371
vn 0.3420 0.3602 -0.8679
vn 0.2387 0.2598 -0.9357
vn 0.6282 0.6330 -0.4523
vn 0.5750 0.6171 -0.5372
vn 0.7132 0.7009 0.0000
vn 0.6847 0.7288 0.0000
vn 0.6282 0.6330 0.4523
vn 0.5750 0.6171 0.5372
vn 0.3420 0.3602 0.8679
vn 0.2386 0.2598 0.9357
vn -0.1625 -0.2228 0.9612
vn -0.2177 -0.2727 0.9371
vn -0.4892 -0.7044 0.5142
vn -0.5192 -0.6723 0.5277
vn 0.3827 0.0000 -0.9239
vn 0.7071 0.0000 -0.7071
vn 0.9239 0.0000 -0.3827
vn 0.9239 0.0000 0.3827
vn 0.3827 0.0000 0.9239
vn -0.3827 0.0000 0.9239
vn -0.9239 0.0000 0.3827
vn -0.9239 0.0000 -0.3827
vn -0.7071 0.0000 -0.7071
vn -0.3827 0.0000 -0.9239
usemtl body
s off
f 3/1/1 4/2/1 12/3/1 9/4/1
f 5/5/2 6/6/2 8/7/2 7/8/2
f 4/9/3 3/10/3 7/11/3 8/12/3
f 1/13/4 2/14/4 6/15/4 5/16/4
f 2/17/5 4/18/5 8/19/5 6/20/5
f 3/21/6 1/22/6 5/23/6 7/24/6
f 12/25/6 11/26/6 15/27/6 16/28/6
f 2/29/1 1/30/1 10/31/1 11/32/1
f 4/2/1 2/29/1 11/32/1 12/3/1
f 1/30/1 3/1/1 9/4/1 10/31/1
f 14/33/1 13/34/1 16/35/1 15/36/1
f 10/37/5 9/38/5 13/39/5 14/40/5
f 9/41/4 12/42/4 16/43/4 13/44/4
f 11/45/3 10/46/3 14/47/3 15/48/3
f 381/49/6 382/50/6 384/51/6 383/52/6
f 383/53/3 384/54/3 388/55/3 387/56/3
f 385/57/4 386/58/4 382/59/4 381/60/4
f 383/61/1 387/62/1 385/63/1 381/64/1
f 388/65/2 384/66/2 382/67/2 386/68/2
f 389/69/6 390/70/6 392/71/6 391/72/6
f 391/73/2 392/74/2 396/75/2 395/76/2
f 393/77/1 394/78/1 390/79/1 389/80/1
f 391/81/3 395/82/3 393/83/3 389/84/3
f 396/85/4 392/86/4 390/87/4 394/88/4
f 397/89/5 399/90/5 400/91/5 398/92/5
f 399/93/3 403/94/3 404/95/3 400/96/3
f 401/97/4 397/98/4 398/99/4 402/100/4
f 399/101/1 397/102/1 401/103/1 403/104/1
f 404/105/2 402/106/2 398/107/2 400/108/2
f 405/109/5 407/110/5 408/111/5 406/112/5
f 407/113/2 411/114/2 412/115/2 408/116/2
f 409/117/1 405/118/1 406/119/1 410/120/1
f 407/121/3 405/122/3 409/123/3 411/124/3
f 412/125/4 410/126/4 406/127/4 408/128/4
f 445/129/6 446/130/6 448/131/6 447/132/6
f 447/133/3 448/134/3 452/135/3 451/136/3
f 451/137/5 452/138/5 450/139/5 449/140/5
f 449/141/4 450/142/4 446/143/4 445/144/4
f 447/145/1 451/146/1 449/147/1 445/148/1
f 452/149/2 448/150/2 446/151/2 450/152/2
f 597/153/6 598/154/6 600/155/6 599/156/6
f 599/157/3 600/158/3 604/159/3 603/160/3
f 603/161/5 604/162/5 602/163/5 601/164/5
f 601/165/4 602/166/4 598/167/4 597/168/4
f 599/169/1 603/170/1 601/171/1 597/172/1
f 604/173/2 600/174/2 598/175/2 602/176/2
f 605/177/5 607/178/5 608/179/5 606/180/5
f 607/181/3 611/182/3 612/183/3 608/184/3
f 611/185/6 609/186/6 610/187/6 612/188/6
f 609/189/4 605/190/4 606/191/4 610/192/4
f 607/193/1 605/194/1 609/195/1 611/196/1
f 612/197/2 610/198/2 606/199/2 608/200/2
s 1
f 216/201/2 214/202/2 276/203/2 242/204/2 240/205/2 238/206/2 236/207/2 234/208/2 232/209/2 230/210/2 228/211/2 226/212/2 224/213/2 222/214/2 220/215/2 218/216/2
f 213/217/1 215/218/1 217/219/1 219/220/1 221/221/1 223/222/1 225/223/1 227/224/1 229/225/1 231/226/1 233/227/1 235/228/1 237/229/1 239/230/1 241/231/1 243/232/1
f 280/233/2 282/234/2 284/235/2 286/236/2 288/237/2 290/238/2 292/239/2 294/240/2 296/241/2 298/242/2 300/243/2 302/244/2 304/245/2 306/246/2 340/247/2 278/248/2
f 277/249/1 307/250/1 305/251/1 303/252/1 301/253/1 299/254/1 297/255/1 295/256/1 293/257/1 291/258/1 289/259/1 287/260/1 285/261/1 283/262/1 281/263/1 279/264/1
usemtl aluminium
s off
f 177/265/6 178/266/6 180/267/6 179/268/6
f 179/269/3 180/270/3 184/271/3 183/272/3
f 183/273/5 184/274/5 182/275/5 181/276/5
f 181/277/4 182/278/4 178/279/4 177/280/4
f 179/281/1 183/282/1 181/283/1 177/284/1
f 184/285/2 180/286/2 178/287/2 182/288/2
f 185/289/5 187/290/5 188/291/5 186/292/5
f 187/293/3 191/294/3 192/295/3 188/296/3
f 191/297/6 189/298/6 190/299/6 192/300/6
f 189/301/4 185/302/4 186/303/4 190/304/4
f 187/305/1 185/306/1 189/307/1 191/308/1
f 192/309/2 190/310/2 186/311/2 188/312/2
f 197/313/1 195/314/1 194/315/1 193/316/1 196/317/1
f 202/318/2 198/319/2 199/320/2 200/321/2 201/322/2
f 197/323/5 196/324/5 198/325/5 202/326/5
f 194/327/4 195/328/4 201/329/4 200/330/4
f 195/331/7 197/323/7 202/326/7 201/332/7
f 193/333/6 194/334/6 200/335/6 199/336/6
f 196/337/3 193/338/3 199/339/3 198/340/3
f 207/341/1 206/342/1 203/343/1 204/344/1 205/345/1
f 212/346/2 211/347/2 210/348/2 209/349/2 208/350/2
f 207/351/6 212/352/6 208/353/6 206/354/6
f 204/355/4 210/356/4 211/357/4 205/358/4
f 205/359/8 211/360/8 212/352/8 207/351/8
f 203/361/5 209/362/5 210/363/5 204/364/5
f 206/365/3 208/366/3 209/367/3 203/368/3
f 341/369/6 342/370/6 344/371/6 343/372/6
f 343/373/3 344/374/3 348/375/3 347/376/3
f 347/377/5 348/378/5 346/379/5 345/380/5
f 345/381/4 346/382/4 342/383/4 341/384/4
f 343/385/1 347/386/1 345/387/1 341/388/1
f 348/389/2 344/390/2 342/391/2 346/392/2
f 349/393/5 351/394/5 352/395/5 350/396/5
f 351/397/3 355/398/3 356/399/3 352/400/3
f 355/401/6 353/402/6 354/403/6 356/404/6
f 353/405/4 349/406/4 350/407/4 354/408/4
f 351/409/1 349/410/1 353/411/1 355/412/1
f 356/413/2 354/414/2 350/415/2 352/416/2
f 366/417/6 358/418/6 360/419/6 367/420/6
f 360/421/2 364/422/2 377/423/2 376/424/2
f 369/425/5 364/426/5 362/427/5 371/428/5
f 371/429/4 362/430/4 358/431/4 366/432/4
f 359/433/1 363/434/1 361/435/1 357/436/1
f 364/422/2 360/421/2 358/437/2 362/438/2
f 361/439/4 372/440/4 365/441/4 357/442/4
f 372/440/4 371/429/4 366/432/4 365/441/4
f 363/443/5 370/444/5 372/445/5 361/446/5
f 370/444/5 369/425/5 371/428/5 372/445/5
f 364/426/5 369/425/5 380/447/5 377/448/5
f 368/449/3 367/450/3 369/451/3 370/452/3
f 357/453/6 365/454/6 368/455/6 359/456/6
f 365/454/6 366/417/6 367/420/6 368/455/6
f 379/457/3 376/458/3 377/459/3 380/460/3
f 374/461/3 373/462/3 378/463/3 375/464/3
f 369/465/1 367/466/1 379/467/1 380/468/1
f 367/420/6 360/419/6 376/469/6 379/470/6
f 359/456/6 368/455/6 373/471/6 374/472/6
f 370/444/5 363/443/5 375/473/5 378/474/5
f 363/434/1 359/433/1 374/475/1 375/476/1
f 368/477/2 370/478/2 378/479/2 373/480/2
f 421/481/6 424/482/6 416/483/6 415/484/6
f 415/485/3 416/486/3 420/487/3 419/488/3
f 417/489/4 418/490/4 414/491/4 413/492/4
f 422/493/1 425/494/1 417/495/1 413/496/1
f 428/497/9 423/498/9 414/491/9 418/490/9
f 420/487/10 416/486/10 424/499/10 427/500/10
f 427/501/2 424/502/2 423/503/2 428/504/2
f 415/505/1 419/506/1 426/507/1 421/508/1
f 421/508/1 426/507/1 425/494/1 422/493/1
f 413/509/6 414/510/6 423/511/6 422/512/6
f 422/512/6 423/511/6 424/482/6 421/481/6
f 437/513/5 431/514/5 432/515/5 440/516/5
f 431/517/3 435/518/3 436/519/3 432/520/3
f 433/521/4 429/522/4 430/523/4 434/524/4
f 438/525/1 429/526/1 433/527/1 441/528/1
f 444/529/9 434/524/9 430/523/9 439/530/9
f 436/519/10 443/531/10 440/532/10 432/520/10
f 443/533/2 444/534/2 439/535/2 440/536/2
f 431/537/1 437/538/1 442/539/1 435/540/1
f 437/538/1 438/525/1 441/528/1 442/539/1
f 429/541/5 438/542/5 439/543/5 430/544/5
f 438/542/5 437/513/5 440/516/5 439/543/5
f 462/545/6 454/546/6 456/547/6 463/548/6
f 463/549/3 456/550/3 460/551/3 465/552/3
f 465/553/5 460/554/5 458/555/5 467/556/5
f 467/557/4 458/558/4 454/559/4 462/560/4
f 455/561/1 459/562/1 457/563/1 453/564/1
f 460/565/2 456/566/2 454/567/2 458/568/2
f 457/569/4 468/570/4 461/571/4 453/572/4
f 459/573/5 466/574/5 468/575/5 457/576/5
f 468/577/2 466/578/2 474/579/2 476/580/2
f 455/581/3 464/582/3 466/583/3 459/584/3
f 453/585/6 461/586/6 464/587/6 455/588/6
f 474/589/5 473/590/5 475/591/5 476/592/5
f 469/593/6 470/594/6 471/595/6 472/596/6
f 462/597/1 463/598/1 471/599/1 470/600/1
f 465/601/1 467/602/1 475/603/1 473/604/1
f 464/605/2 461/606/2 469/607/2 472/608/2
f 474/609/3 472/610/3 471/611/3 473/612/3
f 469/613/4 476/614/4 475/615/4 470/616/4
f 486/617/6 478/618/6 480/619/6 487/620/6
f 487/621/2 480/622/2 484/623/2 489/624/2
f 489/625/5 484/626/5 482/627/5 491/628/5
f 491/629/1 482/630/1 478/631/1 486/632/1
f 479/633/3 483/634/3 481/635/3 477/636/3
f 484/637/4 480/638/4 478/639/4 482/640/4
f 481/641/1 492/642/1 485/643/1 477/644/1
f 483/645/5 490/646/5 492/647/5 481/648/5
f 492/649/4 490/650/4 498/651/4 500/652/4
f 479/653/2 488/654/2 490/655/2 483/656/2
f 477/657/6 485/658/6 488/659/6 479/660/6
f 498/661/5 497/662/5 499/663/5 500/664/5
f 493/665/6 494/666/6 495/667/6 496/668/6
f 486/669/3 487/670/3 495/671/3 494/672/3
f 489/673/3 491/674/3 499/675/3 497/676/3
f 488/677/4 485/678/4 493/679/4 496/680/4
f 498/681/2 496/682/2 495/683/2 497/684/2
f 493/685/1 500/686/1 499/687/1 494/688/1
f 510/689/6 502/690/6 504/691/6 511/692/6
f 511/693/2 504/694/2 508/695/2 513/696/2
f 513/697/5 508/698/5 506/699/5 515/700/5
f 515/701/1 506/702/1 502/703/1 510/704/1
f 503/705/3 507/706/3 505/707/3 501/708/3
f 508/709/4 504/710/4 502/711/4 506/712/4
f 505/713/1 516/714/1 509/715/1 501/716/1
f 507/717/5 514/718/5 516/719/5 505/720/5
f 516/721/4 514/722/4 522/723/4 524/724/4
f 503/725/2 512/726/2 514/727/2 507/728/2
f 501/729/6 509/730/6 512/731/6 503/732/6
f 522/733/5 521/734/5 523/735/5 524/736/5
f 517/737/6 518/738/6 519/739/6 520/740/6
f 510/741/3 511/742/3 519/743/3 518/744/3
f 513/745/3 515/746/3 523/747/3 521/748/3
f 512/749/4 509/750/4 517/751/4 520/752/4
f 522/753/2 520/754/2 519/755/2 521/756/2
f 517/757/1 524/758/1 523/759/1 518/760/1
f 534/761/5 535/762/5 528/763/5 526/764/5
f 535/765/3 537/766/3 532/767/3 528/768/3
f 537/769/6 539/770/6 530/771/6 532/772/6
f 539/773/4 534/774/4 526/775/4 530/776/4
f 527/777/1 525/778/1 529/779/1 531/780/1
f 532/781/2 530/782/2 526/783/2 528/784/2
f 529/785/4 525/786/4 533/787/4 540/788/4
f 531/789/6 529/790/6 540/791/6 538/792/6
f 540/793/2 548/794/2 546/795/2 538/796/2
f 527/797/3 531/798/3 538/799/3 536/800/3
f 525/801/5 527/802/5 536/803/5 533/804/5
f 546/805/6 548/806/6 547/807/6 545/808/6
f 541/809/5 544/810/5 543/811/5 542/812/5
f 534/813/1 542/814/1 543/815/1 535/816/1
f 537/817/1 545/818/1 547/819/1 539/820/1
f 536/821/2 544/822/2 541/823/2 533/824/2
f 546/825/3 545/826/3 543/827/3 544/828/3
f 541/829/4 542/830/4 547/831/4 548/832/4
f 558/833/5 559/834/5 552/835/5 550/836/5
f 559/837/2 561/838/2 556/839/2 552/840/2
f 561/841/6 563/842/6 554/843/6 556/844/6
f 563/845/1 558/846/1 550/847/1 554/848/1
f 551/849/3 549/850/3 553/851/3 555/852/3
f 556/853/4 554/854/4 550/855/4 552/856/4
f 553/857/1 549/858/1 557/859/1 564/860/1
f 555/861/6 553/862/6 564/863/6 562/864/6
f 564/865/4 572/866/4 570/867/4 562/868/4
f 551/869/2 555/870/2 562/871/2 560/872/2
f 549/873/5 551/874/5 560/875/5 557/876/5
f 570/877/6 572/878/6 571/879/6 569/880/6
f 565/881/5 568/882/5 567/883/5 566/884/5
f 558/885/3 566/886/3 567/887/3 559/888/3
f 561/889/3 569/890/3 571/891/3 563/892/3
f 560/893/4 568/894/4 565/895/4 557/896/4
f 570/897/2 569/898/2 567/899/2 568/900/2
f 565/901/1 566/902/1 571/903/1 572/904/1
f 582/905/5 583/906/5 576/907/5 574/908/5
f 583/909/2 585/910/2 580/911/2 576/912/2
f 585/913/6 587/914/6 578/915/6 580/916/6
f 587/917/1 582/918/1 574/919/1 578/920/1
f 575/921/3 573/922/3 577/923/3 579/924/3
f 580/925/4 578/926/4 574/927/4 576/928/4
f 577/929/1 573/930/1 581/931/1 588/932/1
f 579/933/6 577/934/6 588/935/6 586/936/6
f 588/937/4 596/938/4 594/939/4 586/940/4
f 575/941/2 579/942/2 586/943/2 584/944/2
f 573/945/5 575/946/5 584/947/5 581/948/5
f 594/949/6 596/950/6 595/951/6 593/952/6
f 589/953/5 592/954/5 591/955/5 590/956/5
f 582/957/3 590/958/3 591/959/3 583/960/3
f 585/961/3 593/962/3 595/963/3 587/964/3
f 584/965/4 592/966/4 589/967/4 581/968/4
f 594/969/2 593/970/2 591/971/2 592/972/2
f 589/973/1 590/974/1 595/975/1 596/976/1
s 1
f 47/977/11 18/978/12 20/979/13 48/980/14
f 48/981/14 20/982/13 22/983/15 49/984/16
f 49/984/16 22/983/15 24/985/17 50/986/18
f 50/986/18 24/985/17 26/987/19 51/988/20
f 51/989/20 26/990/19 28/991/21 52/992/22
f 52/992/22 28/991/21 30/993/23 53/994/24
f 53/995/24 30/996/23 32/997/25 54/998/26
f 54/998/26 32/997/25 34/999/27 55/1000/28
f 55/1000/28 34/999/27 36/1001/29 56/1002/30
f 56/1003/30 36/1004/29 18/978/12 47/977/11
f 35/1005/31 46/1006/32 37/1007/33 17/1008/34
f 33/1009/35 45/1010/36 46/1011/32 35/1012/31
f 31/1013/37 44/1014/38 45/1010/36 33/1009/35
f 29/1015/39 43/1016/40 44/1014/38 31/1013/37
f 27/1017/41 42/1018/42 43/1019/40 29/1020/39
f 25/1021/43 41/1022/44 42/1018/42 27/1017/41
f 23/1023/45 40/1024/46 41/1025/44 25/1026/43
f 21/1027/47 39/1028/48 40/1024/46 23/1023/45
f 19/1029/49 38/1030/50 39/1028/48 21/1027/47
f 17/1008/34 37/1007/33 38/1031/50 19/1032/49
f 46/1006/32 56/1003/30 47/977/11 37/1007/33
f 45/1010/36 55/1000/28 56/1002/30 46/1011/32
f 44/1014/38 54/998/26 55/1000/28 45/1010/36
f 43/1016/40 53/995/24 54/998/26 44/1014/38
f 42/1018/42 52/992/22 53/994/24 43/1019/40
f 41/1022/44 51/989/20 52/992/22 42/1018/42
f 40/1024/46 50/986/18 51/988/20 41/1025/44
f 39/1028/48 49/984/16 50/986/18 40/1024/46
f 38/1030/50 48/981/14 49/984/16 39/1028/48
f 37/1007/33 47/977/11 48/980/14 38/1031/50
f 87/1033/51 58/1034/52 60/1035/53 88/1036/54
f 88/1037/54 60/1038/53 62/1039/55 89/1040/56
f 89/1040/56 62/1039/55 64/1041/57 90/1042/58
f 90/1042/58 64/1041/57 66/1043/59 91/1044/60
f 91/1045/60 66/1046/59 68/1047/61 92/1048/62
f 92/1048/62 68/1047/61 70/1049/63 93/1050/64
f 93/1051/64 70/1052/63 72/1053/65 94/1054/66
f 94/1054/66 72/1053/65 74/1055/67 95/1056/68
f 95/1056/68 74/1055/67 76/1057/69 96/1058/70
f 96/1059/70 76/1060/69 58/1034/52 87/1033/51
f 75/1061/71 86/1062/72 77/1063/73 57/1064/74
f 73/1065/75 85/1066/76 86/1067/72 75/1068/71
f 71/1069/77 84/1070/78 85/1066/76 73/1065/75
f 69/1071/79 83/1072/80 84/1070/78 71/1069/77
f 67/1073/81 82/1074/82 83/1075/80 69/1076/79
f 65/1077/83 81/1078/84 82/1074/82 67/1073/81
f 63/1079/85 80/1080/86 81/1081/84 65/1082/83
f 61/1083/87 79/1084/88 80/1080/86 63/1079/85
f 59/1085/89 78/1086/90 79/1084/88 61/1083/87
f 57/1064/74 77/1063/73 78/1087/90 59/1088/89
f 86/1062/72 96/1089/70 87/1090/51 77/1063/73
f 85/1066/76 95/1056/68 96/1058/70 86/1067/72
f 84/1070/78 94/1054/66 95/1056/68 85/1066/76
f 83/1072/80 93/1051/64 94/1054/66 84/1070/78
f 82/1091/82 92/1048/62 93/1050/64 83/1092/80
f 81/1093/84 91/1045/60 92/1048/62 82/1091/82
f 80/1080/86 90/1042/58 91/1044/60 81/1081/84
f 79/1084/88 89/1040/56 90/1042/58 80/1080/86
f 78/1086/90 88/1037/54 89/1040/56 79/1084/88
f 77/1063/73 87/1090/51 88/1094/54 78/1087/90
f 127/1095/11 128/1096/30 100/1097/29 98/1098/12
f 128/1099/30 129/1100/28 102/1101/27 100/1102/29
f 129/1100/28 130/1103/26 104/1104/91 102/1101/27
f 130/1103/26 131/1105/24 106/1106/23 104/1104/91
f 131/1107/24 132/1108/22 108/1109/21 106/1110/23
f 132/1108/22 133/1111/20 110/1112/19 108/1109/21
f 133/1113/20 134/1114/18 112/1115/92 110/1116/19
f 134/1114/18 135/1117/16 114/1118/15 112/1115/92
f 135/1117/16 136/1119/14 116/1120/13 114/1118/15
f 136/1121/14 127/1095/11 98/1098/12 116/1122/13
f 115/1123/49 97/1124/34 117/1125/33 126/1126/50
f 113/1127/93 115/1128/49 126/1129/50 125/1130/48
f 111/1131/45 113/1127/93 125/1130/48 124/1132/46
f 109/1133/43 111/1131/45 124/1132/46 123/1134/44
f 107/1135/41 109/1136/43 123/1137/44 122/1138/42
f 105/1139/39 107/1135/41 122/1138/42 121/1140/40
f 103/1141/37 105/1142/39 121/1143/40 120/1144/38
f 101/1145/94 103/1141/37 120/1144/38 119/1146/36
f 99/1147/31 101/1145/94 119/1146/36 118/1148/32
f 97/1124/34 99/1149/31 118/1150/32 117/1125/33
f 126/1126/50 117/1125/33 127/1095/11 136/1121/14
f 125/1130/48 126/1129/50 136/1119/14 135/1117/16
f 124/1132/46 125/1130/48 135/1117/16 134/1114/18
f 123/1134/44 124/1132/46 134/1114/18 133/1113/20
f 122/1138/42 123/1137/44 133/1111/20 132/1108/22
f 121/1140/40 122/1138/42 132/1108/22 131/1107/24
f 120/1144/38 121/1143/40 131/1105/24 130/1103/26
f 119/1146/36 120/1144/38 130/1103/26 129/1100/28
f 118/1148/32 119/1146/36 129/1100/28 128/1099/30
f 117/1125/33 118/1150/32 128/1096/30 127/1095/11
f 167/1151/95 168/1152/96 140/1153/97 138/1154/98
f 168/1155/96 169/1156/99 142/1157/100 140/1158/97
f 169/1156/99 170/1159/101 144/1160/102 142/1157/100
f 170/1159/101 171/1161/103 146/1162/104 144/1160/102
f 171/1163/103 172/1164/105 148/1165/106 146/1166/104
f 172/1164/105 173/1167/107 150/1168/108 148/1165/106
f 173/1169/107 174/1170/109 152/1171/110 150/1172/108
f 174/1170/109 175/1173/111 154/1174/112 152/1171/110
f 175/1173/111 176/1175/113 156/1176/114 154/1174/112
f 176/1177/113 167/1151/95 138/1154/98 156/1178/114
f 155/1179/115 137/1180/116 157/1181/117 166/1182/118
f 153/1183/119 155/1184/115 166/1185/118 165/1186/120
f 151/1187/121 153/1183/119 165/1186/120 164/1188/122
f 149/1189/123 151/1187/121 164/1188/122 163/1190/124
f 147/1191/125 149/1192/123 163/1193/124 162/1194/126
f 145/1195/127 147/1191/125 162/1194/126 161/1196/128
f 143/1197/129 145/1198/127 161/1199/128 160/1200/130
f 141/1201/131 143/1197/129 160/1200/130 159/1202/132
f 139/1203/133 141/1201/131 159/1202/132 158/1204/134
f 137/1180/116 139/1205/133 158/1206/134 157/1181/117
f 166/1182/118 157/1181/117 167/1207/95 176/1208/113
f 165/1186/120 166/1185/118 176/1175/113 175/1173/111
f 164/1188/122 165/1186/120 175/1173/111 174/1170/109
f 163/1190/124 164/1188/122 174/1170/109 173/1169/107
f 162/1209/126 163/1210/124 173/1167/107 172/1164/105
f 161/1211/128 162/1209/126 172/1164/105 171/1163/103
f 160/1200/130 161/1199/128 171/1161/103 170/1159/101
f 159/1202/132 160/1200/130 170/1159/101 169/1156/99
f 158/1204/134 159/1202/132 169/1156/99 168/1155/96
f 157/1181/117 158/1206/134 168/1212/96 167/1207/95
f 245/1213/3 248/1214/3 247/1215/135 246/1216/135
f 246/1216/135 247/1215/135 250/1217/136 249/1218/136
f 249/1219/136 250/1220/136 252/1221/137 251/1222/137
f 251/1222/137 252/1221/137 254/1223/5 253/1224/5
f 253/1224/5 254/1223/5 256/1225/138 255/1226/138
f 255/1226/138 256/1225/138 258/1227/7 257/1228/7
f 257/1229/7 258/1230/7 260/1231/139 259/1232/139
f 259/1232/139 260/1231/139 262/1233/4 261/1234/4
f 261/1234/4 262/1233/4 264/1235/140 263/1236/140
f 263/1236/140 264/1235/140 266/1237/8 265/1238/8
f 265/1239/8 266/1240/8 268/1241/141 267/1242/141
f 267/1242/141 268/1241/141 270/1243/6 269/1244/6
f 269/1244/6 270/1243/6 272/1245/142 271/1246/142
f 271/1246/142 272/1245/142 274/1247/143 273/1248/143
f 273/1249/143 274/1250/143 244/1251/144 275/1252/144
f 275/1252/144 244/1251/144 248/1214/3 245/1213/3
f 309/1253/3 310/1254/144 311/1255/144 312/1256/3
f 310/1254/144 313/1257/143 314/1258/143 311/1255/144
f 313/1259/143 315/1260/142 316/1261/142 314/1262/143
f 315/1260/142 317/1263/6 318/1264/6 316/1261/142
f 317/1263/6 319/1265/141 320/1266/141 318/1264/6
f 319/1265/141 321/1267/8 322/1268/8 320/1266/141
f 321/1269/8 323/1270/140 324/1271/140 322/1272/8
f 323/1270/140 325/1273/4 326/1274/4 324/1271/140
f 325/1273/4 327/1275/139 328/1276/139 326/1274/4
f 327/1275/139 329/1277/7 330/1278/7 328/1276/139
f 329/1279/7 331/1280/138 332/1281/138 330/1282/7
f 331/1280/138 333/1283/5 334/1284/5 332/1281/138
f 333/1283/5 335/1285/137 336/1286/137 334/1284/5
f 335/1285/137 337/1287/136 338/1288/136 336/1286/137
f 337/1289/136 339/1290/135 308/1291/135 338/1292/136
f 339/1290/135 309/1253/3 312/1256/3 308/1291/135
