# Blender v2.79 (sub 0) OBJ File: ''
# www.blender.org
mtllib placemarker.mtl
o Torus
v 0.440000 0.000000 0.000000
v 0.424940 0.031273 0.000000
v 0.391099 0.038997 0.000000
v 0.363961 0.017355 0.000000
v 0.363961 -0.017355 0.000000
v 0.391099 -0.038997 0.000000
v 0.424940 -0.031273 0.000000
v 0.406507 0.000000 -0.168381
v 0.392593 0.031273 -0.162617
v 0.361329 0.038997 -0.149667
v 0.336256 0.017355 -0.139282
v 0.336256 -0.017355 -0.139282
v 0.361329 -0.038997 -0.149667
v 0.392593 -0.031273 -0.162617
v 0.311127 0.000000 -0.311127
v 0.300478 0.031273 -0.300478
v 0.276549 0.038997 -0.276549
v 0.257359 0.017355 -0.257359
v 0.257359 -0.017355 -0.257359
v 0.276549 -0.038997 -0.276549
v 0.300478 -0.031273 -0.300478
v 0.168381 0.000000 -0.406507
v 0.162617 0.031273 -0.392593
v 0.149667 0.038997 -0.361328
v 0.139282 0.017355 -0.336256
v 0.139282 -0.017355 -0.336256
v 0.149667 -0.038997 -0.361328
v 0.162617 -0.031273 -0.392593
v 0.000000 0.000000 -0.440000
v 0.000000 0.031273 -0.424940
v 0.000000 0.038997 -0.391099
v 0.000000 0.017355 -0.363961
v 0.000000 -0.017355 -0.363961
v 0.000000 -0.038997 -0.391099
v 0.000000 -0.031273 -0.424940
v -0.168381 0.000000 -0.406507
v -0.162617 0.031273 -0.392593
v -0.149667 0.038997 -0.361328
v -0.139282 0.017355 -0.336256
v -0.139282 -0.017355 -0.336256
v -0.149667 -0.038997 -0.361328
v -0.162617 -0.031273 -0.392593
v -0.311127 0.000000 -0.311127
v -0.300478 0.031273 -0.300478
v -0.276549 0.038997 -0.276549
v -0.257360 0.017355 -0.257359
v -0.257360 -0.017355 -0.257359
v -0.276549 -0.038997 -0.276549
v -0.300478 -0.031273 -0.300478
v -0.406507 0.000000 -0.168381
v -0.392593 0.031273 -0.162617
v -0.361329 0.038997 -0.149667
v -0.336256 0.017355 -0.139282
v -0.336256 -0.017355 -0.139282
v -0.361329 -0.038997 -0.149667
v -0.392593 -0.031273 -0.162617
v -0.440000 0.000000 -0.000000
v -0.424940 0.031273 -0.000000
v -0.391099 0.038997 -0.000000
v -0.363961 0.017355 -0.000000
v -0.363961 -0.017355 -0.000000
v -0.391099 -0.038997 -0.000000
v -0.424940 -0.031273 -0.000000
v -0.406507 0.000000 0.168381
v -0.392593 0.031273 0.162617
v -0.361329 0.038997 0.149667
v -0.336256 0.017355 0.139282
v -0.336256 -0.017355 0.139282
v -0.361329 -0.038997 0.149667
v -0.392593 -0.031273 0.162617
v -0.311127 0.000000 0.311127
v -0.300478 0.031273 0.300478
v -0.276549 0.038997 0.276549
v -0.257360 0.017355 0.257359
v -0.257360 -0.017355 0.257359
v -0.276549 -0.038997 0.276549
v -0.300478 -0.031273 0.300478
v -0.168381 0.000000 0.406507
v -0.162617 0.031273 0.392593
v -0.149667 0.038997 0.361328
v -0.139282 0.017355 0.336256
v -0.139282 -0.017355 0.336256
v -0.149667 -0.038997 0.361328
v -0.162617 -0.031273 0.392593
v 0.000000 0.000000 0.440000
v 0.000000 0.031273 0.424940
v 0.000000 0.038997 0.391099
v 0.000000 0.017355 0.363961
v 0.000000 -0.017355 0.363961
v 0.000000 -0.038997 0.391099
v 0.000000 -0.031273 0.424940
v 0.168381 0.000000 0.406507
v 0.162617 0.031273 0.392593
v 0.149667 0.038997 0.361328
v 0.139282 0.017355 0.336256
v 0.139282 -0.017355 0.336256
v 0.149667 -0.038997 0.361328
v 0.162617 -0.031273 0.392593
v 0.311127 0.000000 0.311127
v 0.300477 0.031273 0.300478
v 0.276549 0.038997 0.276549
v 0.257359 0.017355 0.257360
v 0.257359 -0.017355 0.257360
v 0.276549 -0.038997 0.276549
v 0.300477 -0.031273 0.300478
v 0.406507 0.000000 0.168381
v 0.392593 0.031273 0.162618
v 0.361328 0.038997 0.149667
v 0.336256 0.017355 0.139282
v 0.336256 -0.017355 0.139282
v 0.361328 -0.038997 0.149667
v 0.392593 -0.031273 0.162618
v 0.000000 0.792894 0.337451
v 0.129137 0.792894 0.311764
v 0.238614 0.792894 0.238614
v 0.311764 0.792894 0.129137
v 0.337451 0.792894 -0.000000
v 0.311764 0.792894 -0.129137
v 0.238614 0.792894 -0.238614
v 0.129137 0.792894 -0.311764
v 0.000000 0.792894 -0.337451
v -0.129137 0.792894 -0.311764
v -0.238614 0.792894 -0.238614
v 0.000000 0.012562 -0.000000
v -0.311764 0.792894 -0.129137
v -0.337451 0.792894 0.000000
v -0.311764 0.792894 0.129137
v -0.238614 0.792894 0.238614
v -0.129137 0.792894 0.311764
v 0.000000 0.792894 0.337451
v 0.129137 0.792894 0.311764
v 0.238614 0.792894 0.238614
v 0.311764 0.792894 0.129137
v 0.337451 0.792894 -0.000000
v 0.311764 0.792894 -0.129137
v 0.238614 0.792894 -0.238614
v 0.129137 0.792894 -0.311764
v 0.000000 0.792894 -0.337451
v -0.129137 0.792894 -0.311764
v -0.238614 0.792894 -0.238614
v -0.311764 0.792894 -0.129137
v -0.337451 0.792894 0.000000
v -0.311764 0.792894 0.129137
v -0.238614 0.792894 0.238614
v -0.129137 0.792894 0.311764
vn 1.0000 0.0000 0.0000
vn 0.9239 0.0000 -0.3827
vn 0.6046 0.7561 -0.2504
vn 0.6544 0.7561 0.0000
vn -0.1569 0.9854 0.0650
vn -0.1699 0.9854 0.0000
vn -0.8220 0.4564 0.3405
vn -0.8897 0.4564 0.0000
vn -0.8220 -0.4564 0.3405
vn -0.8897 -0.4564 0.0000
vn -0.1569 -0.9854 0.0650
vn -0.1699 -0.9854 0.0000
vn 0.6046 -0.7561 -0.2504
vn 0.6544 -0.7561 0.0000
vn 0.7071 0.0000 -0.7071
vn 0.4628 0.7561 -0.4628
vn -0.1201 0.9854 0.1201
vn -0.6291 0.4564 0.6291
vn -0.6291 -0.4564 0.6291
vn -0.1201 -0.9854 0.1201
vn 0.4628 -0.7561 -0.4628
vn 0.3827 0.0000 -0.9239
vn 0.2504 0.7561 -0.6046
vn -0.0650 0.9854 0.1569
vn -0.3405 0.4564 0.8220
vn -0.3405 -0.4564 0.8220
vn -0.0650 -0.9854 0.1569
vn 0.2504 -0.7561 -0.6046
vn 0.0000 0.0000 -1.0000
vn 0.0000 0.7561 -0.6544
vn 0.0000 0.9854 0.1699
vn 0.0000 0.4564 0.8897
vn 0.0000 -0.4564 0.8897
vn 0.0000 -0.9854 0.1699
vn 0.0000 -0.7561 -0.6544
vn -0.3827 0.0000 -0.9239
vn -0.2504 0.7561 -0.6046
vn 0.0650 0.9854 0.1569
vn 0.3405 0.4564 0.8220
vn 0.3405 -0.4564 0.8220
vn 0.0650 -0.9854 0.1569
vn -0.2504 -0.7561 -0.6046
vn -0.7071 0.0000 -0.7071
vn -0.4628 0.7561 -0.4628
vn 0.1201 0.9854 0.1201
vn 0.6291 0.4564 0.6291
vn 0.6291 -0.4564 0.6291
vn 0.1201 -0.9854 0.1201
vn -0.4628 -0.7561 -0.4628
vn -0.9239 0.0000 -0.3827
vn -0.6046 0.7561 -0.2504
vn 0.1569 0.9854 0.0650
vn 0.8220 0.4564 0.3405
vn 0.8220 -0.4564 0.3405
vn 0.1569 -0.9854 0.0650
vn -0.6046 -0.7561 -0.2504
vn -1.0000 0.0000 0.0000
vn -0.6544 0.7561 0.0000
vn 0.1699 0.9854 0.0000
vn 0.8897 0.4564 0.0000
vn 0.8897 -0.4564 0.0000
vn 0.1699 -0.9854 0.0000
vn -0.6544 -0.7561 0.0000
vn -0.9239 0.0000 0.3827
vn -0.6046 0.7561 0.2504
vn 0.1569 0.9854 -0.0650
vn 0.8220 0.4564 -0.3405
vn 0.8220 -0.4564 -0.3405
vn 0.1569 -0.9854 -0.0650
vn -0.6046 -0.7561 0.2504
vn -0.7071 0.0000 0.7071
vn -0.4628 0.7561 0.4628
vn 0.1201 0.9854 -0.1201
vn 0.6291 0.4564 -0.6291
vn 0.6291 -0.4564 -0.6291
vn 0.1201 -0.9854 -0.1201
vn -0.4628 -0.7561 0.4628
vn -0.3827 0.0000 0.9239
vn -0.2504 0.7561 0.6046
vn 0.0650 0.9854 -0.1569
vn 0.3405 0.4564 -0.8220
vn 0.3405 -0.4564 -0.8220
vn 0.0650 -0.9854 -0.1569
vn -0.2504 -0.7561 0.6046
vn 0.0000 0.0000 1.0000
vn 0.0000 0.7561 0.6544
vn 0.0000 0.9854 -0.1699
vn 0.0000 0.4564 -0.8897
vn 0.0000 -0.4564 -0.8897
vn 0.0000 -0.9854 -0.1699
vn 0.0000 -0.7561 0.6544
vn 0.3827 0.0000 0.9239
vn 0.2504 0.7561 0.6046
vn -0.0650 0.9854 -0.1569
vn -0.3405 0.4564 -0.8220
vn -0.3405 -0.4564 -0.8220
vn -0.0650 -0.9854 -0.1569
vn 0.2504 -0.7561 0.6046
vn 0.7071 0.0000 0.7071
vn 0.4628 0.7561 0.4628
vn -0.1201 0.9854 -0.1201
vn -0.6291 0.4564 -0.6291
vn -0.6291 -0.4564 -0.6291
vn -0.1201 -0.9854 -0.1201
vn 0.4628 -0.7561 0.4628
vn 0.9239 0.0000 0.3827
vn 0.6046 0.7561 0.2504
vn -0.1569 0.9854 -0.0650
vn -0.8220 0.4564 -0.3405
vn -0.8220 -0.4564 -0.3405
vn -0.1569 -0.9854 -0.0650
vn 0.6046 -0.7561 0.2504
vn 0.0000 -0.3969 0.9178
vn 0.0000 -1.0000 0.0000
vn 0.3512 -0.3969 0.8480
vn 0.6490 -0.3969 0.6490
vn 0.8480 -0.3969 0.3512
vn 0.9178 -0.3969 0.0000
vn 0.8480 -0.3969 -0.3512
vn 0.6490 -0.3969 -0.6490
vn 0.3512 -0.3969 -0.8480
vn 0.0000 -0.3969 -0.9178
vn -0.3512 -0.3969 -0.8480
vn -0.6490 -0.3969 -0.6490
vn -0.8480 -0.3969 -0.3512
vn -0.9178 -0.3969 0.0000
vn -0.8480 -0.3969 0.3512
vn -0.6490 -0.3969 0.6490
vn -0.3512 -0.3969 0.8480
vn 0.0000 1.0000 0.0000
usemtl None
s 1
f 1//1 8//2 9//3 2//4
f 2//4 9//3 10//5 3//6
f 3//6 10//5 11//7 4//8
f 4//8 11//7 12//9 5//10
f 5//10 12//9 13//11 6//12
f 6//12 13//11 14//13 7//14
f 7//14 14//13 8//2 1//1
f 8//2 15//15 16//16 9//3
f 9//3 16//16 17//17 10//5
f 10//5 17//17 18//18 11//7
f 11//7 18//18 19//19 12//9
f 12//9 19//19 20//20 13//11
f 13//11 20//20 21//21 14//13
f 14//13 21//21 15//15 8//2
f 15//15 22//22 23//23 16//16
f 16//16 23//23 24//24 17//17
f 17//17 24//24 25//25 18//18
f 18//18 25//25 26//26 19//19
f 19//19 26//26 27//27 20//20
f 20//20 27//27 28//28 21//21
f 21//21 28//28 22//22 15//15
f 22//22 29//29 30//30 23//23
f 23//23 30//30 31//31 24//24
f 24//24 31//31 32//32 25//25
f 25//25 32//32 33//33 26//26
f 26//26 33//33 34//34 27//27
f 27//27 34//34 35//35 28//28
f 28//28 35//35 29//29 22//22
f 29//29 36//36 37//37 30//30
f 30//30 37//37 38//38 31//31
f 31//31 38//38 39//39 32//32
f 32//32 39//39 40//40 33//33
f 33//33 40//40 41//41 34//34
f 34//34 41//41 42//42 35//35
f 35//35 42//42 36//36 29//29
f 36//36 43//43 44//44 37//37
f 37//37 44//44 45//45 38//38
f 38//38 45//45 46//46 39//39
f 39//39 46//46 47//47 40//40
f 40//40 47//47 48//48 41//41
f 41//41 48//48 49//49 42//42
f 42//42 49//49 43//43 36//36
f 43//43 50//50 51//51 44//44
f 44//44 51//51 52//52 45//45
f 45//45 52//52 53//53 46//46
f 46//46 53//53 54//54 47//47
f 47//47 54//54 55//55 48//48
f 48//48 55//55 56//56 49//49
f 49//49 56//56 50//50 43//43
f 50//50 57//57 58//58 51//51
f 51//51 58//58 59//59 52//52
f 52//52 59//59 60//60 53//53
f 53//53 60//60 61//61 54//54
f 54//54 61//61 62//62 55//55
f 55//55 62//62 63//63 56//56
f 56//56 63//63 57//57 50//50
f 57//57 64//64 65//65 58//58
f 58//58 65//65 66//66 59//59
f 59//59 66//66 67//67 60//60
f 60//60 67//67 68//68 61//61
f 61//61 68//68 69//69 62//62
f 62//62 69//69 70//70 63//63
f 63//63 70//70 64//64 57//57
f 64//64 71//71 72//72 65//65
f 65//65 72//72 73//73 66//66
f 66//66 73//73 74//74 67//67
f 67//67 74//74 75//75 68//68
f 68//68 75//75 76//76 69//69
f 69//69 76//76 77//77 70//70
f 70//70 77//77 71//71 64//64
f 71//71 78//78 79//79 72//72
f 72//72 79//79 80//80 73//73
f 73//73 80//80 81//81 74//74
f 74//74 81//81 82//82 75//75
f 75//75 82//82 83//83 76//76
f 76//76 83//83 84//84 77//77
f 77//77 84//84 78//78 71//71
f 78//78 85//85 86//86 79//79
f 79//79 86//86 87//87 80//80
f 80//80 87//87 88//88 81//81
f 81//81 88//88 89//89 82//82
f 82//82 89//89 90//90 83//83
f 83//83 90//90 91//91 84//84
f 84//84 91//91 85//85 78//78
f 85//85 92//92 93//93 86//86
f 86//86 93//93 94//94 87//87
f 87//87 94//94 95//95 88//88
f 88//88 95//95 96//96 89//89
f 89//89 96//96 97//97 90//90
f 90//90 97//97 98//98 91//91
f 91//91 98//98 92//92 85//85
f 92//92 99//99 100//100 93//93
f 93//93 100//100 101//101 94//94
f 94//94 101//101 102//102 95//95
f 95//95 102//102 103//103 96//96
f 96//96 103//103 104//104 97//97
f 97//97 104//104 105//105 98//98
f 98//98 105//105 99//99 92//92
f 99//99 106//106 107//107 100//100
f 100//100 107//107 108//108 101//101
f 101//101 108//108 109//109 102//102
f 102//102 109//109 110//110 103//103
f 103//103 110//110 111//111 104//104
f 104//104 111//111 112//112 105//105
f 105//105 112//112 106//106 99//99
f 106//106 1//1 2//4 107//107
f 107//107 2//4 3//6 108//108
f 108//108 3//6 4//8 109//109
f 109//109 4//8 5//10 110//110
f 110//110 5//10 6//12 111//111
f 111//111 6//12 7//14 112//112
f 112//112 7//14 1//1 106//106
f 113//113 124//114 114//115
f 114//115 124//114 115//116
f 115//116 124//114 116//117
f 116//117 124//114 117//118
f 117//118 124//114 118//119
f 118//119 124//114 119//120
f 119//120 124//114 120//121
f 120//121 124//114 121//122
f 121//122 124//114 122//123
f 122//123 124//114 123//124
f 123//124 124//114 125//125
f 125//125 124//114 126//126
f 126//126 124//114 127//127
f 127//127 124//114 128//128
f 128//128 124//114 129//129
f 129//129 124//114 113//113
f 130//130 131//130 132//130 133//130 134//130 135//130 136//130 137//130 138//130 139//130 140//130 141//130 142//130 143//130 144//130 145//130
