# Blender v2.79 (sub 0) OBJ File: ''
# www.blender.org
mtllib waypoint_ring.mtl
o Torus.001
v 1.144000 0.000000 0.000000
v 1.056918 0.000000 -0.437791
v 1.020742 0.081310 -0.422804
v 1.104844 0.081310 0.000000
v 0.939456 0.101392 -0.389134
v 1.016858 0.101392 0.000000
v 0.874266 0.045123 -0.362133
v 0.946299 0.045123 0.000000
v 0.874266 -0.045123 -0.362133
v 0.946299 -0.045123 -0.000000
v 0.939456 -0.101392 -0.389134
v 1.016858 -0.101392 -0.000000
v 1.020742 -0.081310 -0.422804
v 1.104844 -0.081310 -0.000000
v 0.808930 0.000000 -0.808930
v 0.781243 0.081310 -0.781243
v 0.719028 0.101392 -0.719027
v 0.669134 0.045123 -0.669133
v 0.669134 -0.045123 -0.669133
v 0.719028 -0.101392 -0.719027
v 0.781243 -0.081310 -0.781243
v 0.437791 0.000000 -1.056918
v 0.422804 0.081310 -1.020742
v 0.389134 0.101392 -0.939453
v 0.362133 0.045123 -0.874266
v 0.362133 -0.045123 -0.874266
v 0.389134 -0.101392 -0.939453
v 0.422804 -0.081310 -1.020742
v 0.000000 0.000000 -1.144000
v 0.000000 0.081310 -1.104844
v 0.000000 0.101392 -1.016858
v 0.000000 0.045123 -0.946299
v 0.000000 -0.045123 -0.946299
v 0.000000 -0.101392 -1.016858
v 0.000000 -0.081310 -1.104844
v -0.437791 0.000000 -1.056918
v -0.422804 0.081310 -1.020742
v -0.389134 0.101392 -0.939453
v -0.362133 0.045123 -0.874266
v -0.362133 -0.045123 -0.874266
v -0.389134 -0.101392 -0.939453
v -0.422804 -0.081310 -1.020742
v -0.808930 0.000000 -0.808930
v -0.781243 0.081310 -0.781243
v -0.719027 0.101392 -0.719027
v -0.669136 0.045123 -0.669133
v -0.669136 -0.045123 -0.669133
v -0.719027 -0.101392 -0.719027
v -0.781243 -0.081310 -0.781243
v -1.056918 0.000000 -0.437791
v -1.020742 0.081310 -0.422804
v -0.939455 0.101392 -0.389134
v -0.874266 0.045123 -0.362133
v -0.874266 -0.045123 -0.362133
v -0.939455 -0.101392 -0.389134
v -1.020742 -0.081310 -0.422804
v -1.144000 0.000000 0.000000
v -1.104844 0.081310 0.000000
v -1.016857 0.101392 0.000000
v -0.946299 0.045123 0.000000
v -0.946299 -0.045123 -0.000000
v -1.016857 -0.101392 -0.000000
v -1.104844 -0.081310 -0.000000
v -1.056918 -0.000000 0.437791
v -1.020742 0.081310 0.422804
v -0.939455 0.101392 0.389134
v -0.874266 0.045123 0.362133
v -0.874266 -0.045123 0.362133
v -0.939455 -0.101392 0.389134
v -1.020742 -0.081310 0.422804
v -0.808930 -0.000000 0.808930
v -0.781243 0.081310 0.781243
v -0.719027 0.101392 0.719027
v -0.669136 0.045123 0.669133
v -0.669136 -0.045123 0.669133
v -0.719027 -0.101392 0.719027
v -0.781243 -0.081310 0.781243
v -0.437791 -0.000000 1.056918
v -0.422804 0.081310 1.020742
v -0.389134 0.101392 0.939453
v -0.362133 0.045123 0.874266
v -0.362133 -0.045123 0.874266
v -0.389134 -0.101392 0.939453
v -0.422804 -0.081310 1.020742
v 0.000000 -0.000000 1.144000
v 0.000000 0.081310 1.104844
v 0.000000 0.101392 1.016857
v 0.000000 0.045123 0.946299
v 0.000000 -0.045123 0.946299
v 0.000000 -0.101392 1.016857
v 0.000000 -0.081310 1.104844
v 0.437791 -0.000000 1.056918
v 0.422804 0.081310 1.020742
v 0.389134 0.101392 0.939453
v 0.362133 0.045123 0.874266
v 0.362133 -0.045123 0.874266
v 0.389134 -0.101392 0.939453
v 0.422804 -0.081310 1.020742
v 0.808930 -0.000000 0.808930
v 0.781240 0.081310 0.781243
v 0.719028 0.101392 0.719027
v 0.669134 0.045123 0.669136
v 0.669134 -0.045123 0.669136
v 0.719028 -0.101392 0.719027
v 0.781240 -0.081310 0.781243
v 1.056918 -0.000000 0.437791
v 1.020742 0.081310 0.422807
v 0.939453 0.101392 0.389134
v 0.874266 0.045123 0.362133
v 0.874266 -0.045123 0.362133
v 0.939453 -0.101392 0.389134
v 1.020742 -0.081310 0.422807
vn 1.0000 -0.0000 -0.0000
vn 0.9239 0.0000 -0.3827
vn 0.6046 0.7561 -0.2504
vn 0.6544 0.7561 -0.0000
vn -0.1569 0.9855 0.0650
vn -0.1699 0.9855 -0.0000
vn -0.8220 0.4565 0.3405
vn -0.8897 0.4565 -0.0000
vn -0.8220 -0.4565 0.3405
vn -0.8897 -0.4565 -0.0000
vn -0.1569 -0.9855 0.0650
vn -0.1699 -0.9855 -0.0000
vn 0.6046 -0.7561 -0.2504
vn 0.6544 -0.7561 -0.0000
vn 0.7071 0.0000 -0.7071
vn 0.4628 0.7561 -0.4628
vn -0.1201 0.9855 0.1201
vn -0.6291 0.4565 0.6291
vn -0.6291 -0.4565 0.6291
vn -0.1201 -0.9855 0.1201
vn 0.4628 -0.7561 -0.4628
vn 0.3827 0.0000 -0.9239
vn 0.2504 0.7561 -0.6046
vn -0.0650 0.9855 0.1569
vn -0.3405 0.4565 0.8220
vn -0.3405 -0.4565 0.8220
vn -0.0650 -0.9855 0.1569
vn 0.2504 -0.7561 -0.6046
vn 0.0000 0.0000 -1.0000
vn 0.0000 0.7561 -0.6544
vn 0.0000 0.9855 0.1699
vn 0.0000 0.4564 0.8897
vn 0.0000 -0.4564 0.8897
vn 0.0000 -0.9855 0.1699
vn 0.0000 -0.7561 -0.6544
vn -0.3827 0.0000 -0.9239
vn -0.2504 0.7561 -0.6046
vn 0.0650 0.9855 0.1569
vn 0.3405 0.4564 0.8220
vn 0.3405 -0.4564 0.8220
vn 0.0650 -0.9855 0.1569
vn -0.2504 -0.7561 -0.6046
vn -0.7071 0.0000 -0.7071
vn -0.4628 0.7561 -0.4628
vn 0.1201 0.9855 0.1201
vn 0.6291 0.4564 0.6291
vn 0.6291 -0.4564 0.6291
vn 0.1201 -0.9855 0.1201
vn -0.4628 -0.7561 -0.4628
vn -0.9239 0.0000 -0.3827
vn -0.6046 0.7561 -0.2504
vn 0.1569 0.9855 0.0650
vn 0.8220 0.4565 0.3405
vn 0.8220 -0.4565 0.3405
vn 0.1569 -0.9855 0.0650
vn -0.6046 -0.7561 -0.2504
vn -1.0000 0.0000 0.0000
vn -0.6544 0.7561 0.0000
vn 0.1699 0.9855 0.0000
vn 0.8897 0.4565 0.0000
vn 0.8897 -0.4565 -0.0000
vn 0.1699 -0.9855 -0.0000
vn -0.6544 -0.7561 -0.0000
vn -0.9239 -0.0000 0.3827
vn -0.6046 0.7561 0.2504
vn 0.1569 0.9855 -0.0650
vn 0.8220 0.4565 -0.3405
vn 0.8220 -0.4565 -0.3405
vn 0.1569 -0.9855 -0.0650
vn -0.6046 -0.7561 0.2504
vn -0.7071 -0.0000 0.7071
vn -0.4628 0.7561 0.4628
vn 0.1201 0.9855 -0.1201
vn 0.6291 0.4564 -0.6291
vn 0.6291 -0.4564 -0.6291
vn 0.1201 -0.9855 -0.1201
vn -0.4628 -0.7561 0.4628
vn -0.3827 0.0000 0.9239
vn -0.2504 0.7561 0.6046
vn 0.0650 0.9855 -0.1569
vn 0.3405 0.4564 -0.8220
vn 0.3405 -0.4564 -0.8220
vn 0.0650 -0.9855 -0.1569
vn -0.2504 -0.7561 0.6046
vn -0.0000 0.0000 1.0000
vn 0.0000 0.7561 0.6544
vn 0.0000 0.9855 -0.1699
vn 0.0000 0.4564 -0.8898
vn 0.0000 -0.4564 -0.8898
vn 0.0000 -0.9855 -0.1699
vn 0.0000 -0.7561 0.6544
vn 0.3827 0.0000 0.9239
vn 0.2504 0.7561 0.6046
vn -0.0650 0.9855 -0.1569
vn -0.3405 0.4564 -0.8220
vn -0.3405 -0.4564 -0.8220
vn -0.0650 -0.9855 -0.1569
vn 0.2504 -0.7561 0.6046
vn 0.7071 -0.0000 0.7071
vn 0.4628 0.7561 0.4628
vn -0.1201 0.9855 -0.1201
vn -0.6291 0.4564 -0.6291
vn -0.6291 -0.4564 -0.6291
vn -0.1201 -0.9855 -0.1201
vn 0.4628 -0.7561 0.4628
vn 0.9239 -0.0000 0.3827
vn 0.6046 0.7561 0.2504
vn -0.1569 0.9855 -0.0650
vn -0.8220 0.4564 -0.3405
vn -0.8220 -0.4564 -0.3405
vn -0.1569 -0.9855 -0.0650
vn 0.6046 -0.7561 0.2504
usemtl None
s 1
f 1//1 2//2 3//3 4//4
f 4//4 3//3 5//5 6//6
f 6//6 5//5 7//7 8//8
f 8//8 7//7 9//9 10//10
f 10//10 9//9 11//11 12//12
f 12//12 11//11 13//13 14//14
f 14//14 13//13 2//2 1//1
f 2//2 15//15 16//16 3//3
f 3//3 16//16 17//17 5//5
f 5//5 17//17 18//18 7//7
f 7//7 18//18 19//19 9//9
f 9//9 19//19 20//20 11//11
f 11//11 20//20 21//21 13//13
f 13//13 21//21 15//15 2//2
f 15//15 22//22 23//23 16//16
f 16//16 23//23 24//24 17//17
f 17//17 24//24 25//25 18//18
f 18//18 25//25 26//26 19//19
f 19//19 26//26 27//27 20//20
f 20//20 27//27 28//28 21//21
f 21//21 28//28 22//22 15//15
f 22//22 29//29 30//30 23//23
f 23//23 30//30 31//31 24//24
f 24//24 31//31 32//32 25//25
f 25//25 32//32 33//33 26//26
f 26//26 33//33 34//34 27//27
f 27//27 34//34 35//35 28//28
f 28//28 35//35 29//29 22//22
f 29//29 36//36 37//37 30//30
f 30//30 37//37 38//38 31//31
f 31//31 38//38 39//39 32//32
f 32//32 39//39 40//40 33//33
f 33//33 40//40 41//41 34//34
f 34//34 41//41 42//42 35//35
f 35//35 42//42 36//36 29//29
f 36//36 43//43 44//44 37//37
f 37//37 44//44 45//45 38//38
f 38//38 45//45 46//46 39//39
f 39//39 46//46 47//47 40//40
f 40//40 47//47 48//48 41//41
f 41//41 48//48 49//49 42//42
f 42//42 49//49 43//43 36//36
f 43//43 50//50 51//51 44//44
f 44//44 51//51 52//52 45//45
f 45//45 52//52 53//53 46//46
f 46//46 53//53 54//54 47//47
f 47//47 54//54 55//55 48//48
f 48//48 55//55 56//56 49//49
f 49//49 56//56 50//50 43//43
f 50//50 57//57 58//58 51//51
f 51//51 58//58 59//59 52//52
f 52//52 59//59 60//60 53//53
f 53//53 60//60 61//61 54//54
f 54//54 61//61 62//62 55//55
f 55//55 62//62 63//63 56//56
f 56//56 63//63 57//57 50//50
f 57//57 64//64 65//65 58//58
f 58//58 65//65 66//66 59//59
f 59//59 66//66 67//67 60//60
f 60//60 67//67 68//68 61//61
f 61//61 68//68 69//69 62//62
f 62//62 69//69 70//70 63//63
f 63//63 70//70 64//64 57//57
f 64//64 71//71 72//72 65//65
f 65//65 72//72 73//73 66//66
f 66//66 73//73 74//74 67//67
f 67//67 74//74 75//75 68//68
f 68//68 75//75 76//76 69//69
f 69//69 76//76 77//77 70//70
f 70//70 77//77 71//71 64//64
f 71//71 78//78 79//79 72//72
f 72//72 79//79 80//80 73//73
f 73//73 80//80 81//81 74//74
f 74//74 81//81 82//82 75//75
f 75//75 82//82 83//83 76//76
f 76//76 83//83 84//84 77//77
f 77//77 84//84 78//78 71//71
f 78//78 85//85 86//86 79//79
f 79//79 86//86 87//87 80//80
f 80//80 87//87 88//88 81//81
f 81//81 88//88 89//89 82//82
f 82//82 89//89 90//90 83//83
f 83//83 90//90 91//91 84//84
f 84//84 91//91 85//85 78//78
f 85//85 92//92 93//93 86//86
f 86//86 93//93 94//94 87//87
f 87//87 94//94 95//95 88//88
f 88//88 95//95 96//96 89//89
f 89//89 96//96 97//97 90//90
f 90//90 97//97 98//98 91//91
f 91//91 98//98 92//92 85//85
f 92//92 99//99 100//100 93//93
f 93//93 100//100 101//101 94//94
f 94//94 101//101 102//102 95//95
f 95//95 102//102 103//103 96//96
f 96//96 103//103 104//104 97//97
f 97//97 104//104 105//105 98//98
f 98//98 105//105 99//99 92//92
f 99//99 106//106 107//107 100//100
f 100//100 107//107 108//108 101//101
f 101//101 108//108 109//109 102//102
f 102//102 109//109 110//110 103//103
f 103//103 110//110 111//111 104//104
f 104//104 111//111 112//112 105//105
f 105//105 112//112 106//106 99//99
f 106//106 1//1 4//4 107//107
f 107//107 4//4 6//6 108//108
f 108//108 6//6 8//8 109//109
f 109//109 8//8 10//10 110//110
f 110//110 10//10 12//12 111//111
f 111//111 12//12 14//14 112//112
f 112//112 14//14 1//1 106//106
