# Blender v2.79 (sub 0) OBJ File: ''
# www.blender.org
mtllib waypoint_cone.mtl
o Torus
v 0.000000 3.216532 0.337451
v 0.000000 0.026610 0.000000
v 0.129137 3.216532 0.311764
v 0.238614 3.216532 0.238614
v 0.311764 3.216532 0.129137
v 0.337451 3.216532 0.000000
v 0.311764 3.216532 -0.129137
v 0.238614 3.216532 -0.238614
v 0.129137 3.216532 -0.311764
v 0.000000 3.216532 -0.337451
v -0.129137 3.216532 -0.311764
v -0.238614 3.216532 -0.238614
v -0.311764 3.216532 -0.129137
v -0.337451 3.216532 0.000000
v -0.311764 3.216532 0.129137
v -0.238614 3.216532 0.238614
v -0.129137 3.216532 0.311764
v 0.000000 3.216532 0.337451
v 0.129137 3.216532 0.311764
v 0.238614 3.216532 0.238614
v 0.311764 3.216532 0.129137
v 0.337451 3.216532 0.000000
v 0.311764 3.216532 -0.129137
v 0.238614 3.216532 -0.238614
v 0.129137 3.216532 -0.311764
v 0.000000 3.216532 -0.337451
v -0.129137 3.216532 -0.311764
v -0.238614 3.216532 -0.238614
v -0.311764 3.216532 -0.129137
v -0.337451 3.216532 0.000000
v -0.311764 3.216532 0.129137
v -0.238614 3.216532 0.238614
v -0.129137 3.216532 0.311764
vn 0.0000 -0.1052 0.9945
vn 0.0000 -1.0000 -0.0000
vn 0.3806 -0.1052 0.9188
vn 0.7032 -0.1052 0.7032
vn 0.9188 -0.1052 0.3806
vn 0.9945 -0.1052 -0.0000
vn 0.9188 -0.1052 -0.3806
vn 0.7032 -0.1052 -0.7032
vn 0.3806 -0.1052 -0.9188
vn 0.0000 -0.1052 -0.9945
vn -0.3806 -0.1052 -0.9188
vn -0.7032 -0.1052 -0.7032
vn -0.9188 -0.1052 -0.3806
vn -0.9945 -0.1052 0.0000
vn -0.9188 -0.1052 0.3806
vn -0.7032 -0.1052 0.7032
vn -0.3806 -0.1052 0.9188
vn 0.0000 1.0000 0.0000
usemtl None
s 1
f 1//1 2//2 3//3
f 3//3 2//2 4//4
f 4//4 2//2 5//5
f 5//5 2//2 6//6
f 6//6 2//2 7//7
f 7//7 2//2 8//8
f 8//8 2//2 9//9
f 9//9 2//2 10//10
f 10//10 2//2 11//11
f 11//11 2//2 12//12
f 12//12 2//2 13//13
f 13//13 2//2 14//14
f 14//14 2//2 15//15
f 15//15 2//2 16//16
f 16//16 2//2 17//17
f 17//17 2//2 1//1
f 18//18 19//18 20//18 21//18 22//18 23//18 24//18 25//18 26//18 27//18 28//18 29//18 30//18 31//18 32//18 33//18
