# Blender v2.79 (sub 0) OBJ File: 'tractoredit.blend'
# www.blender.org
mtllib dirtrow.mtl
o dirtrow_Icosphere
v 0.077811 -0.015164 0.008437
v 0.053929 -0.002747 0.155912
v -0.005849 -0.011414 0.219025
v -0.038888 0.001441 0.008437
v -0.009582 -0.011759 -0.198382
v 0.050379 -0.003488 -0.139037
v 0.035949 0.004571 0.221057
v -0.032648 0.025128 0.155912
v -0.036387 0.024621 -0.139037
v 0.026831 0.017238 -0.202436
v 0.053544 0.028310 0.008437
v 0.008355 0.027394 0.008437
v -0.035517 -0.013958 0.148694
v 0.089934 -0.010678 0.095120
v 0.058877 -0.013805 0.217603
v 0.050420 -0.000917 0.008437
v 0.108087 -0.010678 -0.078246
v -0.080489 -0.010678 0.008437
v -0.114565 -0.003902 0.148694
v -0.039539 -0.014569 -0.131820
v -0.092458 -0.004478 -0.131820
v 0.026340 -0.013851 -0.196109
v 0.071810 0.014876 0.095120
v 0.071655 0.014876 -0.078246
v 0.013587 0.000181 0.233482
v 0.058111 0.003530 0.223090
v -0.038148 0.014876 0.095120
v -0.029166 0.003646 0.220336
v -0.028941 0.003387 -0.201640
v -0.048440 0.014876 -0.078246
v 0.046897 0.004032 -0.202753
v 0.007437 -0.005504 -0.211668
v 0.053444 0.028492 0.148694
v -0.008805 0.020001 0.217315
v -0.037341 0.030669 0.008437
v 0.002360 -0.000270 -0.195485
v 0.049036 0.027915 -0.131820
v 0.024030 0.013700 0.170085
v 0.039078 0.040430 0.008437
v -0.019891 0.040430 0.095120
v -0.023783 0.040430 -0.078246
v 0.031822 0.012751 -0.139111
v 0.019118 0.005722 0.219074
vn 0.0927 -0.9956 0.0096
vn 0.9848 -0.0833 0.1520
vn -0.0660 -0.9973 0.0335
vn 0.9779 0.1879 0.0916
vn 0.9760 0.2171 0.0124
vn -0.9846 -0.1584 -0.0743
vn -0.0980 -0.9940 -0.0473
vn 0.9724 -0.0447 -0.2290
vn 0.9991 0.0412 -0.0012
vn -0.1896 -0.8543 0.4839
vn 0.6592 -0.6385 0.3971
vn 0.0573 0.0602 0.9965
vn -0.8708 0.4911 0.0234
vn -0.9659 -0.0264 0.2575
vn -0.7381 0.6746 -0.0079
vn -0.2356 -0.8719 -0.4292
vn -0.9593 -0.0497 -0.2777
vn -0.4645 0.3001 -0.8332
vn 0.9378 0.1792 -0.2972
vn 0.2822 -0.8947 -0.3463
vn 0.7691 -0.0152 -0.6389
vn 0.6403 0.4079 0.6508
vn -0.6293 0.0932 0.7715
vn -0.6646 0.7462 0.0373
vn -0.1732 -0.1275 -0.9766
vn 0.9977 0.0602 -0.0325
vn -0.0025 0.9531 0.3025
vn 0.2776 0.9456 0.1697
vn 0.0335 0.9850 0.1690
vn -0.7678 0.6212 0.1570
vn -0.0788 0.8602 0.5037
vn -0.1068 0.9926 0.0579
vn -0.5561 0.7799 -0.2873
vn -0.7741 0.6323 0.0318
vn -0.1704 0.9823 -0.0778
vn -0.0837 0.8441 -0.5296
vn -0.1473 0.9563 -0.2525
vn -0.3232 0.9420 -0.0907
vn 0.6157 0.7879 -0.0069
vn 0.1549 0.9731 -0.1702
vn 0.1104 0.9937 -0.0161
vn 0.0465 0.9988 -0.0118
vn 0.2170 0.9283 0.3018
usemtl dirtrow
s 1
f 1//1 14//2 13//3
f 2//4 14//2 16//5
f 1//1 13//3 18//6
f 1//1 18//6 20//7
f 1//1 20//7 17//8
f 2//4 16//5 23//9
f 3//10 15//11 25//12
f 4//13 19//14 27//15
f 5//16 21//17 29//18
f 6//19 22//20 31//21
f 2//4 23//9 26//22
f 3//10 25//12 28//23
f 4//13 27//15 30//24
f 5//16 29//18 32//25
f 6//19 31//21 24//26
f 7//27 33//28 38//29
f 8//30 34//31 40//32
f 9//33 35//34 41//35
f 10//36 36//37 42//38
f 11//39 37//40 39//41
f 39//41 42//38 12//42
f 39//41 37//40 42//38
f 37//40 10//36 42//38
f 42//38 41//35 12//42
f 42//38 36//37 41//35
f 36//37 9//33 41//35
f 41//35 40//32 12//42
f 41//35 35//34 40//32
f 35//34 8//30 40//32
f 40//32 38//29 12//42
f 40//32 34//31 38//29
f 34//31 43//43 38//29
f 38//29 39//41 12//42
f 38//29 33//28 39//41
f 33//28 11//39 39//41
f 24//26 37//40 11//39
f 24//26 31//21 37//40
f 31//21 10//36 37//40
f 32//25 36//37 10//36
f 32//25 29//18 36//37
f 29//18 9//33 36//37
f 30//24 35//34 9//33
f 30//24 27//15 35//34
f 27//15 8//30 35//34
f 28//23 34//31 8//30
f 28//23 25//12 34//31
f 25//12 43//43 34//31
f 26//22 33//28 7//27
f 26//22 23//9 33//28
f 23//9 11//39 33//28
f 31//21 32//25 10//36
f 31//21 22//20 32//25
f 22//20 5//16 32//25
f 29//18 30//24 9//33
f 29//18 21//17 30//24
f 21//17 4//13 30//24
f 27//15 28//23 8//30
f 27//15 19//14 28//23
f 19//14 3//10 28//23
f 25//12 26//22 7//27
f 25//12 15//11 26//22
f 15//11 2//4 26//22
f 23//9 24//26 11//39
f 23//9 16//5 24//26
f 16//5 6//19 24//26
f 17//8 22//20 6//19
f 17//8 20//7 22//20
f 20//7 5//16 22//20
f 20//7 21//17 5//16
f 20//7 18//6 21//17
f 18//6 4//13 21//17
f 18//6 19//14 4//13
f 18//6 13//3 19//14
f 13//3 3//10 19//14
f 16//5 17//8 6//19
f 16//5 14//2 17//8
f 14//2 1//1 17//8
f 13//3 15//11 3//10
f 13//3 14//2 15//11
f 14//2 2//4 15//11
f 43//43 25//12 7//27
f 38//29 43//43 7//27
