# Blender v2.79 (sub 0) OBJ File: ''
# www.blender.org
mtllib basketRoverSuspension.mtl
o basketRoverSuspension_Cylinder
v 0.227159 -0.199250 0.545671
v 0.559010 -0.199250 0.545671
v 0.227159 -0.232329 0.552251
v 0.559010 -0.232329 0.552251
v 0.227159 -0.260373 0.570989
v 0.559010 -0.260373 0.570989
v 0.227159 -0.279111 0.599032
v 0.559010 -0.279111 0.599032
v 0.227159 -0.285691 0.632112
v 0.559010 -0.285691 0.632112
v 0.227159 -0.279111 0.665191
v 0.559010 -0.279111 0.665191
v 0.227159 -0.260373 0.693235
v 0.559010 -0.260373 0.693235
v 0.227159 -0.232329 0.711973
v 0.559010 -0.232329 0.711973
v 0.227159 -0.199250 0.718553
v 0.559010 -0.199250 0.718553
v 0.227159 -0.166170 0.711973
v 0.559010 -0.166170 0.711973
v 0.227159 -0.138126 0.693235
v 0.559010 -0.138126 0.693235
v 0.227159 -0.119388 0.665192
v 0.559010 -0.119388 0.665192
v 0.227159 -0.112808 0.632112
v 0.559010 -0.112808 0.632112
v 0.227159 -0.119388 0.599032
v 0.559010 -0.119388 0.599032
v 0.227159 -0.138126 0.570989
v 0.559010 -0.138126 0.570989
v 0.227159 -0.166170 0.552250
v 0.559010 -0.166170 0.552250
v -0.227159 -0.199250 0.545671
v -0.559010 -0.199250 0.545671
v -0.227159 -0.232329 0.552251
v -0.559010 -0.232329 0.552251
v -0.227159 -0.260373 0.570989
v -0.559010 -0.260373 0.570989
v -0.227159 -0.279111 0.599032
v -0.559010 -0.279111 0.599032
v -0.227159 -0.285691 0.632112
v -0.559010 -0.285691 0.632112
v -0.227159 -0.279111 0.665191
v -0.559010 -0.279111 0.665191
v -0.227159 -0.260373 0.693235
v -0.559010 -0.260373 0.693235
v -0.227159 -0.232329 0.711973
v -0.559010 -0.232329 0.711973
v -0.227159 -0.199250 0.718553
v -0.559010 -0.199250 0.718553
v -0.227159 -0.166170 0.711973
v -0.559010 -0.166170 0.711973
v -0.227159 -0.138126 0.693235
v -0.559010 -0.138126 0.693235
v -0.227159 -0.119388 0.665192
v -0.559010 -0.119388 0.665192
v -0.227159 -0.112808 0.632112
v -0.559010 -0.112808 0.632112
v -0.227159 -0.119388 0.599032
v -0.559010 -0.119388 0.599032
v -0.227159 -0.138126 0.570989
v -0.559010 -0.138126 0.570989
v -0.227159 -0.166170 0.552250
v -0.559010 -0.166170 0.552250
v 0.227159 -0.199250 0.545671
v 0.227159 -0.232329 0.552251
v 0.559010 -0.232329 0.552251
v 0.559010 -0.199250 0.545671
v 0.227159 -0.260373 0.570989
v 0.559010 -0.260373 0.570989
v 0.227159 -0.279111 0.599032
v 0.559010 -0.279111 0.599032
v 0.227159 -0.285691 0.632112
v 0.559010 -0.285691 0.632112
v 0.227159 -0.279111 0.665191
v 0.559010 -0.279111 0.665191
v 0.227159 -0.260373 0.693235
v 0.559010 -0.260373 0.693235
v 0.227159 -0.232329 0.711973
v 0.559010 -0.232329 0.711973
v 0.227159 -0.199250 0.718553
v 0.559010 -0.199250 0.718553
v 0.227159 -0.166170 0.711973
v 0.559010 -0.166170 0.711973
v 0.227159 -0.138126 0.693235
v 0.559010 -0.138126 0.693235
v 0.227159 -0.119388 0.665192
v 0.559010 -0.119388 0.665192
v 0.227159 -0.112808 0.632112
v 0.559010 -0.112808 0.632112
v 0.227159 -0.119388 0.599032
v 0.559010 -0.119388 0.599032
v 0.227159 -0.138126 0.570989
v 0.559010 -0.138126 0.570989
v 0.227159 -0.166170 0.552250
v 0.559010 -0.166170 0.552250
v -0.227159 -0.199250 0.545671
v -0.227159 -0.232329 0.552251
v -0.559010 -0.232329 0.552251
v -0.559010 -0.199250 0.545671
v -0.227159 -0.260373 0.570989
v -0.559010 -0.260373 0.570989
v -0.227159 -0.279111 0.599032
v -0.559010 -0.279111 0.599032
v -0.227159 -0.285691 0.632112
v -0.559010 -0.285691 0.632112
v -0.227159 -0.279111 0.665191
v -0.559010 -0.279111 0.665191
v -0.227159 -0.260373 0.693235
v -0.559010 -0.260373 0.693235
v -0.227159 -0.232329 0.711973
v -0.559010 -0.232329 0.711973
v -0.227159 -0.199250 0.718553
v -0.559010 -0.199250 0.718553
v -0.227159 -0.166170 0.711973
v -0.559010 -0.166170 0.711973
v -0.227159 -0.138126 0.693235
v -0.559010 -0.138126 0.693235
v -0.227159 -0.119388 0.665192
v -0.559010 -0.119388 0.665192
v -0.227159 -0.112808 0.632112
v -0.559010 -0.112808 0.632112
v -0.227159 -0.119388 0.599032
v -0.559010 -0.119388 0.599032
v -0.227159 -0.138126 0.570989
v -0.559010 -0.138126 0.570989
v -0.227159 -0.166170 0.552250
v -0.559010 -0.166170 0.552250
v -0.438319 -0.084678 0.806998
v -0.438319 -0.008094 0.806998
v -0.438319 -0.084678 0.730414
v -0.438319 -0.008094 0.730414
v 0.438319 -0.084678 0.806998
v 0.438319 -0.008094 0.806998
v 0.438319 -0.084678 0.730414
v 0.438319 -0.008094 0.730414
v -0.438319 -0.084678 -0.806998
v -0.438319 -0.008094 -0.806998
v -0.438319 -0.084678 -0.730414
v -0.438319 -0.008094 -0.730414
v 0.438319 -0.084678 -0.806998
v 0.438319 -0.008094 -0.806998
v 0.438319 -0.084678 -0.730414
v 0.438319 -0.008094 -0.730414
v 0.424048 -0.088828 0.816061
v 0.424048 0.001239 0.816061
v 0.424048 -0.088828 -0.816061
v 0.424048 0.001239 -0.816061
v 0.514115 -0.088828 0.816061
v 0.514115 0.001239 0.816061
v 0.514115 -0.088828 -0.816061
v 0.514115 0.001239 -0.816061
v 0.424048 -0.088828 0.701188
v 0.424048 0.001239 0.701188
v 0.514115 -0.088828 0.701188
v 0.514115 0.001239 0.701188
v 0.424048 -0.435333 0.701188
v 0.424048 -0.435333 0.816061
v 0.514115 -0.435333 0.816061
v 0.514115 -0.435333 0.701188
v 0.424048 0.001239 -0.717299
v 0.514115 -0.088828 -0.717299
v 0.424048 -0.088828 -0.717299
v 0.514115 0.001239 -0.717299
v 0.514115 -0.435333 -0.816061
v 0.424048 -0.435333 -0.816061
v 0.514115 -0.435333 -0.717299
v 0.424048 -0.435333 -0.717299
v 0.444935 -0.419542 -0.747200
v 0.444935 -0.080212 -0.407870
v 0.444935 -0.377712 -0.789030
v 0.444935 -0.038382 -0.449700
v 0.504091 -0.419542 -0.747200
v 0.504091 -0.080212 -0.407870
v 0.504091 -0.377712 -0.789030
v 0.504091 -0.038382 -0.449700
v 0.342616 -0.332917 0.734307
v 0.342616 -0.103249 0.734307
v 0.342616 -0.332917 0.536807
v 0.342616 -0.103249 0.536807
v 0.489374 -0.332917 0.734307
v 0.489374 -0.103249 0.734307
v 0.489374 -0.332917 0.536807
v 0.489374 -0.103249 0.536807
v -0.424048 -0.088828 0.816061
v -0.424048 0.001239 0.816061
v -0.424048 -0.088828 -0.816061
v -0.424048 0.001239 -0.816061
v -0.514115 -0.088828 0.816061
v -0.514115 0.001239 0.816061
v -0.514115 -0.088828 -0.816061
v -0.514115 0.001239 -0.816061
v -0.424048 -0.088828 0.701188
v -0.424048 0.001239 0.701188
v -0.514115 -0.088828 0.701188
v -0.514115 0.001239 0.701188
v -0.424048 -0.435333 0.701188
v -0.424048 -0.435333 0.816061
v -0.514115 -0.435333 0.816061
v -0.514115 -0.435333 0.701188
v -0.424048 0.001239 -0.717299
v -0.514115 -0.088828 -0.717299
v -0.424048 -0.088828 -0.717299
v -0.514115 0.001239 -0.717299
v -0.514115 -0.435333 -0.816061
v -0.424048 -0.435333 -0.816061
v -0.514115 -0.435333 -0.717299
v -0.424048 -0.435333 -0.717299
v -0.444935 -0.419542 -0.747200
v -0.444935 -0.080212 -0.407870
v -0.444935 -0.377712 -0.789030
v -0.444935 -0.038382 -0.449700
v -0.504091 -0.419542 -0.747200
v -0.504091 -0.080212 -0.407870
v -0.504091 -0.377712 -0.789030
v -0.504091 -0.038382 -0.449700
v -0.342616 -0.332917 0.734307
v -0.342616 -0.103249 0.734307
v -0.342616 -0.332917 0.536807
v -0.342616 -0.103249 0.536807
v -0.489374 -0.332917 0.734307
v -0.489374 -0.103249 0.734307
v -0.489374 -0.332917 0.536807
v -0.489374 -0.103249 0.536807
vn -1.0000 0.0000 0.0000
vn 0.0000 0.0000 -1.0000
vn 1.0000 0.0000 0.0000
vn 0.0000 0.0000 1.0000
vn 0.0000 -1.0000 0.0000
vn 0.0000 1.0000 0.0000
vn 0.0000 0.7071 -0.7071
vn 0.0000 -0.7071 0.7071
vn 0.0000 -0.7071 -0.7071
vn 0.0000 0.7071 0.7071
vn 0.0000 -0.3827 -0.9239
vn 0.0000 -0.9239 -0.3827
vn 0.0000 -0.9239 0.3827
vn 0.0000 -0.3827 0.9239
vn 0.0000 0.3827 0.9239
vn 0.0000 0.9239 0.3827
vn 0.0000 0.9239 -0.3827
vn 0.0000 0.3827 -0.9239
usemtl None
s off
f 129//1 130//1 132//1 131//1
f 131//2 132//2 136//2 135//2
f 135//3 136//3 134//3 133//3
f 133//4 134//4 130//4 129//4
f 131//5 135//5 133//5 129//5
f 136//6 132//6 130//6 134//6
f 137//1 139//1 140//1 138//1
f 139//4 143//4 144//4 140//4
f 143//3 141//3 142//3 144//3
f 141//2 137//2 138//2 142//2
f 139//5 137//5 141//5 143//5
f 144//6 142//6 138//6 140//6
f 163//1 161//1 148//1 147//1
f 147//2 148//2 152//2 151//2
f 155//3 156//3 150//3 149//3
f 149//4 150//4 146//4 145//4
f 145//1 153//1 157//1 158//1
f 156//6 154//6 146//6 150//6
f 164//6 161//6 154//6 156//6
f 163//5 162//5 155//5 153//5
f 162//3 164//3 156//3 155//3
f 145//1 146//1 154//1 153//1
f 157//5 160//5 159//5 158//5
f 155//3 149//3 159//3 160//3
f 149//4 145//4 158//4 159//4
f 153//2 155//2 160//2 157//2
f 151//3 152//3 164//3 162//3
f 163//1 147//1 166//1 168//1
f 152//6 148//6 161//6 164//6
f 153//1 154//1 161//1 163//1
f 166//5 165//5 167//5 168//5
f 147//2 151//2 165//2 166//2
f 162//4 163//4 168//4 167//4
f 151//3 162//3 167//3 165//3
f 169//1 170//1 172//1 171//1
f 171//7 172//7 176//7 175//7
f 175//3 176//3 174//3 173//3
f 173//8 174//8 170//8 169//8
f 171//9 175//9 173//9 169//9
f 176//10 172//10 170//10 174//10
f 177//1 178//1 180//1 179//1
f 179//2 180//2 184//2 183//2
f 183//3 184//3 182//3 181//3
f 181//4 182//4 178//4 177//4
f 179//5 183//5 181//5 177//5
f 184//6 180//6 178//6 182//6
f 203//3 187//3 188//3 201//3
f 187//2 191//2 192//2 188//2
f 195//1 189//1 190//1 196//1
f 189//4 185//4 186//4 190//4
f 185//3 198//3 197//3 193//3
f 196//6 190//6 186//6 194//6
f 204//6 196//6 194//6 201//6
f 203//5 193//5 195//5 202//5
f 202//1 195//1 196//1 204//1
f 185//3 193//3 194//3 186//3
f 197//5 198//5 199//5 200//5
f 195//1 200//1 199//1 189//1
f 189//4 199//4 198//4 185//4
f 193//2 197//2 200//2 195//2
f 191//1 202//1 204//1 192//1
f 203//3 208//3 206//3 187//3
f 192//6 204//6 201//6 188//6
f 193//3 203//3 201//3 194//3
f 206//5 208//5 207//5 205//5
f 187//2 206//2 205//2 191//2
f 202//4 207//4 208//4 203//4
f 191//1 205//1 207//1 202//1
f 209//3 211//3 212//3 210//3
f 211//7 215//7 216//7 212//7
f 215//1 213//1 214//1 216//1
f 213//8 209//8 210//8 214//8
f 211//9 209//9 213//9 215//9
f 216//10 214//10 210//10 212//10
f 217//3 219//3 220//3 218//3
f 219//2 223//2 224//2 220//2
f 223//1 221//1 222//1 224//1
f 221//4 217//4 218//4 222//4
f 219//5 217//5 221//5 223//5
f 224//6 222//6 218//6 220//6
s 1
f 65//2 68//2 67//11 66//11
f 66//11 67//11 70//9 69//9
f 69//9 70//9 72//12 71//12
f 71//12 72//12 74//5 73//5
f 73//5 74//5 76//13 75//13
f 75//13 76//13 78//8 77//8
f 77//8 78//8 80//14 79//14
f 79//14 80//14 82//4 81//4
f 81//4 82//4 84//15 83//15
f 83//15 84//15 86//10 85//10
f 85//10 86//10 88//16 87//16
f 87//16 88//16 90//6 89//6
f 89//6 90//6 92//17 91//17
f 91//17 92//17 94//7 93//7
f 4//3 2//3 96//3 30//3 28//3 26//3 24//3 22//3 20//3 18//3 16//3 14//3 12//3 10//3 8//3 6//3
f 93//7 94//7 32//18 95//18
f 95//18 32//18 68//2 65//2
f 1//1 3//1 5//1 7//1 9//1 11//1 13//1 15//1 17//1 19//1 21//1 23//1 25//1 27//1 29//1 31//1
f 97//2 98//11 99//11 100//2
f 98//11 101//9 102//9 99//11
f 101//9 103//12 104//12 102//9
f 103//12 105//5 106//5 104//12
f 105//5 107//13 108//13 106//5
f 107//13 109//8 110//8 108//13
f 109//8 111//14 112//14 110//8
f 111//14 113//4 114//4 112//14
f 113//4 115//15 116//15 114//4
f 115//15 117//10 118//10 116//15
f 117//10 119//16 120//16 118//10
f 119//16 121//6 122//6 120//16
f 121//6 123//17 124//17 122//6
f 123//17 125//7 126//7 124//17
f 36//1 38//1 40//1 42//1 44//1 46//1 48//1 50//1 52//1 54//1 56//1 58//1 60//1 62//1 128//1 34//1
f 125//7 127//18 64//18 126//7
f 127//18 97//2 100//2 64//18
f 33//3 63//3 61//3 59//3 57//3 55//3 53//3 51//3 49//3 47//3 45//3 43//3 41//3 39//3 37//3 35//3
