# Blender v2.79 (sub 0) OBJ File: 'humanoid_animation_tractor_turn_right_reverse.blend'
# www.blender.org
mtllib shift_box.mtl
o shift_box_Plane
v -0.398560 1.381923 -0.593992
v -0.249946 1.381923 -0.593992
v -0.398560 1.381923 -0.707078
v -0.249946 1.381923 -0.707078
v -0.327136 1.381923 -0.593992
v -0.321370 1.381923 -0.593992
v -0.321370 1.381923 -0.707078
v -0.327136 1.381923 -0.707078
v -0.398560 1.381923 -0.699344
v -0.398560 1.381923 -0.601727
v -0.249946 1.381923 -0.601727
v -0.249946 1.381923 -0.699344
v -0.327136 1.381923 -0.601727
v -0.327136 1.381923 -0.699344
v -0.321370 1.381923 -0.601727
v -0.321370 1.381923 -0.699344
v -0.398560 1.381923 -0.632579
v -0.249946 1.381923 -0.632579
v -0.327136 1.381923 -0.632579
v -0.321370 1.381923 -0.632579
v -0.257346 1.381923 -0.593992
v -0.257346 1.381923 -0.707078
v -0.257346 1.381923 -0.601727
v -0.257346 1.381923 -0.699344
v -0.257346 1.381923 -0.632579
v -0.391226 1.381923 -0.707078
v -0.391226 1.381923 -0.593992
v -0.391226 1.381923 -0.601727
v -0.391226 1.381923 -0.699344
v -0.391226 1.381923 -0.632579
v -0.249946 1.381923 -0.659865
v -0.327136 1.381923 -0.659865
v -0.321370 1.381923 -0.659865
v -0.398560 1.381923 -0.659865
v -0.257346 1.381923 -0.659865
v -0.391226 1.381923 -0.659865
v -0.398560 1.392202 -0.593992
v -0.249946 1.392202 -0.593992
v -0.398560 1.392202 -0.707078
v -0.249946 1.392202 -0.707078
v -0.327136 1.392202 -0.593992
v -0.321370 1.392202 -0.593992
v -0.321370 1.392202 -0.707078
v -0.327136 1.392202 -0.707078
v -0.398560 1.392202 -0.699344
v -0.398560 1.392202 -0.601727
v -0.249946 1.392202 -0.601727
v -0.249946 1.392202 -0.699344
v -0.327136 1.392202 -0.601727
v -0.327136 1.392202 -0.699344
v -0.321370 1.392202 -0.601727
v -0.321370 1.392202 -0.699344
v -0.398560 1.392202 -0.632579
v -0.249946 1.392202 -0.632579
v -0.327136 1.392202 -0.632579
v -0.321370 1.392202 -0.632579
v -0.257346 1.392202 -0.593992
v -0.257346 1.392202 -0.707078
v -0.257346 1.392202 -0.601727
v -0.257346 1.392202 -0.699344
v -0.257346 1.392202 -0.632579
v -0.391226 1.392202 -0.707078
v -0.391226 1.392202 -0.593992
v -0.391226 1.392202 -0.601727
v -0.391226 1.392202 -0.699344
v -0.391226 1.392202 -0.632579
v -0.249946 1.392202 -0.659865
v -0.327136 1.392202 -0.659865
v -0.321370 1.392202 -0.659865
v -0.398560 1.392202 -0.659865
v -0.257346 1.392202 -0.659865
v -0.391226 1.392202 -0.659865
v -0.398560 1.166010 -0.601727
v -0.398560 1.166010 -0.593992
v -0.257346 1.166010 -0.593992
v -0.249946 1.166010 -0.593992
v -0.249946 1.166010 -0.812254
v -0.249946 1.166010 -0.819989
v -0.391226 1.166010 -0.819989
v -0.398560 1.166010 -0.819989
v -0.391226 1.166010 -0.593992
v -0.327136 1.166010 -0.593992
v -0.321370 1.166010 -0.593992
v -0.257346 1.166010 -0.819989
v -0.321370 1.166010 -0.819989
v -0.327136 1.166010 -0.819989
v -0.327136 1.166010 -0.812254
v -0.321370 1.166010 -0.812254
v -0.398560 1.166010 -0.812254
v -0.398560 1.166010 -0.632579
v -0.249946 1.166010 -0.601727
v -0.249946 1.166010 -0.659865
v -0.327136 1.166010 -0.601727
v -0.321370 1.166010 -0.601727
v -0.391226 1.166010 -0.601727
v -0.391226 1.166010 -0.812254
v -0.257346 1.166010 -0.601727
v -0.257346 1.166010 -0.812254
v -0.398560 1.166010 -0.659865
v -0.249946 1.166010 -0.632579
v -0.391226 1.166010 -0.632579
v -0.257346 1.166010 -0.632579
v -0.257346 1.166010 -0.659865
v -0.391226 1.166010 -0.659865
v -0.398560 0.971471 -0.601727
v -0.398560 0.971471 -0.593992
v -0.257346 0.971471 -0.593992
v -0.249946 0.971471 -0.593992
v -0.249946 0.971471 -0.812254
v -0.249946 0.971471 -0.819989
v -0.391226 0.971471 -0.819989
v -0.398560 0.971471 -0.819989
v -0.391226 0.971471 -0.593992
v -0.327136 0.971471 -0.593992
v -0.321370 0.971471 -0.593992
v -0.257346 0.971471 -0.819989
v -0.321370 0.971471 -0.819989
v -0.327136 0.971471 -0.819989
v -0.327136 0.971471 -0.812254
v -0.321370 0.971471 -0.812254
v -0.398560 0.971471 -0.812254
v -0.398560 0.971471 -0.632579
v -0.249946 0.971471 -0.601727
v -0.249946 0.971471 -0.659865
v -0.327136 0.971471 -0.601727
v -0.321370 0.971471 -0.601727
v -0.391226 0.971471 -0.601727
v -0.391226 0.971471 -0.812254
v -0.257346 0.971471 -0.601727
v -0.257346 0.971471 -0.812254
v -0.398560 0.971471 -0.659865
v -0.249946 0.971471 -0.632579
v -0.391226 0.971471 -0.632579
v -0.257346 0.971471 -0.632579
v -0.257346 0.971471 -0.659865
v -0.391226 0.971471 -0.659865
vn 0.0000 0.4634 -0.8861
vn 0.0000 0.0000 1.0000
vn 1.0000 0.0000 0.0000
vn 0.0000 -1.0000 0.0000
vn 0.0000 -0.4634 0.8861
vn 0.0000 0.0000 -1.0000
vn -1.0000 0.0000 0.0000
vn 0.0000 1.0000 0.0000
usemtl None
s off
f 22//1 4//1 78//1 84//1
f 5//2 27//2 81//2 82//2
f 29//3 36//3 104//3 96//3
f 21//2 6//2 83//2 75//2
f 32//4 14//4 16//4 33//4
f 3//1 26//1 79//1 80//1
f 36//4 29//4 14//4 32//4
f 30//3 28//3 95//3 101//3
f 4//3 12//3 77//3 78//3
f 14//5 29//5 96//5 87//5
f 13//4 19//4 20//4 15//4
f 2//2 21//2 75//2 76//2
f 28//6 13//6 93//6 95//6
f 1//7 10//7 73//7 74//7
f 27//2 1//2 74//2 81//2
f 12//3 31//3 92//3 77//3
f 26//1 8//1 86//1 79//1
f 11//3 2//3 76//3 91//3
f 18//3 11//3 91//3 100//3
f 60//8 48//8 40//8 58//8
f 65//8 50//8 44//8 62//8
f 50//8 52//8 43//8 44//8
f 41//8 42//8 51//8 49//8
f 68//8 69//8 52//8 50//8
f 63//8 41//8 49//8 64//8
f 72//8 68//8 50//8 65//8
f 57//8 38//8 47//8 59//8
f 71//8 67//8 48//8 60//8
f 59//8 47//8 54//8 61//8
f 49//8 51//8 56//8 55//8
f 42//8 57//8 59//8 51//8
f 52//8 60//8 58//8 43//8
f 46//8 64//8 66//8 53//8
f 70//8 72//8 65//8 45//8
f 37//8 63//8 64//8 46//8
f 45//8 65//8 62//8 39//8
f 53//8 66//8 72//8 70//8
f 61//8 54//8 67//8 71//8
f 11//3 18//3 54//3 47//3
f 2//3 11//3 47//3 38//3
f 8//6 26//6 62//6 44//6
f 19//7 13//7 49//7 55//7
f 36//2 32//2 68//2 72//2
f 31//3 12//3 48//3 67//3
f 1//2 27//2 63//2 37//2
f 10//7 1//7 37//7 46//7
f 15//3 20//3 56//3 51//3
f 32//2 33//2 69//2 68//2
f 13//6 28//6 64//6 49//6
f 21//2 2//2 38//2 57//2
f 12//3 4//3 40//3 48//3
f 20//6 19//6 55//6 56//6
f 28//3 30//3 66//3 64//3
f 26//6 3//6 39//6 62//6
f 6//2 21//2 57//2 42//2
f 33//3 16//3 52//3 69//3
f 27//2 5//2 41//2 63//2
f 4//6 22//6 58//6 40//6
f 5//2 6//2 42//2 41//2
f 22//6 7//6 43//6 58//6
f 18//3 31//3 67//3 54//3
f 7//6 8//6 44//6 43//6
f 9//7 34//7 70//7 45//7
f 25//7 23//7 59//7 61//7
f 23//6 15//6 51//6 59//6
f 35//7 25//7 61//7 71//7
f 24//7 35//7 71//7 60//7
f 16//2 24//2 60//2 52//2
f 30//3 36//3 72//3 66//3
f 3//7 9//7 45//7 39//7
f 34//7 17//7 53//7 70//7
f 17//7 10//7 46//7 53//7
f 79//6 86//6 118//6 111//6
f 86//6 85//6 117//6 118//6
f 94//6 97//6 129//6 126//6
f 85//6 84//6 116//6 117//6
f 83//2 82//2 114//2 115//2
f 104//3 101//3 133//3 136//3
f 103//7 98//7 130//7 135//7
f 82//2 81//2 113//2 114//2
f 102//7 103//7 135//7 134//7
f 88//2 87//2 119//2 120//2
f 97//7 102//7 134//7 129//7
f 80//6 79//6 111//6 112//6
f 99//7 89//7 121//7 131//7
f 93//6 94//6 126//6 125//6
f 78//3 77//3 109//3 110//3
f 92//3 100//3 132//3 124//3
f 13//6 15//6 94//6 93//6
f 6//2 5//2 82//2 83//2
f 16//5 14//5 87//5 88//5
f 7//1 22//1 84//1 85//1
f 31//3 18//3 100//3 92//3
f 8//1 7//1 85//1 86//1
f 34//7 9//7 89//7 99//7
f 23//7 25//7 102//7 97//7
f 15//6 23//6 97//6 94//6
f 25//7 35//7 103//7 102//7
f 35//7 24//7 98//7 103//7
f 24//5 16//5 88//5 98//5
f 36//3 30//3 101//3 104//3
f 9//7 3//7 80//7 89//7
f 17//7 34//7 99//7 90//7
f 10//7 17//7 90//7 73//7
f 130//4 116//4 110//4 109//4
f 128//4 111//4 118//4 119//4
f 119//4 118//4 117//4 120//4
f 114//4 125//4 126//4 115//4
f 113//4 127//4 125//4 114//4
f 107//4 129//4 123//4 108//4
f 135//4 130//4 109//4 124//4
f 129//4 134//4 132//4 123//4
f 115//4 126//4 129//4 107//4
f 120//4 117//4 116//4 130//4
f 105//4 122//4 133//4 127//4
f 131//4 121//4 128//4 136//4
f 106//4 105//4 127//4 113//4
f 121//4 112//4 111//4 128//4
f 122//4 131//4 136//4 133//4
f 134//4 135//4 124//4 132//4
f 98//2 88//2 120//2 130//2
f 81//2 74//2 106//2 113//2
f 90//7 99//7 131//7 122//7
f 95//6 93//6 125//6 127//6
f 100//3 91//3 123//3 132//3
f 89//7 80//7 112//7 121//7
f 87//2 96//2 128//2 119//2
f 73//7 90//7 122//7 105//7
f 101//3 95//3 127//3 133//3
f 75//2 83//2 115//2 107//2
f 91//3 76//3 108//3 123//3
f 96//3 104//3 136//3 128//3
f 84//6 78//6 110//6 116//6
f 77//3 92//3 124//3 109//3
f 74//7 73//7 105//7 106//7
f 76//2 75//2 107//2 108//2
