# Blender v2.79 (sub 0) OBJ File: ''
# www.blender.org
mtllib dirt_patch.mtl
o grass_patch_Plane
v 1.448568 0.388064 -1.448568
v 1.453125 0.431044 -0.750000
v 2.044271 0.389254 -1.434896
v 1.434896 0.384660 -2.044271
v 0.750000 0.359187 -1.453125
v 0.750000 0.368337 -0.750000
v 2.062500 0.486143 -0.750000
v 1.989583 0.360684 -1.989583
v 0.750000 0.347296 -2.062500
v -3.049410 0.197401 1.519243
v -3.147820 -0.120854 1.548927
v -2.791090 0.168425 2.059216
v -2.785885 0.267626 1.442690
v -3.063194 0.189075 0.777954
v -3.201475 -0.120432 0.800369
v -3.045212 -0.115720 2.233155
v -2.745025 0.276423 2.064172
v -2.831388 0.270533 0.755037
v -1.501990 0.187403 -3.014782
v -1.476325 -0.134711 -3.000273
v -2.119236 0.184192 -2.872442
v -1.463379 0.264525 -2.825835
v -0.757661 0.173322 -2.983292
v -0.822086 -0.112444 -3.288345
v -2.249410 -0.114126 -3.067377
v -2.056504 0.267288 -2.734828
v -0.776421 0.277228 -2.911580
v 1.463101 0.171727 2.936723
v 1.471339 -0.075970 2.990140
v 2.158368 0.214590 2.925483
v 1.447874 0.248377 2.795895
v 0.781104 0.244315 3.075597
v 0.805621 -0.062154 3.222483
v 2.230175 -0.074670 3.041147
v 2.019325 0.309803 2.685385
v 0.756180 0.313722 2.835675
v 3.061966 0.196828 -1.525498
v 3.218695 -0.114318 -1.583802
v 2.800088 0.169103 -2.065854
v 2.819010 0.268267 -1.459845
v 3.003055 0.191334 -0.762681
v 3.060361 -0.133409 -0.765090
v 3.071610 -0.113711 -2.252514
v 2.692248 0.256668 -2.024485
v 2.841879 0.291494 -0.757834
v -1.513896 0.204041 3.038679
v -1.563716 -0.118085 3.177875
v -0.767979 0.181332 3.023919
v -1.439512 0.276500 2.779748
v -2.108924 0.204942 2.858465
v -2.137606 -0.128892 2.914918
v -0.794673 -0.122527 3.178691
v -0.770461 0.273836 2.889229
v -2.016737 0.264957 2.681943
v 1.478655 0.178046 -2.967944
v 1.605191 -0.110259 -3.262163
v 0.776235 0.187741 -3.056426
v 1.461159 0.263495 -2.821548
v 2.067853 0.169668 -2.802798
v 2.136464 -0.129225 -2.913360
v 0.763267 -0.134079 -3.053068
v 0.756719 0.259667 -2.837698
v 2.020951 0.255495 -2.687547
v -1.448568 0.309854 -1.448568
v -1.453125 0.431044 -0.750000
v -0.750000 0.398401 -1.453125
v -1.434896 0.353041 -2.044271
v -2.044271 0.381681 -1.434896
v -2.062500 0.345346 -0.750000
v -0.750000 0.383341 -0.750000
v -0.750000 0.329897 -2.062500
v -1.989583 0.354431 -1.989583
v -1.448568 0.436332 1.448568
v -1.434896 0.343692 2.044271
v -0.750000 0.363856 1.453125
v -1.453125 0.440770 0.750000
v -2.044271 0.449799 1.434896
v -1.989583 0.330779 1.989583
v -0.750000 0.359009 2.062500
v -0.750000 0.431248 0.750000
v -2.062500 0.331518 0.750000
v 3.032488 0.191626 1.510812
v 3.128145 -0.122772 1.539246
v 2.991589 0.174958 0.759769
v 2.871884 0.294902 1.487226
v 2.796884 0.174311 2.063490
v 3.084405 -0.107422 2.261897
v 3.192539 -0.121254 0.798135
v 2.910214 0.276903 0.776057
v 2.703372 0.272940 2.032851
v -2.959113 0.176282 -1.474256
v -3.236046 -0.112698 -1.592340
v -3.057399 0.203751 -0.776482
v -2.828483 0.284331 -1.464750
v -2.834197 0.176216 -2.091019
v -3.093213 -0.111594 -2.268356
v -3.177082 -0.122675 -0.794271
v -2.848136 0.279625 -0.759503
v -2.685038 0.254869 -2.019064
v 1.448568 0.472894 1.448568
v 1.434896 0.433149 2.044271
v 2.044271 0.379678 1.434896
v 1.453125 0.372879 0.750000
v 0.750000 0.354011 1.453125
v 0.750000 0.379426 2.062500
v 1.989583 0.295479 1.989583
v 2.062500 0.342267 0.750000
v 0.750000 0.418471 0.750000
v -3.434403 -0.416072 0.858601
v -3.380741 -0.416161 1.663539
v -3.219753 -0.416161 2.361152
v 0.858601 -0.407989 3.434403
v 1.663539 -0.405169 3.380741
v 2.361152 -0.408154 3.219753
v 3.434403 -0.416072 -0.858601
v 3.380741 -0.416161 -1.663539
v 3.219753 -0.416161 -2.361152
v -0.858601 -0.416072 -3.434403
v -1.663539 -0.416161 -3.380741
v -2.361152 -0.416161 -3.219753
v -2.558624 0.319514 0.758111
v -2.506207 0.394372 1.430439
v -2.412384 0.362832 1.964483
v 0.753092 0.341956 2.541686
v 1.426005 0.461309 2.498438
v 1.972862 0.318653 2.422675
v 2.552605 0.332195 -0.756327
v 2.528786 0.345547 -1.443326
v 2.436868 0.316315 -1.984420
v -0.750301 0.308868 -2.532267
v -1.444481 0.315796 -2.530811
v -1.986710 0.308062 -2.439679
v -2.604896 -0.131091 2.604896
v -2.588578 0.184541 2.588578
v -2.448776 0.295447 2.448776
v -2.451103 0.255176 -2.451103
v -2.635719 0.193009 -2.635719
v -2.718711 -0.118693 -2.718711
v 2.469183 0.260118 -2.469183
v 2.629520 0.191579 -2.629520
v 2.666041 -0.124431 -2.666041
v 2.609375 -0.108954 2.609375
v 2.624453 0.227651 2.624453
v 2.438583 0.298472 2.438583
v -2.361152 -0.416161 3.219753
v -1.663539 -0.416161 3.380741
v -0.858601 -0.416072 3.434403
v 2.361152 -0.416161 -3.219753
v 1.663539 -0.416161 -3.380741
v 0.858601 -0.416072 -3.434403
v -1.986001 0.315195 2.438809
v -1.440390 0.337148 2.523642
v -0.760146 0.326463 2.565494
v 1.984846 0.307384 -2.437390
v 1.442018 0.314550 -2.526495
v 0.753676 0.312123 -2.543655
v 0.000000 -0.117115 3.233802
v 0.000000 0.185756 3.043222
v 0.000000 0.256166 2.820810
v 0.000000 -0.112177 -3.287432
v 0.000000 0.177277 -3.000257
v 0.000000 0.259727 -2.835781
v 0.000000 0.409491 -0.750000
v 0.000000 0.328087 -1.453125
v 0.000000 0.327219 -2.062500
v -3.219753 -0.416161 -2.361152
v -3.380741 -0.416161 -1.663539
v -3.434403 -0.416072 -0.858601
v 3.219753 -0.416100 2.361152
v 3.380741 -0.416161 1.663539
v 3.434403 -0.416072 0.858601
v -2.440037 0.308638 -1.987001
v -2.520342 0.325771 -1.438506
v -2.543287 0.398302 -0.753566
v 2.405270 0.384874 1.958689
v 2.520384 0.358379 1.438531
v 2.535228 0.309714 0.751179
v 0.000000 0.348493 2.062500
v 0.000000 0.346799 1.453125
v 0.000000 0.363083 0.750000
v -0.750000 0.381039 0.000000
v -1.453125 0.397923 0.000000
v -2.062500 0.433957 0.000000
v 3.133218 -0.126375 -0.000000
v 2.969722 0.171251 -0.000000
v 2.830668 0.263580 -0.000000
v -3.136325 -0.126089 -0.000000
v -2.973757 0.172047 -0.000000
v -2.849232 0.267796 -0.000000
v 2.062500 0.376261 0.000000
v 1.453125 0.397425 0.000000
v 0.750000 0.336982 0.000000
v -2.897778 -0.416161 2.897778
v 2.897778 -0.407979 2.897778
v -2.897778 -0.416161 -2.897778
v 2.897778 -0.416161 -2.897778
v -2.299485 0.328730 2.299485
v 2.296293 0.338991 2.296293
v -2.304360 0.292066 -2.304360
v 2.305833 0.292518 -2.305833
v 0.000000 -0.414520 3.434403
v 0.000000 -0.414520 -3.434403
v 0.000000 0.324164 2.542730
v 0.000000 0.308124 -2.532457
v -3.434403 -0.414520 -0.000000
v 3.434403 -0.414520 -0.000000
v -2.546302 0.349828 -0.000000
v 2.543195 0.327821 -0.000000
v 0.000000 0.422291 0.000000
vt 1.257254 1.300217
vt 0.882824 1.294396
vt 0.893050 0.915349
vt 1.272084 0.926036
vt 0.904496 0.511158
vt 1.284614 0.521644
vt 0.478356 1.284614
vt 0.488842 0.904495
vt 0.500000 0.500000
vt 1.600935 0.937948
vt 1.573631 1.303408
vt 1.856045 0.950166
vt 1.814110 1.311630
vt 1.616479 0.530798
vt 1.874323 0.537911
vt 1.533370 1.592000
vt 1.242997 1.616289
vt 1.511559 1.801965
vt 1.237949 1.856856
vt 1.744219 1.581798
vt 1.670018 1.736401
vt 0.876589 1.623403
vt 0.469201 1.616478
vt 0.874724 1.878799
vt 0.462089 1.874322
vt -1.044057 -0.344404
vt -1.102595 0.033902
vt -1.160909 0.028607
vt -1.099555 -0.357078
vt -1.217858 0.022434
vt -1.154242 -0.371085
vt -1.124496 0.455187
vt -1.183907 0.453548
vt -1.241573 0.451958
vt -0.988638 -0.672961
vt -0.941043 -0.647321
vt -0.825957 -0.901189
vt -0.790082 -0.863279
vt -1.037686 -0.698868
vt -0.862532 -0.939840
vt -0.871399 -0.609738
vt -0.961193 -0.328026
vt -0.744219 -0.581799
vt -0.814110 -0.311631
vt -0.736113 -0.806248
vt -0.670018 -0.736402
vt -1.013338 0.040363
vt -1.033716 0.457691
vt -0.856045 0.049833
vt -0.874323 0.462088
vt -0.344402 2.044056
vt 0.033903 2.102593
vt 0.028608 2.160907
vt -0.357076 2.099554
vt 0.022435 2.217855
vt -0.371083 2.154241
vt 0.455187 2.124495
vt 0.453548 2.183905
vt 0.451958 2.241571
vt -0.672960 1.988637
vt -0.647319 1.941042
vt -0.901187 1.825957
vt -0.863277 1.790083
vt -0.698865 2.037686
vt -0.939838 1.862533
vt -0.609736 1.871399
vt -0.328024 1.961192
vt -0.581797 1.744218
vt -0.311630 1.814109
vt -0.806246 1.736114
vt -0.736401 1.670018
vt 0.040364 2.013336
vt 0.457691 2.033715
vt 0.049834 1.856044
vt 1.344402 -1.044057
vt 0.966097 -1.102594
vt 0.971392 -1.160908
vt 1.357076 -1.099555
vt 0.977565 -1.217856
vt 1.371084 -1.154242
vt 0.544813 -1.124496
vt 0.546452 -1.183906
vt 0.548043 -1.241572
vt 1.672959 -0.988638
vt 1.647319 -0.941043
vt 1.901187 -0.825958
vt 1.863277 -0.790083
vt 1.698865 -1.037687
vt 1.939838 -0.862534
vt 1.609736 -0.871400
vt 1.328025 -0.961193
vt 1.581797 -0.744219
vt 1.311630 -0.814110
vt 1.806246 -0.736114
vt 1.736401 -0.670019
vt 0.959636 -1.013337
vt 0.542309 -1.033715
vt 0.950166 -0.856045
vt 0.537912 -0.874323
vt 2.044057 1.344403
vt 2.102595 0.966097
vt 2.160909 0.971393
vt 2.099555 1.357077
vt 2.217858 0.977565
vt 2.154242 1.371084
vt 2.124496 0.544812
vt 2.183907 0.546451
vt 2.241573 0.548041
vt 1.988638 1.672960
vt 1.941043 1.647320
vt 1.825957 1.901188
vt 1.790083 1.863278
vt 2.037687 1.698866
vt 1.862533 1.939839
vt 1.871399 1.609737
vt 1.961193 1.328025
vt 1.736113 1.806247
vt 2.013338 0.959636
vt 2.033716 0.542308
vt -0.257994 -1.088260
vt -0.566130 -1.002103
vt -0.589107 -1.051039
vt -0.267590 -1.144372
vt -0.612270 -1.101441
vt -0.278561 -1.199748
vt 0.120889 -1.184369
vt 0.122962 -1.125852
vt 0.117866 -1.241571
vt 0.124492 -1.036375
vt -0.246210 -1.004619
vt 0.125276 -0.878800
vt -0.237949 -0.856857
vt -0.532443 -0.930494
vt -0.511559 -0.801966
vt 1.257995 2.088259
vt 1.566130 2.002102
vt 1.589108 2.051038
vt 1.267590 2.144372
vt 1.612270 2.101440
vt 1.278561 2.199747
vt 0.879111 2.184368
vt 0.877038 2.125851
vt 0.882134 2.241570
vt 0.875508 2.036374
vt 1.246210 2.004619
vt 1.532444 1.930493
vt -0.300217 1.257253
vt -0.616290 1.242997
vt -0.623404 0.876589
vt -0.294397 0.882824
vt -0.616479 0.469201
vt -0.284614 0.478355
vt -0.856856 1.237949
vt -0.878799 0.874724
vt 0.084650 0.893049
vt 0.073964 1.272084
vt 0.095504 0.488841
vt 0.062052 1.600934
vt -0.303407 1.573631
vt -0.591999 1.533370
vt -0.801965 1.511559
vt -0.257253 -0.300218
vt -0.573631 -0.303408
vt -0.533370 -0.592001
vt -0.242997 -0.616290
vt 0.123412 -0.623404
vt 0.117176 -0.294397
vt 0.530799 -0.616479
vt 0.521644 -0.284614
vt 0.106950 0.084649
vt -0.272084 0.073963
vt 0.511158 0.095504
vt -0.600935 0.062051
vt 2.088259 -0.257996
vt 2.002102 -0.566131
vt 2.051038 -0.589109
vt 2.144371 -0.267591
vt 2.101440 -0.612271
vt 2.199747 -0.278563
vt 2.184369 0.120888
vt 2.125852 0.122961
vt 2.241571 0.117864
vt 2.036375 0.124491
vt 2.004619 -0.246211
vt 1.878800 0.125275
vt 1.856856 -0.237950
vt 1.930493 -0.532445
vt 1.801965 -0.511560
vt -1.088259 1.257995
vt -1.002102 1.566131
vt -1.051038 1.589108
vt -1.144372 1.267591
vt -1.101440 1.612270
vt -1.199747 1.278562
vt -1.184369 0.879111
vt -1.125852 0.877039
vt -1.241571 0.882135
vt -1.036375 0.875508
vt -1.004619 1.246211
vt -0.930493 1.532444
vt 1.300217 -0.257254
vt 0.926036 -0.272084
vt 0.937948 -0.600935
vt 1.303408 -0.573631
vt 1.592000 -0.533370
vt 1.616290 -0.242998
vt 1.623404 0.123411
vt 1.294397 0.117175
vt 0.915350 0.106950
vn -0.0337 0.9984 -0.0443
vn -0.0350 0.9989 -0.0309
vn -0.0154 0.9998 -0.0114
vn -0.0564 0.9984 0.0003
vn 0.0015 1.0000 0.0007
vn -0.0208 0.9991 0.0349
vn 0.0126 0.9989 -0.0446
vn 0.0188 0.9995 -0.0265
vn 0.0193 0.9998 -0.0009
vn 0.0828 0.9966 0.0017
vn 0.0675 0.9955 -0.0661
vn 0.1950 0.9808 0.0049
vn 0.1844 0.9812 -0.0568
vn 0.0764 0.9952 0.0614
vn 0.1535 0.9876 0.0326
vn 0.0630 0.9945 -0.0834
vn -0.0019 0.9974 -0.0714
vn 0.0677 0.9865 -0.1487
vn 0.0169 0.9886 -0.1495
vn 0.1502 0.9846 -0.0898
vn 0.1151 0.9854 -0.1255
vn -0.0309 0.9984 -0.0475
vn 0.0001 0.9991 -0.0417
vn -0.0116 0.9918 -0.1270
vn -0.0001 0.9954 -0.0957
vn -0.6922 0.7118 0.1186
vn -0.7006 0.7132 -0.0219
vn -0.8457 0.5336 -0.0079
vn -0.8310 0.5428 0.1215
vn -0.7613 0.6482 0.0152
vn -0.7835 0.6120 0.1073
vn -0.7104 0.7037 0.0016
vn -0.8306 0.5569 -0.0064
vn -0.7329 0.6802 -0.0060
vn -0.7143 0.6127 0.3380
vn -0.6685 0.6813 0.2982
vn -0.5424 0.5789 0.6088
vn -0.5689 0.5845 0.5786
vn -0.6531 0.6872 0.3182
vn -0.4185 0.7740 0.4752
vn -0.4352 0.8832 0.1749
vn -0.3417 0.9390 0.0387
vn -0.1327 0.9863 0.0982
vn -0.1865 0.9824 0.0030
vn -0.2803 0.9227 0.2646
vn -0.0519 0.9914 0.1198
vn -0.3184 0.9479 -0.0085
vn -0.3634 0.9314 0.0182
vn -0.1781 0.9839 -0.0147
vn -0.1676 0.9854 0.0294
vn -0.0844 0.6430 -0.7612
vn -0.0363 0.7112 -0.7020
vn -0.0880 0.5784 -0.8110
vn -0.1157 0.5308 -0.8395
vn -0.0939 0.5830 -0.8070
vn -0.0940 0.6901 -0.7175
vn 0.0271 0.7432 -0.6685
vn 0.0536 0.5769 -0.8150
vn 0.0582 0.5631 -0.8243
vn -0.2532 0.5566 -0.7913
vn -0.1982 0.7026 -0.6834
vn -0.5788 0.5669 -0.5860
vn -0.4679 0.7578 -0.4547
vn -0.2676 0.6474 -0.7136
vn -0.5689 0.5809 -0.5821
vn -0.0997 0.9592 -0.2646
vn -0.0356 0.9452 -0.3246
vn -0.0606 0.9915 -0.1152
vn -0.0094 0.9942 -0.1066
vn -0.1996 0.9657 -0.1661
vn -0.1259 0.9861 -0.1084
vn 0.0025 0.9251 -0.3796
vn 0.0060 0.9475 -0.3196
vn 0.0076 0.9963 -0.0855
vn 0.0951 0.6814 0.7257
vn 0.0763 0.7392 0.6691
vn 0.0876 0.5249 0.8466
vn 0.1157 0.5021 0.8570
vn 0.0707 0.6233 0.7787
vn 0.0933 0.6759 0.7310
vn -0.0405 0.7549 0.6546
vn -0.0331 0.5347 0.8444
vn -0.0216 0.5766 0.8167
vn 0.3050 0.5253 0.7944
vn 0.2314 0.6428 0.7302
vn 0.6184 0.5266 0.5833
vn 0.5664 0.6694 0.4807
vn 0.2884 0.7060 0.6469
vn 0.5051 0.6963 0.5099
vn 0.0697 0.9506 0.3025
vn 0.0526 0.9251 0.3760
vn 0.0853 0.9904 0.1086
vn 0.0509 0.9831 0.1758
vn 0.2358 0.9573 0.1669
vn 0.0442 0.9953 0.0860
vn -0.0044 0.9551 0.2961
vn -0.0216 0.9636 0.2664
vn -0.0550 0.9855 0.1603
vn -0.0124 0.9926 0.1209
vn 0.6910 0.7191 -0.0729
vn 0.7566 0.6526 0.0407
vn 0.8465 0.5314 0.0327
vn 0.8285 0.5557 -0.0684
vn 0.7013 0.7126 0.0164
vn 0.8114 0.5788 -0.0813
vn 0.7729 0.6341 -0.0201
vn 0.8073 0.5892 -0.0332
vn 0.6890 0.7241 -0.0303
vn 0.7395 0.5820 -0.3382
vn 0.5768 0.7782 -0.2485
vn 0.5118 0.5966 -0.6181
vn 0.4778 0.6767 -0.5601
vn 0.7278 0.5912 -0.3475
vn 0.4564 0.7183 -0.5250
vn 0.3065 0.9438 -0.1238
vn 0.3043 0.9505 -0.0618
vn 0.2195 0.9504 -0.2203
vn 0.3327 0.9429 0.0130
vn 0.3854 0.9227 0.0033
vn -0.1138 0.7077 0.6973
vn -0.3267 0.6492 0.6868
vn -0.3688 0.5230 0.7683
vn -0.1460 0.5338 0.8329
vn -0.2801 0.7680 0.5760
vn -0.1408 0.6726 0.7264
vn -0.0202 0.5384 0.8424
vn -0.0049 0.7310 0.6823
vn -0.0270 0.6150 0.7880
vn 0.0059 0.9520 0.3059
vn -0.0367 0.9632 0.2662
vn 0.0044 0.9922 0.1239
vn -0.0296 0.9923 0.1203
vn -0.0929 0.9605 0.2622
vn -0.0276 0.9916 0.1264
vn 0.1067 0.7254 -0.6800
vn 0.2564 0.6970 -0.6696
vn 0.3294 0.5813 -0.7440
vn 0.1287 0.6061 -0.7849
vn 0.3017 0.7169 -0.6284
vn 0.1270 0.6526 -0.7469
vn 0.0240 0.5385 -0.8422
vn 0.0117 0.7142 -0.6998
vn 0.0056 0.6558 -0.7549
vn 0.0015 0.9602 -0.2792
vn 0.0597 0.9425 -0.3287
vn 0.1067 0.9376 -0.3309
vn -0.0054 0.9994 -0.0348
vn -0.0178 0.9993 -0.0324
vn -0.0219 0.9990 -0.0378
vn -0.0090 0.9992 -0.0375
vn -0.0574 0.9982 0.0155
vn -0.0089 0.9999 -0.0089
vn -0.1330 0.9897 -0.0526
vn -0.1515 0.9883 -0.0178
vn 0.0003 0.9996 -0.0265
vn 0.0003 0.9987 -0.0503
vn 0.0094 0.9999 -0.0098
vn 0.0063 0.9989 -0.0457
vn 0.0032 0.9992 -0.0400
vn -0.0360 0.9979 -0.0532
vn -0.1397 0.9867 -0.0831
vn 0.0025 0.9982 0.0598
vn -0.0483 0.9985 0.0256
vn -0.0050 0.9947 0.1029
vn -0.0025 0.9969 0.0789
vn 0.0155 0.9988 0.0450
vn 0.0432 0.9979 0.0483
vn -0.0075 0.9996 0.0257
vn 0.0020 0.9997 0.0243
vn 0.0379 0.9992 0.0135
vn -0.0154 0.9998 -0.0132
vn 0.0132 0.9995 0.0270
vn -0.0765 0.9968 -0.0226
vn 0.7568 0.6457 0.1010
vn 0.6597 0.7053 0.2593
vn 0.7345 0.5973 0.3220
vn 0.8184 0.5677 0.0886
vn 0.6888 0.6501 0.3207
vn 0.7912 0.6051 0.0888
vn 0.8150 0.5795 -0.0024
vn 0.7763 0.6297 -0.0293
vn 0.7457 0.6659 0.0191
vn 0.4239 0.9052 -0.0305
vn 0.4287 0.9011 0.0657
vn 0.1060 0.9942 -0.0175
vn 0.1009 0.9949 -0.0012
vn 0.3938 0.9074 0.1464
vn 0.0807 0.9942 0.0703
vn -0.6504 0.7543 -0.0889
vn -0.5732 0.7945 -0.2001
vn -0.7570 0.5731 -0.3138
vn -0.8118 0.5770 -0.0893
vn -0.7812 0.5144 -0.3536
vn -0.8608 0.4982 -0.1036
vn -0.8280 0.5604 0.0188
vn -0.7096 0.7044 0.0130
vn -0.7848 0.6196 0.0119
vn -0.3764 0.9264 -0.0045
vn -0.3652 0.9272 -0.0833
vn -0.3072 0.9449 -0.1126
vn 0.0336 0.9994 0.0027
vn -0.0608 0.9981 0.0051
vn -0.0770 0.9969 0.0154
vn 0.0503 0.9985 0.0191
vn 0.0567 0.9978 0.0324
vn 0.0682 0.9977 -0.0017
vn 0.0711 0.9972 -0.0208
vn 0.0205 0.9993 -0.0305
vn -0.0211 0.9998 -0.0052
usemtl dirt
s 1
f 1/1/1 5/2/2 6/3/3 2/4/4
f 2/4/4 6/3/3 192/5/5 191/6/6
f 5/2/2 164/7/7 163/8/8 6/3/3
f 6/3/3 163/8/8 209/9/9 192/5/5
f 1/1/1 2/4/4 7/10/10 3/11/11
f 3/11/11 7/10/10 127/12/12 128/13/13
f 2/4/4 191/6/6 190/14/14 7/10/10
f 7/10/10 190/14/14 208/15/15 127/12/12
f 1/1/1 3/11/11 8/16/16 4/17/17
f 4/17/17 8/16/16 154/18/18 155/19/19
f 3/11/11 128/13/13 129/20/20 8/16/16
f 8/16/16 129/20/20 200/21/21 154/18/18
f 1/1/1 4/17/17 9/22/22 5/2/2
f 5/2/2 9/22/22 165/23/23 164/7/7
f 4/17/17 155/19/19 156/24/24 9/22/22
f 9/22/22 156/24/24 204/25/25 165/23/23
f 10/26/26 14/27/27 15/28/28 11/29/29
f 11/29/29 15/28/28 109/30/30 110/31/31
f 14/27/27 188/32/32 187/33/33 15/28/28
f 15/28/28 187/33/33 205/34/34 109/30/30
f 10/26/26 11/29/29 16/35/35 12/36/36
f 12/36/36 16/35/35 133/37/37 134/38/38
f 11/29/29 110/31/31 111/39/39 16/35/35
f 16/35/35 111/39/39 193/40/40 133/37/37
f 10/26/26 12/36/36 17/41/41 13/42/42
f 13/42/42 17/41/41 123/43/43 122/44/44
f 12/36/36 134/38/38 135/45/45 17/41/41
f 17/41/41 135/45/45 197/46/46 123/43/43
f 10/26/26 13/42/42 18/47/47 14/27/27
f 14/27/27 18/47/47 189/48/48 188/32/32
f 13/42/42 122/44/44 121/49/49 18/47/47
f 18/47/47 121/49/49 207/50/50 189/48/48
f 19/51/51 23/52/52 24/53/53 20/54/54
f 20/54/54 24/53/53 118/55/55 119/56/56
f 23/52/52 161/57/57 160/58/58 24/53/53
f 24/53/53 160/58/58 202/59/59 118/55/55
f 19/51/51 20/54/54 25/60/60 21/61/61
f 21/61/61 25/60/60 138/62/62 137/63/63
f 20/54/54 119/56/56 120/64/64 25/60/60
f 25/60/60 120/64/64 195/65/65 138/62/62
f 19/51/51 21/61/61 26/66/66 22/67/67
f 22/67/67 26/66/66 132/68/68 131/69/69
f 21/61/61 137/63/63 136/70/70 26/66/66
f 26/66/66 136/70/70 199/71/71 132/68/68
f 19/51/51 22/67/67 27/72/72 23/52/52
f 23/52/52 27/72/72 162/73/73 161/57/57
f 22/67/67 131/69/69 130/74/74 27/72/72
f 27/72/72 130/74/74 204/25/25 162/73/73
f 28/75/75 32/76/76 33/77/77 29/78/78
f 29/78/78 33/77/77 112/79/79 113/80/80
f 32/76/76 158/81/81 157/82/82 33/77/77
f 33/77/77 157/82/82 201/83/83 112/79/79
f 28/75/75 29/78/78 34/84/84 30/85/85
f 30/85/85 34/84/84 142/86/86 143/87/87
f 29/78/78 113/80/80 114/88/88 34/84/84
f 34/84/84 114/88/88 194/89/89 142/86/86
f 28/75/75 30/85/85 35/90/90 31/91/91
f 31/91/91 35/90/90 126/92/92 125/93/93
f 30/85/85 143/87/87 144/94/94 35/90/90
f 35/90/90 144/94/94 198/95/95 126/92/92
f 28/75/75 31/91/91 36/96/96 32/76/76
f 32/76/76 36/96/96 159/97/97 158/81/81
f 31/91/91 125/93/93 124/98/98 36/96/96
f 36/96/96 124/98/98 203/99/99 159/97/97
f 37/100/100 41/101/101 42/102/102 38/103/103
f 38/103/103 42/102/102 115/104/104 116/105/105
f 41/101/101 185/106/106 184/107/107 42/102/102
f 42/102/102 184/107/107 206/108/108 115/104/104
f 37/100/100 38/103/103 43/109/109 39/110/110
f 39/110/110 43/109/109 141/111/111 140/112/112
f 38/103/103 116/105/105 117/113/113 43/109/109
f 43/109/109 117/113/113 196/114/114 141/111/111
f 37/100/100 39/110/110 44/115/115 40/116/116
f 40/116/116 44/115/115 129/20/20 128/13/13
f 39/110/110 140/112/112 139/117/117 44/115/115
f 44/115/115 139/117/117 200/21/21 129/20/20
f 37/100/100 40/116/116 45/118/118 41/101/101
f 41/101/101 45/118/118 186/119/119 185/106/106
f 40/116/116 128/13/13 127/12/12 45/118/118
f 45/118/118 127/12/12 208/15/15 186/119/119
f 46/120/120 50/121/121 51/122/122 47/123/123
f 47/123/123 51/122/122 145/124/124 146/125/125
f 50/121/121 134/38/38 133/37/37 51/122/122
f 51/122/122 133/37/37 193/40/40 145/124/124
f 46/120/120 47/123/123 52/126/126 48/127/127
f 48/127/127 52/126/126 157/82/82 158/81/81
f 47/123/123 146/125/125 147/128/128 52/126/126
f 52/126/126 147/128/128 201/83/83 157/82/82
f 46/120/120 48/127/127 53/129/129 49/130/130
f 49/130/130 53/129/129 153/131/131 152/132/132
f 48/127/127 158/81/81 159/97/97 53/129/129
f 53/129/129 159/97/97 203/99/99 153/131/131
f 46/120/120 49/130/130 54/133/133 50/121/121
f 50/121/121 54/133/133 135/45/45 134/38/38
f 49/130/130 152/132/132 151/134/134 54/133/133
f 54/133/133 151/134/134 197/46/46 135/45/45
f 55/135/135 59/136/136 60/137/137 56/138/138
f 56/138/138 60/137/137 148/139/139 149/140/140
f 59/136/136 140/112/112 141/111/111 60/137/137
f 60/137/137 141/111/111 196/114/114 148/139/139
f 55/135/135 56/138/138 61/141/141 57/142/142
f 57/142/142 61/141/141 160/58/58 161/57/57
f 56/138/138 149/140/140 150/143/143 61/141/141
f 61/141/141 150/143/143 202/59/59 160/58/58
f 55/135/135 57/142/142 62/144/144 58/145/145
f 58/145/145 62/144/144 156/24/24 155/19/19
f 57/142/142 161/57/57 162/73/73 62/144/144
f 62/144/144 162/73/73 204/25/25 156/24/24
f 55/135/135 58/145/145 63/146/146 59/136/136
f 59/136/136 63/146/146 139/117/117 140/112/112
f 58/145/145 155/19/19 154/18/18 63/146/146
f 63/146/146 154/18/18 200/21/21 139/117/117
f 64/147/147 68/148/148 69/149/149 65/150/150
f 65/150/150 69/149/149 183/151/151 182/152/152
f 68/148/148 173/153/153 174/154/154 69/149/149
f 69/149/149 174/154/154 207/50/50 183/151/151
f 64/147/147 65/150/150 70/155/155 66/156/156
f 66/156/156 70/155/155 163/8/8 164/7/7
f 65/150/150 182/152/152 181/157/157 70/155/155
f 70/155/155 181/157/157 209/9/9 163/8/8
f 64/147/147 66/156/156 71/158/158 67/159/159
f 67/159/159 71/158/158 130/74/74 131/69/69
f 66/156/156 164/7/7 165/23/23 71/158/158
f 71/158/158 165/23/23 204/25/25 130/74/74
f 64/147/147 67/159/159 72/160/160 68/148/148
f 68/148/148 72/160/160 172/161/161 173/153/153
f 67/159/159 131/69/69 132/68/68 72/160/160
f 72/160/160 132/68/68 199/71/71 172/161/161
f 73/162/162 77/163/163 78/164/164 74/165/165
f 74/165/165 78/164/164 151/134/134 152/132/132
f 77/163/163 122/44/44 123/43/43 78/164/164
f 78/164/164 123/43/43 197/46/46 151/134/134
f 73/162/162 74/165/165 79/166/166 75/167/167
f 75/167/167 79/166/166 178/168/168 179/169/169
f 74/165/165 152/132/132 153/131/131 79/166/166
f 79/166/166 153/131/131 203/99/99 178/168/168
f 73/162/162 75/167/167 80/170/170 76/171/171
f 76/171/171 80/170/170 181/157/157 182/152/152
f 75/167/167 179/169/169 180/172/172 80/170/170
f 80/170/170 180/172/172 209/9/9 181/157/157
f 73/162/162 76/171/171 81/173/173 77/163/163
f 77/163/163 81/173/173 121/49/49 122/44/44
f 76/171/171 182/152/152 183/151/151 81/173/173
f 81/173/173 183/151/151 207/50/50 121/49/49
f 82/174/174 86/175/175 87/176/176 83/177/177
f 83/177/177 87/176/176 169/178/178 170/179/179
f 86/175/175 143/87/87 142/86/86 87/176/176
f 87/176/176 142/86/86 194/89/89 169/178/178
f 82/174/174 83/177/177 88/180/180 84/181/181
f 84/181/181 88/180/180 184/107/107 185/106/106
f 83/177/177 170/179/179 171/182/182 88/180/180
f 88/180/180 171/182/182 206/108/108 184/107/107
f 82/174/174 84/181/181 89/183/183 85/184/184
f 85/184/184 89/183/183 177/185/185 176/186/186
f 84/181/181 185/106/106 186/119/119 89/183/183
f 89/183/183 186/119/119 208/15/15 177/185/185
f 82/174/174 85/184/184 90/187/187 86/175/175
f 86/175/175 90/187/187 144/94/94 143/87/87
f 85/184/184 176/186/186 175/188/188 90/187/187
f 90/187/187 175/188/188 198/95/95 144/94/94
f 91/189/189 95/190/190 96/191/191 92/192/192
f 92/192/192 96/191/191 166/193/193 167/194/194
f 95/190/190 137/63/63 138/62/62 96/191/191
f 96/191/191 138/62/62 195/65/65 166/193/193
f 91/189/189 92/192/192 97/195/195 93/196/196
f 93/196/196 97/195/195 187/33/33 188/32/32
f 92/192/192 167/194/194 168/197/197 97/195/195
f 97/195/195 168/197/197 205/34/34 187/33/33
f 91/189/189 93/196/196 98/198/198 94/199/199
f 94/199/199 98/198/198 174/154/154 173/153/153
f 93/196/196 188/32/32 189/48/48 98/198/198
f 98/198/198 189/48/48 207/50/50 174/154/154
f 91/189/189 94/199/199 99/200/200 95/190/190
f 95/190/190 99/200/200 136/70/70 137/63/63
f 94/199/199 173/153/153 172/161/161 99/200/200
f 99/200/200 172/161/161 199/71/71 136/70/70
f 100/201/201 104/202/202 105/203/203 101/204/204
f 101/204/204 105/203/203 124/98/98 125/93/93
f 104/202/202 179/169/169 178/168/168 105/203/203
f 105/203/203 178/168/168 203/99/99 124/98/98
f 100/201/201 101/204/204 106/205/205 102/206/206
f 102/206/206 106/205/205 175/188/188 176/186/186
f 101/204/204 125/93/93 126/92/92 106/205/205
f 106/205/205 126/92/92 198/95/95 175/188/188
f 100/201/201 102/206/206 107/207/207 103/208/208
f 103/208/208 107/207/207 190/14/14 191/6/6
f 102/206/206 176/186/186 177/185/185 107/207/207
f 107/207/207 177/185/185 208/15/15 190/14/14
f 100/201/201 103/208/208 108/209/209 104/202/202
f 104/202/202 108/209/209 180/172/172 179/169/169
f 103/208/208 191/6/6 192/5/5 108/209/209
f 108/209/209 192/5/5 209/9/9 180/172/172
