# Blender v2.79 (sub 0) OBJ File: ''
# www.blender.org
mtllib grass_path_mesh.mtl
o grass_patch_Plane
v 1.448568 0.262732 -1.448568
v 1.453125 0.257444 -0.750000
v 2.044271 0.259549 -1.434896
v 1.434896 0.259549 -2.044271
v 0.750000 0.257444 -1.453125
v 0.750000 0.251607 -0.750000
v 2.062500 0.258073 -0.750000
v 1.989583 0.250910 -1.989583
v 0.750000 0.258073 -2.062500
v -2.920241 0.096808 1.454890
v -2.987414 -0.207621 1.469997
v -2.783114 0.093854 2.053331
v -2.776780 0.181022 1.437975
v -2.965920 0.098188 0.753249
v -3.034829 -0.207466 0.758707
v -2.845156 -0.207621 2.086448
v -2.651815 0.174873 1.994081
v -2.818368 0.183362 0.751565
v -1.454890 0.096807 -2.920241
v -1.469997 -0.207622 -2.987414
v -2.053331 0.093853 -2.783114
v -1.437975 0.181022 -2.776780
v -0.753249 0.098187 -2.965920
v -0.758707 -0.207467 -3.034829
v -2.086448 -0.207622 -2.845156
v -1.994081 0.174873 -2.651815
v -0.751565 0.183362 -2.818368
v 1.454890 0.096808 2.920241
v 1.469997 -0.207621 2.987414
v 2.053331 0.093854 2.783114
v 1.437975 0.181023 2.776780
v 0.753249 0.098188 2.965920
v 0.758707 -0.207466 3.034829
v 2.086448 -0.207621 2.845156
v 1.994081 0.174873 2.651815
v 0.751565 0.183363 2.818368
v 2.920241 0.096807 -1.454890
v 2.987414 -0.207621 -1.469997
v 2.783114 0.093853 -2.053331
v 2.776780 0.181022 -1.437975
v 2.965920 0.098188 -0.753249
v 3.034829 -0.207467 -0.758707
v 2.845156 -0.207622 -2.086448
v 2.651815 0.174873 -1.994081
v 2.818368 0.183362 -0.751565
v -1.454890 0.096808 2.920241
v -1.469997 -0.207621 2.987414
v -0.753249 0.098188 2.965920
v -1.437975 0.181023 2.776780
v -2.053331 0.093854 2.783114
v -2.086448 -0.207621 2.845156
v -0.758707 -0.207466 3.034829
v -0.751565 0.183363 2.818368
v -1.994081 0.174873 2.651815
v 1.454890 0.096807 -2.920241
v 1.469997 -0.207622 -2.987414
v 0.753249 0.098187 -2.965920
v 1.437975 0.181022 -2.776780
v 2.053331 0.093853 -2.783114
v 2.086448 -0.207622 -2.845156
v 0.758707 -0.207467 -3.034829
v 0.751565 0.183362 -2.818368
v 1.994081 0.174873 -2.651815
v -1.448568 0.262732 -1.448568
v -1.453125 0.257444 -0.750000
v -0.750000 0.257444 -1.453125
v -1.434896 0.259549 -2.044271
v -2.044271 0.259549 -1.434896
v -2.062500 0.258073 -0.750000
v -0.750000 0.251607 -0.750000
v -0.750000 0.258073 -2.062500
v -1.989583 0.250910 -1.989583
v -1.448568 0.262732 1.448568
v -1.434896 0.259549 2.044271
v -0.750000 0.257444 1.453125
v -1.453125 0.257444 0.750000
v -2.044271 0.259549 1.434896
v -1.989583 0.250910 1.989583
v -0.750000 0.258074 2.062500
v -0.750000 0.251608 0.750000
v -2.062500 0.258074 0.750000
v 2.920241 0.096808 1.454890
v 2.987414 -0.207621 1.469997
v 2.965920 0.098188 0.753249
v 2.776780 0.181022 1.437975
v 2.783114 0.093854 2.053331
v 2.845156 -0.207621 2.086448
v 3.034829 -0.207466 0.758707
v 2.818368 0.183362 0.751565
v 2.651815 0.174873 1.994081
v -2.920241 0.096807 -1.454890
v -2.987414 -0.207621 -1.469997
v -2.965920 0.098188 -0.753249
v -2.776780 0.181022 -1.437975
v -2.783114 0.093853 -2.053331
v -2.845156 -0.207622 -2.086448
v -3.034829 -0.207467 -0.758707
v -2.818368 0.183362 -0.751565
v -2.651815 0.174873 -1.994081
v 1.448568 0.262732 1.448568
v 1.434896 0.259549 2.044271
v 2.044271 0.259549 1.434896
v 1.453125 0.257444 0.750000
v 0.750000 0.257444 1.453125
v 0.750000 0.258074 2.062500
v 1.989583 0.250910 1.989583
v 2.062500 0.258074 0.750000
v 0.750000 0.251608 0.750000
v -3.044761 -0.487641 0.761190
v -2.997186 -0.487720 1.474806
v -2.854463 -0.487720 2.093273
v 0.761190 -0.487641 3.044761
v 1.474806 -0.487720 2.997186
v 2.093273 -0.487720 2.854463
v 3.044761 -0.487641 -0.761190
v 2.997186 -0.487720 -1.474806
v 2.854463 -0.487720 -2.093273
v -0.761190 -0.487642 -3.044761
v -1.474806 -0.487721 -2.997186
v -2.093273 -0.487721 -2.854463
v -2.531532 0.236948 0.750084
v -2.498438 0.234741 1.426005
v -2.399189 0.224355 1.953737
v 0.750084 0.236948 2.531532
v 1.426005 0.234741 2.498438
v 1.953737 0.224355 2.399189
v 2.531532 0.236948 -0.750084
v 2.498438 0.234740 -1.426005
v 2.399189 0.224354 -1.953737
v -0.750084 0.236948 -2.531532
v -1.426005 0.234740 -2.498438
v -1.953737 0.224354 -2.399189
v -2.560641 -0.207621 2.560641
v -2.509211 0.092124 2.509211
v -2.403972 0.170583 2.403972
v -2.403972 0.170582 -2.403972
v -2.509211 0.092124 -2.509211
v -2.560641 -0.207622 -2.560641
v 2.403972 0.170582 -2.403972
v 2.509211 0.092124 -2.509211
v 2.560641 -0.207622 -2.560641
v 2.560641 -0.207621 2.560641
v 2.509211 0.092124 2.509211
v 2.403972 0.170583 2.403972
v -2.093273 -0.487720 2.854463
v -1.474806 -0.487720 2.997186
v -0.761190 -0.487641 3.044761
v 2.093273 -0.487721 -2.854463
v 1.474806 -0.487721 -2.997186
v 0.761190 -0.487642 -3.044761
v -1.953737 0.224355 2.399189
v -1.426005 0.234741 2.498438
v -0.750084 0.236948 2.531532
v 1.953737 0.224354 -2.399189
v 1.426005 0.234740 -2.498438
v 0.750084 0.236948 -2.531532
v 0.000000 -0.207136 3.034894
v 0.000000 0.098801 2.965970
v 0.000000 0.183885 2.818408
v 0.000000 -0.207137 -3.034894
v 0.000000 0.098800 -2.965970
v 0.000000 0.183884 -2.818408
v 0.000000 0.249520 -0.750000
v 0.000000 0.254210 -1.453125
v 0.000000 0.255509 -2.062500
v -2.854463 -0.487720 -2.093273
v -2.997186 -0.487720 -1.474806
v -3.044761 -0.487641 -0.761190
v 2.854463 -0.487720 2.093273
v 2.997186 -0.487720 1.474806
v 3.044761 -0.487641 0.761190
v -2.399189 0.224354 -1.953737
v -2.498438 0.234740 -1.426005
v -2.531532 0.236948 -0.750084
v 2.399189 0.224355 1.953737
v 2.498438 0.234741 1.426005
v 2.531532 0.236948 0.750084
v 0.000000 0.255510 2.062500
v 0.000000 0.254210 1.453125
v 0.000000 0.249520 0.750000
v -0.750000 0.249520 -0.000000
v -1.453125 0.254210 -0.000000
v -2.062500 0.255509 -0.000000
v 3.034894 -0.207137 0.000000
v 2.965970 0.098801 -0.000000
v 2.818408 0.183885 -0.000000
v -3.034894 -0.207137 0.000000
v -2.965970 0.098801 -0.000000
v -2.818408 0.183885 -0.000000
v 2.062500 0.255509 -0.000000
v 1.453125 0.254210 -0.000000
v 0.750000 0.249520 -0.000000
v -2.569017 -0.487720 2.569017
v 2.569017 -0.487720 2.569017
v -2.569017 -0.487721 -2.569017
v 2.569017 -0.487721 -2.569017
v -2.265431 0.208415 2.265431
v 2.265431 0.208415 2.265431
v -2.265431 0.208414 -2.265431
v 2.265431 0.208414 -2.265431
v 0.000000 -0.486265 3.044761
v 0.000000 -0.486266 -3.044761
v 0.000000 0.236157 2.531554
v 0.000000 0.236156 -2.531554
v -3.044761 -0.486265 0.000000
v 3.044761 -0.486265 0.000000
v -2.531554 0.236157 -0.000000
v 2.531554 0.236157 -0.000000
v 0.000000 0.248691 -0.000000
v 1.074377 0.128846 2.632201
v 0.477535 0.128846 2.275075
v 1.074377 0.824374 2.632201
v 0.477535 0.824374 2.275074
v 0.477535 0.128846 2.275075
v 1.074377 0.128846 2.632201
v 0.477535 0.824374 2.275074
v 1.074377 0.824374 2.632201
v 2.492284 0.128846 -0.367907
v 2.057917 0.128846 -0.911124
v 2.492284 0.824374 -0.367907
v 2.057917 0.824374 -0.911124
v 2.057917 0.128846 -0.911124
v 2.492284 0.128846 -0.367907
v 2.057917 0.824374 -0.911124
v 2.492284 0.824374 -0.367907
v -2.006097 0.128846 1.233762
v -2.231967 0.128846 0.575931
v -2.006097 0.824374 1.233762
v -2.231967 0.824374 0.575930
v -2.231967 0.128846 0.575931
v -2.006097 0.128846 1.233762
v -2.231967 0.824374 0.575930
v -2.006097 0.824374 1.233762
v -2.129377 0.128846 -0.760542
v -1.873952 0.128845 -1.407472
v -2.129377 0.824374 -0.760542
v -1.873952 0.824374 -1.407472
v -1.873952 0.128845 -1.407472
v -2.129377 0.128846 -0.760542
v -1.873952 0.824374 -1.407472
v -2.129377 0.824374 -0.760542
v 0.173034 0.128845 -1.918185
v 0.854809 0.128845 -2.055816
v 0.173034 0.824374 -1.918186
v 0.854809 0.824374 -2.055817
v 0.854809 0.128845 -2.055816
v 0.173034 0.128845 -1.918185
v 0.854809 0.824374 -2.055817
v 0.173034 0.824374 -1.918186
v -0.955203 0.128845 -1.789116
v -0.359643 0.128845 -2.148377
v -0.955203 0.824374 -1.789116
v -0.359643 0.824374 -2.148377
v -0.359643 0.128845 -2.148377
v -0.955203 0.128845 -1.789116
v -0.359643 0.824374 -2.148377
v -0.955203 0.824374 -1.789116
v 1.309295 0.128846 2.473371
v 1.904855 0.128846 2.114110
v 1.309295 0.824374 2.473370
v 1.904855 0.824374 2.114110
v 1.904855 0.128846 2.114110
v 1.309295 0.128846 2.473371
v 1.904855 0.824374 2.114110
v 1.309295 0.824374 2.473370
v 2.645286 0.128846 0.692338
v 2.598631 0.128846 -0.001624
v 2.645286 0.824374 0.692338
v 2.598631 0.824374 -0.001624
v 2.598631 0.128846 -0.001624
v 2.645286 0.128846 0.692338
v 2.598631 0.824374 -0.001624
v 2.645286 0.824374 0.692338
v 2.456326 0.128846 -0.640267
v 2.409670 0.128846 -1.334229
v 2.456326 0.824374 -0.640267
v 2.409670 0.824374 -1.334229
v 2.409670 0.128846 -1.334229
v 2.456326 0.128846 -0.640267
v 2.409670 0.824374 -1.334229
v 2.456326 0.824374 -0.640267
v 2.328929 0.128845 -2.156373
v 1.805606 0.128845 -2.614512
v 2.328929 0.824374 -2.156373
v 1.805606 0.824374 -2.614513
v 1.805606 0.128845 -2.614512
v 2.328929 0.128845 -2.156373
v 1.805606 0.824374 -2.614513
v 2.328929 0.824374 -2.156373
v 0.555466 0.128845 -2.586371
v -0.116322 0.128845 -2.766540
v 0.555466 0.824374 -2.586372
v -0.116322 0.824374 -2.766540
v -0.116322 0.128845 -2.766540
v 0.555466 0.128845 -2.586371
v -0.116322 0.824374 -2.766540
v 0.555466 0.824374 -2.586372
v -0.873359 0.128845 -2.519639
v -1.564597 0.128845 -2.442505
v -0.873359 0.824374 -2.519640
v -1.564597 0.824374 -2.442506
v -1.564597 0.128845 -2.442505
v -0.873359 0.128845 -2.519639
v -1.564597 0.824374 -2.442506
v -0.873359 0.824374 -2.519640
v -2.197339 0.128845 -2.143586
v -2.490559 0.128845 -1.512886
v -2.197339 0.824374 -2.143586
v -2.490559 0.824374 -1.512887
v -2.490559 0.128845 -1.512886
v -2.197339 0.128845 -2.143586
v -2.490559 0.824374 -1.512887
v -2.197339 0.824374 -2.143586
v -2.495046 0.128846 -0.732352
v -2.363453 0.128846 -0.049386
v -2.495046 0.824374 -0.732352
v -2.363453 0.824374 -0.049386
v -2.363453 0.128846 -0.049386
v -2.495046 0.128846 -0.732352
v -2.363453 0.824374 -0.049386
v -2.495046 0.824374 -0.732352
v 0.464412 0.157729 1.044025
v 0.814350 0.157729 1.645110
v 0.464412 0.853258 1.044025
v 0.814350 0.853258 1.645110
v 0.814350 0.157729 1.645110
v 0.464412 0.157729 1.044025
v 0.814350 0.853258 1.645110
v 0.464412 0.853258 1.044025
v -2.590260 0.128846 1.102268
v -2.458667 0.128846 1.785234
v -2.590260 0.824374 1.102268
v -2.458667 0.824374 1.785234
v -2.458667 0.128846 1.785234
v -2.590260 0.128846 1.102268
v -2.458667 0.824374 1.785234
v -2.590260 0.824374 1.102268
v -0.517359 0.116495 2.325438
v -0.262093 0.116495 1.678445
v -0.517359 0.812023 2.325437
v -0.262093 0.812023 1.678445
v -0.262093 0.116495 1.678445
v -0.517359 0.116495 2.325438
v -0.262093 0.812023 1.678445
v -0.517359 0.812023 2.325437
v -1.895229 0.128077 2.553059
v -1.250885 0.128077 2.291181
v -1.895229 0.823605 2.553059
v -1.250885 0.823605 2.291181
v -1.250885 0.128077 2.291181
v -1.895229 0.128077 2.553059
v -1.250885 0.823605 2.291181
v -1.895229 0.823605 2.553059
v -1.661981 0.148266 -0.778906
v -1.373829 0.148266 -0.145875
v -1.661981 0.843794 -0.778906
v -1.373829 0.843794 -0.145876
v -1.373829 0.148266 -0.145875
v -1.661981 0.148266 -0.778906
v -1.373829 0.843794 -0.145876
v -1.661981 0.843794 -0.778906
v -1.377893 0.136684 0.588439
v -0.720951 0.136684 0.816884
v -1.377893 0.832212 0.588439
v -0.720951 0.832212 0.816884
v -0.720951 0.136684 0.816884
v -1.377893 0.136684 0.588439
v -0.720951 0.832212 0.816883
v -1.377893 0.832212 0.588439
v -0.588827 0.137602 -0.766973
v 0.082537 0.137602 -0.948714
v -0.588827 0.833130 -0.766973
v 0.082537 0.833130 -0.948714
v 0.082537 0.137602 -0.948714
v -0.588827 0.137602 -0.766973
v 0.082537 0.833130 -0.948714
v -0.588827 0.833130 -0.766973
v -1.594414 0.149184 -1.736062
v -0.999506 0.149184 -1.375724
v -1.594414 0.844712 -1.736062
v -0.999506 0.844712 -1.375724
v -0.999506 0.149184 -1.375724
v -1.594414 0.149184 -1.736062
v -0.999506 0.844712 -1.375724
v -1.594414 0.844712 -1.736062
v 0.091643 0.128995 1.147271
v 0.476140 0.128995 0.567683
v 0.091643 0.824523 1.147271
v 0.476140 0.824523 0.567683
v 0.476140 0.128995 0.567683
v 0.091643 0.128995 1.147271
v 0.476140 0.824523 0.567683
v 0.091643 0.824523 1.147271
v 1.101263 0.117413 0.182384
v 0.947283 0.117413 -0.495885
v 1.101263 0.812941 0.182384
v 0.947283 0.812941 -0.495886
v 0.947283 0.117413 -0.495885
v 1.101263 0.117413 0.182384
v 0.947283 0.812941 -0.495886
v 1.101263 0.812941 0.182384
v -1.592198 0.137602 0.481628
v -0.964275 0.137602 0.780746
v -1.592198 0.833130 0.481627
v -0.964275 0.833130 0.780746
v -0.964275 0.137602 0.780746
v -1.592198 0.137602 0.481628
v -0.964275 0.833130 0.780746
v -1.592198 0.833130 0.481627
v 1.189582 0.158647 -1.429475
v 1.817505 0.158647 -1.130357
v 1.189582 0.854176 -1.429475
v 1.817505 0.854176 -1.130357
v 1.817505 0.158647 -1.130357
v 1.189582 0.158647 -1.429475
v 1.817505 0.854176 -1.130357
v 1.189582 0.854176 -1.429475
v 1.179767 0.045944 -0.291130
v 1.807691 0.045944 0.007988
v 1.179767 0.741472 -0.291130
v 1.807691 0.741472 0.007988
v 1.807691 0.045944 0.007988
v 1.179767 0.045944 -0.291130
v 1.807691 0.741472 0.007988
v 1.179767 0.741472 -0.291130
v -1.602013 0.024899 1.619973
v -0.974089 0.024899 1.919091
v -1.602013 0.720427 1.619973
v -0.974089 0.720427 1.919091
v -0.974089 0.024899 1.919091
v -1.602013 0.024899 1.619973
v -0.974089 0.720427 1.919091
v -1.602013 0.720427 1.619973
v 1.091449 0.004710 1.320730
v 0.937469 0.004709 0.642460
v 1.091449 0.700238 1.320730
v 0.937469 0.700238 0.642460
v 0.937469 0.004709 0.642460
v 1.091449 0.004710 1.320730
v 0.937469 0.700238 0.642460
v 1.091449 0.700238 1.320730
v 0.081828 0.016292 2.285616
v 0.466325 0.016292 1.706029
v 0.081828 0.711820 2.285616
v 0.466325 0.711820 1.706029
v 0.466325 0.016292 1.706029
v 0.081828 0.016292 2.285616
v 0.466325 0.711820 1.706029
v 0.081828 0.711820 2.285616
v -1.604228 0.036481 -0.597717
v -1.009320 0.036481 -0.237378
v -1.604228 0.732009 -0.597717
v -1.009320 0.732009 -0.237378
v -1.009320 0.036481 -0.237378
v -1.604228 0.036481 -0.597717
v -1.009320 0.732009 -0.237378
v -1.604228 0.732009 -0.597717
v -0.598641 0.024899 0.371372
v 0.072723 0.024899 0.189632
v -0.598641 0.720427 0.371372
v 0.072723 0.720427 0.189631
v 0.072723 0.024899 0.189632
v -0.598641 0.024899 0.371372
v 0.072723 0.720427 0.189631
v -0.598641 0.720427 0.371372
v 0.554194 0.187556 -0.239790
v 1.099977 0.187556 0.191349
v 0.554194 0.883084 -0.239790
v 1.099977 0.883085 0.191349
v 1.099977 0.187556 0.191349
v 0.554194 0.187556 -0.239790
v 1.099977 0.883085 0.191349
v 0.554194 0.883084 -0.239790
v 0.733944 0.199138 -1.624719
v 0.798705 0.199138 -0.932212
v 0.733944 0.894666 -1.624719
v 0.798705 0.894666 -0.932212
v 0.798705 0.199138 -0.932212
v 0.733944 0.199138 -1.624719
v 0.798705 0.894666 -0.932212
v 0.733944 0.894666 -1.624719
v -0.578470 0.178949 1.446757
v 0.116114 0.178949 1.410527
v -0.578470 0.874478 1.446757
v 0.116114 0.874478 1.410527
v 0.116114 0.178949 1.410527
v -0.578470 0.178949 1.446757
v 0.116114 0.874478 1.410527
v -0.578470 0.874478 1.446757
v 0.797896 0.167367 1.683305
v 1.251113 0.167367 1.155712
v 0.797896 0.862896 1.683305
v 1.251113 0.862895 1.155712
v 1.251113 0.167367 1.155712
v 0.797896 0.167367 1.683305
v 1.251113 0.862895 1.155712
v 0.797896 0.862896 1.683305
v -1.046381 0.187556 -0.302374
v -0.912778 0.187556 0.380202
v -1.046381 0.883084 -0.302374
v -0.912778 0.883085 0.380202
v -0.912778 0.187556 0.380202
v -1.046381 0.187556 -0.302374
v -0.912778 0.883085 0.380202
v -1.046381 0.883084 -0.302374
v 2.145421 0.208602 0.794446
v 2.279024 0.208602 1.477022
v 2.145421 0.904130 0.794446
v 2.279024 0.904130 1.477022
v 2.279024 0.208602 1.477022
v 2.145421 0.208602 0.794446
v 2.279024 0.904130 1.477022
v 2.145421 0.904130 0.794446
v 1.541970 0.243095 -0.174789
v 2.069919 0.243095 0.278013
v 1.541970 0.938624 -0.174789
v 2.069919 0.938624 0.278013
v 2.069919 0.243095 0.278013
v 1.541970 0.243095 -0.174789
v 2.069919 0.938624 0.278013
v 1.541970 0.938624 -0.174789
v -1.642534 0.222050 0.943042
v -1.114586 0.222050 1.395844
v -1.642534 0.917578 0.943041
v -1.114586 0.917578 1.395844
v -1.114586 0.222050 1.395844
v -1.642534 0.222050 0.943042
v -1.114586 0.917578 1.395844
v -1.642534 0.917578 0.943042
v 1.035542 0.201861 1.357993
v 1.064143 0.201861 0.663053
v 1.035542 0.897389 1.357993
v 1.064143 0.897389 0.663053
v 1.064143 0.201861 0.663053
v 1.035542 0.201861 1.357993
v 1.064143 0.897389 0.663053
v 1.035542 0.897389 1.357993
v -0.191126 0.213443 2.025545
v 0.331459 0.213443 1.566562
v -0.191126 0.908971 2.025545
v 0.331459 0.908971 1.566562
v 0.331459 0.213443 1.566562
v -0.191126 0.213443 2.025545
v 0.331459 0.908971 1.566562
v -0.191126 0.908971 2.025545
v -1.065193 0.233632 -1.198180
v -0.585109 0.233632 -0.694911
v -1.065193 0.929160 -1.198180
v -0.585109 0.929160 -0.694912
v -0.585109 0.233632 -0.694911
v -1.065193 0.233632 -1.198180
v -0.585109 0.929160 -0.694912
v -1.065193 0.929160 -1.198180
v -0.347764 0.222050 -0.000000
v 0.347764 0.222050 -0.000000
v -0.347764 0.917578 -0.000000
v 0.347764 0.917578 -0.000000
v 0.347764 0.222050 -0.000000
v -0.347764 0.222050 -0.000000
v 0.347764 0.917578 -0.000000
v -0.347764 0.917578 -0.000000
vt 1.257254 1.300217
vt 0.882824 1.294396
vt 0.893050 0.915349
vt 1.272084 0.926036
vt 0.904496 0.511158
vt 1.284614 0.521644
vt 0.478356 1.284614
vt 0.488842 0.904495
vt 0.500000 0.500000
vt 1.600935 0.937948
vt 1.573631 1.303408
vt 1.856045 0.950166
vt 1.814110 1.311630
vt 1.616479 0.530798
vt 1.874323 0.537911
vt 1.533370 1.592000
vt 1.242997 1.616289
vt 1.511559 1.801965
vt 1.237949 1.856856
vt 1.744219 1.581798
vt 1.670018 1.736401
vt 0.876589 1.623403
vt 0.469201 1.616478
vt 0.874724 1.878799
vt 0.462089 1.874322
vt -1.044057 -0.344404
vt -1.102595 0.033902
vt -1.160909 0.028607
vt -1.099555 -0.357078
vt -1.217858 0.022434
vt -1.154242 -0.371085
vt -1.124496 0.455187
vt -1.183907 0.453548
vt -1.241573 0.451958
vt -0.988638 -0.672961
vt -0.941043 -0.647321
vt -0.825957 -0.901189
vt -0.790082 -0.863279
vt -1.037686 -0.698868
vt -0.862532 -0.939840
vt -0.871399 -0.609738
vt -0.961193 -0.328026
vt -0.744219 -0.581799
vt -0.814110 -0.311631
vt -0.736113 -0.806248
vt -0.670018 -0.736402
vt -1.013338 0.040363
vt -1.033716 0.457691
vt -0.856045 0.049833
vt -0.874323 0.462088
vt -0.344402 2.044056
vt 0.033903 2.102593
vt 0.028608 2.160907
vt -0.357076 2.099554
vt 0.022435 2.217855
vt -0.371083 2.154241
vt 0.455187 2.124495
vt 0.453548 2.183905
vt 0.451958 2.241571
vt -0.672960 1.988637
vt -0.647319 1.941042
vt -0.901187 1.825957
vt -0.863277 1.790083
vt -0.698865 2.037686
vt -0.939838 1.862533
vt -0.609736 1.871399
vt -0.328024 1.961192
vt -0.581797 1.744218
vt -0.311630 1.814109
vt -0.806246 1.736114
vt -0.736401 1.670018
vt 0.040364 2.013336
vt 0.457691 2.033715
vt 0.049834 1.856044
vt 1.344402 -1.044057
vt 0.966097 -1.102594
vt 0.971392 -1.160908
vt 1.357076 -1.099555
vt 0.977565 -1.217856
vt 1.371084 -1.154242
vt 0.544813 -1.124496
vt 0.546452 -1.183906
vt 0.548043 -1.241572
vt 1.672959 -0.988638
vt 1.647319 -0.941043
vt 1.901187 -0.825958
vt 1.863277 -0.790083
vt 1.698865 -1.037687
vt 1.939838 -0.862534
vt 1.609736 -0.871400
vt 1.328025 -0.961193
vt 1.581797 -0.744219
vt 1.311630 -0.814110
vt 1.806246 -0.736114
vt 1.736401 -0.670019
vt 0.959636 -1.013337
vt 0.542309 -1.033715
vt 0.950166 -0.856045
vt 0.537912 -0.874323
vt 2.044057 1.344403
vt 2.102595 0.966097
vt 2.160909 0.971393
vt 2.099555 1.357077
vt 2.217858 0.977565
vt 2.154242 1.371084
vt 2.124496 0.544812
vt 2.183907 0.546451
vt 2.241573 0.548041
vt 1.988638 1.672960
vt 1.941043 1.647320
vt 1.825957 1.901188
vt 1.790083 1.863278
vt 2.037687 1.698866
vt 1.862533 1.939839
vt 1.871399 1.609737
vt 1.961193 1.328025
vt 1.736113 1.806247
vt 2.013338 0.959636
vt 2.033716 0.542308
vt -0.257994 -1.088260
vt -0.566130 -1.002103
vt -0.589107 -1.051039
vt -0.267590 -1.144372
vt -0.612270 -1.101441
vt -0.278561 -1.199748
vt 0.120889 -1.184369
vt 0.122962 -1.125852
vt 0.117866 -1.241571
vt 0.124492 -1.036375
vt -0.246210 -1.004619
vt 0.125276 -0.878800
vt -0.237949 -0.856857
vt -0.532443 -0.930494
vt -0.511559 -0.801966
vt 1.257995 2.088259
vt 1.566130 2.002102
vt 1.589108 2.051038
vt 1.267590 2.144372
vt 1.612270 2.101440
vt 1.278561 2.199747
vt 0.879111 2.184368
vt 0.877038 2.125851
vt 0.882134 2.241570
vt 0.875508 2.036374
vt 1.246210 2.004619
vt 1.532444 1.930493
vt -0.300217 1.257253
vt -0.616290 1.242997
vt -0.623404 0.876589
vt -0.294397 0.882824
vt -0.616479 0.469201
vt -0.284614 0.478355
vt -0.856856 1.237949
vt -0.878799 0.874724
vt 0.084650 0.893049
vt 0.073964 1.272084
vt 0.095504 0.488841
vt 0.062052 1.600934
vt -0.303407 1.573631
vt -0.591999 1.533370
vt -0.801965 1.511559
vt -0.257253 -0.300218
vt -0.573631 -0.303408
vt -0.533370 -0.592001
vt -0.242997 -0.616290
vt 0.123412 -0.623404
vt 0.117176 -0.294397
vt 0.530799 -0.616479
vt 0.521644 -0.284614
vt 0.106950 0.084649
vt -0.272084 0.073963
vt 0.511158 0.095504
vt -0.600935 0.062051
vt 2.088259 -0.257996
vt 2.002102 -0.566131
vt 2.051038 -0.589109
vt 2.144371 -0.267591
vt 2.101440 -0.612271
vt 2.199747 -0.278563
vt 2.184369 0.120888
vt 2.125852 0.122961
vt 2.241571 0.117864
vt 2.036375 0.124491
vt 2.004619 -0.246211
vt 1.878800 0.125275
vt 1.856856 -0.237950
vt 1.930493 -0.532445
vt 1.801965 -0.511560
vt -1.088259 1.257995
vt -1.002102 1.566131
vt -1.051038 1.589108
vt -1.144372 1.267591
vt -1.101440 1.612270
vt -1.199747 1.278562
vt -1.184369 0.879111
vt -1.125852 0.877039
vt -1.241571 0.882135
vt -1.036375 0.875508
vt -1.004619 1.246211
vt -0.930493 1.532444
vt 1.300217 -0.257254
vt 0.926036 -0.272084
vt 0.937948 -0.600935
vt 1.303408 -0.573631
vt 1.592000 -0.533370
vt 1.616290 -0.242998
vt 1.623404 0.123411
vt 1.294397 0.117175
vt 0.915350 0.106950
vt 0.000000 0.000000
vt 1.000000 0.000000
vt 1.000000 0.843750
vt 0.000000 0.843750
vt 1.000000 0.000000
vt 0.000000 0.000000
vt 0.000000 0.843750
vt 1.000000 0.843750
vt 0.000000 0.000000
vt 1.000000 0.000000
vt 1.000000 0.843750
vt 0.000000 0.843750
vt 1.000000 0.000000
vt 0.000000 0.000000
vt 0.000000 0.843750
vt 1.000000 0.843750
vt 0.000000 0.000000
vt 1.000000 0.000000
vt 1.000000 0.843750
vt 0.000000 0.843750
vt 1.000000 0.000000
vt 0.000000 0.000000
vt 0.000000 0.843750
vt 1.000000 0.843750
vt 0.000000 0.000000
vt 1.000000 0.000000
vt 1.000000 0.843750
vt 0.000000 0.843750
vt 1.000000 0.000000
vt 0.000000 0.000000
vt 0.000000 0.843750
vt 1.000000 0.843750
vt 0.000000 0.000000
vt 1.000000 0.000000
vt 1.000000 0.843750
vt 0.000000 0.843750
vt 1.000000 0.000000
vt 0.000000 0.000000
vt 0.000000 0.843750
vt 1.000000 0.843750
vt 0.000000 0.000000
vt 1.000000 0.000000
vt 1.000000 0.843750
vt 0.000000 0.843750
vt 1.000000 0.000000
vt 0.000000 0.000000
vt 0.000000 0.843750
vt 1.000000 0.843750
vt 0.000000 0.000000
vt 1.000000 0.000000
vt 1.000000 0.843750
vt 0.000000 0.843750
vt 1.000000 0.000000
vt 0.000000 0.000000
vt 0.000000 0.843750
vt 1.000000 0.843750
vt 0.000000 0.000000
vt 1.000000 0.000000
vt 1.000000 0.843750
vt 0.000000 0.843750
vt 1.000000 0.000000
vt 0.000000 0.000000
vt 0.000000 0.843750
vt 1.000000 0.843750
vt 0.000000 0.000000
vt 1.000000 0.000000
vt 1.000000 0.843750
vt 0.000000 0.843750
vt 1.000000 0.000000
vt 0.000000 0.000000
vt 0.000000 0.843750
vt 1.000000 0.843750
vt 0.000000 0.000000
vt 1.000000 0.000000
vt 1.000000 0.843750
vt 0.000000 0.843750
vt 1.000000 0.000000
vt 0.000000 0.000000
vt 0.000000 0.843750
vt 1.000000 0.843750
vt 0.000000 0.000000
vt 1.000000 0.000000
vt 1.000000 0.843750
vt 0.000000 0.843750
vt 1.000000 0.000000
vt 0.000000 0.000000
vt 0.000000 0.843750
vt 1.000000 0.843750
vt 0.000000 0.000000
vt 1.000000 0.000000
vt 1.000000 0.843750
vt 0.000000 0.843750
vt 1.000000 0.000000
vt 0.000000 0.000000
vt 0.000000 0.843750
vt 1.000000 0.843750
vt 0.000000 0.000000
vt 1.000000 0.000000
vt 1.000000 0.843750
vt 0.000000 0.843750
vt 1.000000 0.000000
vt 0.000000 0.000000
vt 0.000000 0.843750
vt 1.000000 0.843750
vt 0.000000 0.000000
vt 1.000000 0.000000
vt 1.000000 0.843750
vt 0.000000 0.843750
vt 1.000000 0.000000
vt 0.000000 0.000000
vt 0.000000 0.843750
vt 1.000000 0.843750
vt 0.000000 0.000000
vt 1.000000 0.000000
vt 1.000000 0.843750
vt 0.000000 0.843750
vt 1.000000 0.000000
vt 0.000000 0.000000
vt 0.000000 0.843750
vt 1.000000 0.843750
vt 0.000000 0.000000
vt 1.000000 0.000000
vt 1.000000 0.843750
vt 0.000000 0.843750
vt 1.000000 0.000000
vt 0.000000 0.000000
vt 0.000000 0.843750
vt 1.000000 0.843750
vt 0.000000 0.000000
vt 1.000000 0.000000
vt 1.000000 0.843750
vt 0.000000 0.843750
vt 1.000000 0.000000
vt 0.000000 0.000000
vt 0.000000 0.843750
vt 1.000000 0.843750
vt 0.000000 0.000000
vt 1.000000 0.000000
vt 1.000000 0.843750
vt 0.000000 0.843750
vt 1.000000 0.000000
vt 0.000000 0.000000
vt 0.000000 0.843750
vt 1.000000 0.843750
vt 0.000000 0.000000
vt 1.000000 0.000000
vt 1.000000 0.843750
vt 0.000000 0.843750
vt 1.000000 0.000000
vt 0.000000 0.000000
vt 0.000000 0.843750
vt 1.000000 0.843750
vt 0.000000 0.000000
vt 1.000000 0.000000
vt 1.000000 0.843750
vt 0.000000 0.843750
vt 1.000000 0.000000
vt 0.000000 0.000000
vt 0.000000 0.843750
vt 1.000000 0.843750
vt 0.000000 0.000000
vt 1.000000 0.000000
vt 1.000000 0.843750
vt 0.000000 0.843750
vt 1.000000 0.000000
vt 0.000000 0.000000
vt 0.000000 0.843750
vt 1.000000 0.843750
vt 0.000000 0.000000
vt 1.000000 0.000000
vt 1.000000 0.843750
vt 0.000000 0.843750
vt 1.000000 0.000000
vt 0.000000 0.000000
vt 0.000000 0.843750
vt 1.000000 0.843750
vt 0.000000 0.000000
vt 1.000000 0.000000
vt 1.000000 0.843750
vt 0.000000 0.843750
vt 1.000000 0.000000
vt 0.000000 0.000000
vt 0.000000 0.843750
vt 1.000000 0.843750
vt 0.000000 0.000000
vt 1.000000 0.000000
vt 1.000000 0.843750
vt 0.000000 0.843750
vt 1.000000 0.000000
vt 0.000000 0.000000
vt 0.000000 0.843750
vt 1.000000 0.843750
vt 0.000000 0.000000
vt 1.000000 0.000000
vt 1.000000 0.843750
vt 0.000000 0.843750
vt 1.000000 0.000000
vt 0.000000 0.000000
vt 0.000000 0.843750
vt 1.000000 0.843750
vt 0.000000 0.000000
vt 1.000000 0.000000
vt 1.000000 0.843750
vt 0.000000 0.843750
vt 1.000000 0.000000
vt 0.000000 0.000000
vt 0.000000 0.843750
vt 1.000000 0.843750
vt 0.000000 0.000000
vt 1.000000 0.000000
vt 1.000000 0.843750
vt 0.000000 0.843750
vt 1.000000 0.000000
vt 0.000000 0.000000
vt 0.000000 0.843750
vt 1.000000 0.843750
vt 0.000000 0.000000
vt 1.000000 0.000000
vt 1.000000 0.843750
vt 0.000000 0.843750
vt 1.000000 0.000000
vt 0.000000 0.000000
vt 0.000000 0.843750
vt 1.000000 0.843750
vt 0.000000 0.000000
vt 1.000000 0.000000
vt 1.000000 0.843750
vt 0.000000 0.843750
vt 1.000000 0.000000
vt 0.000000 0.000000
vt 0.000000 0.843750
vt 1.000000 0.843750
vt 0.000000 0.000000
vt 1.000000 0.000000
vt 1.000000 0.843750
vt 0.000000 0.843750
vt 1.000000 0.000000
vt 0.000000 0.000000
vt 0.000000 0.843750
vt 1.000000 0.843750
vt 0.000000 0.000000
vt 1.000000 0.000000
vt 1.000000 0.843750
vt 0.000000 0.843750
vt 1.000000 0.000000
vt 0.000000 0.000000
vt 0.000000 0.843750
vt 1.000000 0.843750
vt 0.000000 0.000000
vt 1.000000 0.000000
vt 1.000000 0.843750
vt 0.000000 0.843750
vt 1.000000 0.000000
vt 0.000000 0.000000
vt 0.000000 0.843750
vt 1.000000 0.843750
vt 0.000000 0.000000
vt 1.000000 0.000000
vt 1.000000 0.843750
vt 0.000000 0.843750
vt 1.000000 0.000000
vt 0.000000 0.000000
vt 0.000000 0.843750
vt 1.000000 0.843750
vt 0.000000 0.000000
vt 1.000000 0.000000
vt 1.000000 0.843750
vt 0.000000 0.843750
vt 1.000000 0.000000
vt 0.000000 0.000000
vt 0.000000 0.843750
vt 1.000000 0.843750
vt 0.000000 0.000000
vt 1.000000 0.000000
vt 1.000000 0.843750
vt 0.000000 0.843750
vt 1.000000 0.000000
vt 0.000000 0.000000
vt 0.000000 0.843750
vt 1.000000 0.843750
vt 0.000000 0.000000
vt 1.000000 0.000000
vt 1.000000 0.843750
vt 0.000000 0.843750
vt 1.000000 0.000000
vt 0.000000 0.000000
vt 0.000000 0.843750
vt 1.000000 0.843750
vt 0.000000 0.000000
vt 1.000000 0.000000
vt 1.000000 0.843750
vt 0.000000 0.843750
vt 1.000000 0.000000
vt 0.000000 0.000000
vt 0.000000 0.843750
vt 1.000000 0.843750
vt 0.000000 0.000000
vt 1.000000 0.000000
vt 1.000000 0.843750
vt 0.000000 0.843750
vt 1.000000 0.000000
vt 0.000000 0.000000
vt 0.000000 0.843750
vt 1.000000 0.843750
vt 0.000000 0.000000
vt 1.000000 0.000000
vt 1.000000 0.843750
vt 0.000000 0.843750
vt 1.000000 0.000000
vt 0.000000 0.000000
vt 0.000000 0.843750
vt 1.000000 0.843750
vt 0.000000 0.000000
vt 1.000000 0.000000
vt 1.000000 0.843750
vt 0.000000 0.843750
vt 1.000000 0.000000
vt 0.000000 0.000000
vt 0.000000 0.843750
vt 1.000000 0.843750
vt 0.000000 0.000000
vt 1.000000 0.000000
vt 1.000000 0.843750
vt 0.000000 0.843750
vt 1.000000 0.000000
vt 0.000000 0.000000
vt 0.000000 0.843750
vt 1.000000 0.843750
vt 0.000000 0.000000
vt 1.000000 0.000000
vt 1.000000 0.843750
vt 0.000000 0.843750
vt 1.000000 0.000000
vt 0.000000 0.000000
vt 0.000000 0.843750
vt 1.000000 0.843750
vt 0.000000 0.000000
vt 1.000000 0.000000
vt 1.000000 0.843750
vt 0.000000 0.843750
vt 1.000000 0.000000
vt 0.000000 0.000000
vt 0.000000 0.843750
vt 1.000000 0.843750
vt 0.000000 0.000000
vt 1.000000 0.000000
vt 1.000000 0.843750
vt 0.000000 0.843750
vt 1.000000 0.000000
vt 0.000000 0.000000
vt 0.000000 0.843750
vt 1.000000 0.843750
vn 0.0001 1.0000 -0.0001
vn -0.0051 1.0000 0.0037
vn -0.0052 1.0000 0.0052
vn -0.0037 1.0000 0.0051
vn -0.0047 1.0000 -0.0000
vn -0.0045 1.0000 -0.0000
vn 0.0000 1.0000 0.0045
vn 0.0000 1.0000 0.0047
vn 0.0000 1.0000 -0.0000
vn 0.0235 0.9997 0.0021
vn 0.0314 0.9995 -0.0089
vn 0.1164 0.9932 -0.0035
vn 0.1233 0.9921 -0.0243
vn 0.0208 0.9998 -0.0000
vn 0.1126 0.9936 -0.0000
vn 0.0435 0.9981 -0.0435
vn 0.0089 0.9995 -0.0314
vn 0.0673 0.9899 -0.1247
vn 0.0243 0.9921 -0.1233
vn 0.1247 0.9899 -0.0673
vn 0.1165 0.9863 -0.1165
vn -0.0021 0.9997 -0.0235
vn 0.0000 0.9998 -0.0208
vn 0.0035 0.9932 -0.1164
vn 0.0000 0.9936 -0.1126
vn -0.8035 0.5834 0.1190
vn -0.8081 0.5885 0.0269
vn -0.9912 0.1280 0.0330
vn -0.9811 0.1287 0.1449
vn -0.9988 0.0357 0.0335
vn -0.9885 0.0370 0.1467
vn -0.8052 0.5930 -0.0000
vn -0.9917 0.1282 -0.0000
vn -0.9994 0.0354 -0.0000
vn -0.9188 0.1327 0.3716
vn -0.7534 0.5821 0.3059
vn -0.7004 0.1371 0.7004
vn -0.5755 0.5810 0.5755
vn -0.9262 0.0399 0.3749
vn -0.7065 0.0423 0.7065
vn -0.3319 0.9330 0.1390
vn -0.3524 0.9342 0.0560
vn -0.1247 0.9899 0.0673
vn -0.1233 0.9921 0.0243
vn -0.2549 0.9328 0.2549
vn -0.1165 0.9863 0.1165
vn -0.3500 0.9367 0.0123
vn -0.3456 0.9384 -0.0000
vn -0.1164 0.9932 0.0035
vn -0.1126 0.9936 -0.0000
vn -0.1190 0.5834 -0.8035
vn -0.0269 0.5885 -0.8081
vn -0.0330 0.1280 -0.9912
vn -0.1449 0.1287 -0.9811
vn -0.0335 0.0357 -0.9988
vn -0.1467 0.0370 -0.9885
vn 0.0000 0.5930 -0.8052
vn -0.0000 0.1282 -0.9917
vn -0.0000 0.0354 -0.9994
vn -0.3716 0.1327 -0.9188
vn -0.3059 0.5821 -0.7534
vn -0.7004 0.1371 -0.7004
vn -0.5755 0.5810 -0.5755
vn -0.3749 0.0399 -0.9262
vn -0.7065 0.0423 -0.7065
vn -0.1390 0.9330 -0.3319
vn -0.0560 0.9342 -0.3524
vn -0.0673 0.9899 -0.1247
vn -0.0243 0.9921 -0.1233
vn -0.2549 0.9328 -0.2549
vn -0.1165 0.9863 -0.1165
vn -0.0123 0.9367 -0.3500
vn 0.0000 0.9384 -0.3456
vn -0.0035 0.9932 -0.1164
vn 0.1190 0.5834 0.8035
vn 0.0269 0.5885 0.8081
vn 0.0330 0.1280 0.9912
vn 0.1449 0.1287 0.9811
vn 0.0335 0.0357 0.9988
vn 0.1467 0.0370 0.9885
vn -0.0000 0.5930 0.8052
vn 0.0000 0.1282 0.9917
vn 0.0000 0.0354 0.9994
vn 0.3716 0.1327 0.9188
vn 0.3059 0.5821 0.7534
vn 0.7004 0.1371 0.7004
vn 0.5755 0.5810 0.5755
vn 0.3749 0.0399 0.9262
vn 0.7065 0.0423 0.7065
vn 0.1390 0.9330 0.3319
vn 0.0560 0.9342 0.3524
vn 0.0673 0.9899 0.1247
vn 0.0243 0.9921 0.1233
vn 0.2549 0.9328 0.2549
vn 0.1165 0.9863 0.1165
vn 0.0123 0.9367 0.3500
vn -0.0000 0.9384 0.3456
vn 0.0035 0.9932 0.1164
vn -0.0000 0.9936 0.1126
vn 0.8035 0.5834 -0.1190
vn 0.8081 0.5885 -0.0269
vn 0.9912 0.1280 -0.0330
vn 0.9811 0.1287 -0.1449
vn 0.9988 0.0357 -0.0335
vn 0.9885 0.0370 -0.1467
vn 0.8052 0.5930 -0.0000
vn 0.9917 0.1282 -0.0000
vn 0.9994 0.0354 -0.0000
vn 0.9188 0.1327 -0.3716
vn 0.7534 0.5821 -0.3059
vn 0.7004 0.1371 -0.7004
vn 0.5755 0.5810 -0.5755
vn 0.9262 0.0399 -0.3749
vn 0.7065 0.0423 -0.7065
vn 0.3319 0.9330 -0.1390
vn 0.3524 0.9342 -0.0560
vn 0.2549 0.9328 -0.2549
vn 0.3500 0.9367 -0.0123
vn 0.3456 0.9384 -0.0000
vn -0.1190 0.5834 0.8035
vn -0.3059 0.5821 0.7534
vn -0.3716 0.1327 0.9188
vn -0.1449 0.1287 0.9811
vn -0.3749 0.0399 0.9262
vn -0.1467 0.0370 0.9885
vn -0.0330 0.1280 0.9912
vn -0.0269 0.5885 0.8081
vn -0.0335 0.0357 0.9988
vn -0.0123 0.9367 0.3500
vn -0.0560 0.9342 0.3524
vn -0.0035 0.9932 0.1164
vn -0.0243 0.9921 0.1233
vn -0.1390 0.9330 0.3319
vn -0.0673 0.9899 0.1247
vn 0.1190 0.5834 -0.8035
vn 0.3059 0.5821 -0.7534
vn 0.3716 0.1327 -0.9188
vn 0.1449 0.1287 -0.9811
vn 0.3749 0.0399 -0.9262
vn 0.1467 0.0370 -0.9885
vn 0.0330 0.1280 -0.9912
vn 0.0269 0.5885 -0.8081
vn 0.0335 0.0357 -0.9988
vn 0.0123 0.9367 -0.3500
vn 0.0560 0.9342 -0.3524
vn 0.1390 0.9330 -0.3319
vn -0.0001 1.0000 -0.0001
vn -0.0314 0.9995 -0.0089
vn -0.0235 0.9997 0.0021
vn 0.0037 1.0000 0.0051
vn -0.0208 0.9998 -0.0000
vn 0.0045 1.0000 -0.0000
vn -0.1233 0.9921 -0.0243
vn -0.1164 0.9932 -0.0035
vn 0.0052 1.0000 0.0052
vn 0.0051 1.0000 0.0037
vn 0.0047 1.0000 -0.0000
vn 0.0021 0.9997 -0.0235
vn -0.0089 0.9995 -0.0314
vn -0.0435 0.9981 -0.0435
vn -0.1247 0.9899 -0.0673
vn -0.0001 1.0000 0.0001
vn -0.0314 0.9995 0.0089
vn -0.0435 0.9981 0.0435
vn -0.0089 0.9995 0.0314
vn 0.0021 0.9997 0.0235
vn 0.0051 1.0000 -0.0037
vn -0.0000 0.9998 0.0208
vn 0.0000 1.0000 -0.0045
vn 0.0052 1.0000 -0.0052
vn 0.0037 1.0000 -0.0051
vn 0.0000 1.0000 -0.0047
vn -0.0235 0.9997 -0.0021
vn 0.8035 0.5834 0.1190
vn 0.7534 0.5821 0.3059
vn 0.9188 0.1327 0.3716
vn 0.9811 0.1287 0.1449
vn 0.9262 0.0399 0.3749
vn 0.9885 0.0370 0.1467
vn 0.9912 0.1280 0.0330
vn 0.8081 0.5885 0.0269
vn 0.9988 0.0357 0.0335
vn 0.3500 0.9367 0.0123
vn 0.3524 0.9342 0.0560
vn 0.1164 0.9932 0.0035
vn 0.1233 0.9921 0.0243
vn 0.3319 0.9330 0.1390
vn 0.1247 0.9899 0.0673
vn -0.8035 0.5834 -0.1190
vn -0.7534 0.5821 -0.3059
vn -0.9188 0.1327 -0.3716
vn -0.9811 0.1287 -0.1449
vn -0.9262 0.0399 -0.3749
vn -0.9885 0.0370 -0.1467
vn -0.9912 0.1280 -0.0330
vn -0.8081 0.5885 -0.0269
vn -0.9988 0.0357 -0.0335
vn -0.3500 0.9367 -0.0123
vn -0.3524 0.9342 -0.0560
vn -0.3319 0.9330 -0.1390
vn 0.0001 1.0000 0.0001
vn -0.0051 1.0000 -0.0037
vn -0.0021 0.9997 0.0235
vn 0.0089 0.9995 0.0314
vn 0.0435 0.9981 0.0435
vn 0.0314 0.9995 0.0089
vn 0.0235 0.9997 -0.0021
vn -0.0037 1.0000 -0.0051
vn -0.0052 1.0000 -0.0052
vn 0.5135 -0.0000 -0.8581
vn -0.5135 0.0000 0.8581
vn 0.7810 0.0000 -0.6245
vn -0.7810 0.0000 0.6245
vn 0.9458 0.0000 -0.3247
vn -0.9458 0.0000 0.3247
vn 0.9301 0.0000 0.3672
vn -0.9301 0.0000 -0.3672
vn 0.1979 0.0000 0.9802
vn -0.1979 -0.0000 -0.9802
vn 0.5165 0.0000 0.8563
vn -0.5165 -0.0000 -0.8563
vn 0.9977 -0.0000 -0.0671
vn -0.9977 0.0000 0.0671
vn 0.6587 -0.0000 -0.7524
vn -0.6587 0.0000 0.7524
vn 0.2590 -0.0000 -0.9659
vn -0.2590 0.0000 0.9659
vn -0.1109 -0.0000 -0.9938
vn 0.1109 0.0000 0.9938
vn -0.9068 0.0000 -0.4216
vn 0.9068 0.0000 0.4216
vn -0.9819 0.0000 0.1892
vn 0.9819 0.0000 -0.1892
vn -0.8642 0.0000 0.5031
vn 0.8642 -0.0000 -0.5031
vn 0.9302 0.0000 0.3670
vn -0.9302 -0.0000 -0.3670
vn 0.3765 0.0000 0.9264
vn -0.3765 -0.0000 -0.9264
vn -0.9101 -0.0000 0.4143
vn 0.9101 0.0000 -0.4143
vn -0.3284 0.0000 0.9445
vn 0.3284 -0.0000 -0.9445
vn 0.2613 0.0000 0.9653
vn -0.2613 -0.0000 -0.9653
vn -0.5181 0.0000 0.8553
vn 0.5181 -0.0000 -0.8553
vn 0.8333 0.0000 0.5528
vn -0.8333 -0.0000 -0.5528
vn 0.9752 -0.0000 -0.2214
vn -0.9752 0.0000 0.2214
vn -0.4301 0.0000 0.9028
vn 0.4301 -0.0000 -0.9028
vn -0.6199 0.0000 0.7847
vn 0.6199 -0.0000 -0.7847
vn -0.9957 0.0000 0.0931
vn 0.9957 -0.0000 -0.0931
vn 0.0521 0.0000 0.9986
vn -0.0521 -0.0000 -0.9986
vn 0.7585 0.0000 0.6516
vn -0.7585 -0.0000 -0.6516
vn -0.9814 0.0000 0.1921
vn 0.9814 0.0000 -0.1921
vn -0.6510 0.0000 0.7591
vn 0.6510 -0.0000 -0.7591
vn 0.9992 0.0000 0.0411
vn -0.9992 0.0000 -0.0411
vn 0.6599 0.0000 0.7513
vn -0.6599 -0.0000 -0.7513
vn -0.7236 0.0000 0.6902
vn 0.7236 -0.0000 -0.6902
vn 0.0000 0.0000 1.0000
vn -0.0000 -0.0000 -1.0000
usemtl grassdirt
s 1
f 1/1/1 5/2/2 6/3/3 2/4/4
f 2/4/4 6/3/3 192/5/5 191/6/6
f 5/2/2 164/7/7 163/8/8 6/3/3
f 6/3/3 163/8/8 209/9/9 192/5/5
f 1/1/1 2/4/4 7/10/10 3/11/11
f 3/11/11 7/10/10 127/12/12 128/13/13
f 2/4/4 191/6/6 190/14/14 7/10/10
f 7/10/10 190/14/14 208/15/15 127/12/12
f 1/1/1 3/11/11 8/16/16 4/17/17
f 4/17/17 8/16/16 154/18/18 155/19/19
f 3/11/11 128/13/13 129/20/20 8/16/16
f 8/16/16 129/20/20 200/21/21 154/18/18
f 1/1/1 4/17/17 9/22/22 5/2/2
f 5/2/2 9/22/22 165/23/23 164/7/7
f 4/17/17 155/19/19 156/24/24 9/22/22
f 9/22/22 156/24/24 204/25/25 165/23/23
f 10/26/26 14/27/27 15/28/28 11/29/29
f 11/29/29 15/28/28 109/30/30 110/31/31
f 14/27/27 188/32/32 187/33/33 15/28/28
f 15/28/28 187/33/33 205/34/34 109/30/30
f 10/26/26 11/29/29 16/35/35 12/36/36
f 12/36/36 16/35/35 133/37/37 134/38/38
f 11/29/29 110/31/31 111/39/39 16/35/35
f 16/35/35 111/39/39 193/40/40 133/37/37
f 10/26/26 12/36/36 17/41/41 13/42/42
f 13/42/42 17/41/41 123/43/43 122/44/44
f 12/36/36 134/38/38 135/45/45 17/41/41
f 17/41/41 135/45/45 197/46/46 123/43/43
f 10/26/26 13/42/42 18/47/47 14/27/27
f 14/27/27 18/47/47 189/48/48 188/32/32
f 13/42/42 122/44/44 121/49/49 18/47/47
f 18/47/47 121/49/49 207/50/50 189/48/48
f 19/51/51 23/52/52 24/53/53 20/54/54
f 20/54/54 24/53/53 118/55/55 119/56/56
f 23/52/52 161/57/57 160/58/58 24/53/53
f 24/53/53 160/58/58 202/59/59 118/55/55
f 19/51/51 20/54/54 25/60/60 21/61/61
f 21/61/61 25/60/60 138/62/62 137/63/63
f 20/54/54 119/56/56 120/64/64 25/60/60
f 25/60/60 120/64/64 195/65/65 138/62/62
f 19/51/51 21/61/61 26/66/66 22/67/67
f 22/67/67 26/66/66 132/68/68 131/69/69
f 21/61/61 137/63/63 136/70/70 26/66/66
f 26/66/66 136/70/70 199/71/71 132/68/68
f 19/51/51 22/67/67 27/72/72 23/52/52
f 23/52/52 27/72/72 162/73/73 161/57/57
f 22/67/67 131/69/69 130/74/74 27/72/72
f 27/72/72 130/74/74 204/25/25 162/73/73
f 28/75/75 32/76/76 33/77/77 29/78/78
f 29/78/78 33/77/77 112/79/79 113/80/80
f 32/76/76 158/81/81 157/82/82 33/77/77
f 33/77/77 157/82/82 201/83/83 112/79/79
f 28/75/75 29/78/78 34/84/84 30/85/85
f 30/85/85 34/84/84 142/86/86 143/87/87
f 29/78/78 113/80/80 114/88/88 34/84/84
f 34/84/84 114/88/88 194/89/89 142/86/86
f 28/75/75 30/85/85 35/90/90 31/91/91
f 31/91/91 35/90/90 126/92/92 125/93/93
f 30/85/85 143/87/87 144/94/94 35/90/90
f 35/90/90 144/94/94 198/95/95 126/92/92
f 28/75/75 31/91/91 36/96/96 32/76/76
f 32/76/76 36/96/96 159/97/97 158/81/81
f 31/91/91 125/93/93 124/98/98 36/96/96
f 36/96/96 124/98/98 203/99/99 159/97/97
f 37/100/100 41/101/101 42/102/102 38/103/103
f 38/103/103 42/102/102 115/104/104 116/105/105
f 41/101/101 185/106/106 184/107/107 42/102/102
f 42/102/102 184/107/107 206/108/108 115/104/104
f 37/100/100 38/103/103 43/109/109 39/110/110
f 39/110/110 43/109/109 141/111/111 140/112/112
f 38/103/103 116/105/105 117/113/113 43/109/109
f 43/109/109 117/113/113 196/114/114 141/111/111
f 37/100/100 39/110/110 44/115/115 40/116/116
f 40/116/116 44/115/115 129/20/20 128/13/13
f 39/110/110 140/112/112 139/117/117 44/115/115
f 44/115/115 139/117/117 200/21/21 129/20/20
f 37/100/100 40/116/116 45/118/118 41/101/101
f 41/101/101 45/118/118 186/119/119 185/106/106
f 40/116/116 128/13/13 127/12/12 45/118/118
f 45/118/118 127/12/12 208/15/15 186/119/119
f 46/120/120 50/121/121 51/122/122 47/123/123
f 47/123/123 51/122/122 145/124/124 146/125/125
f 50/121/121 134/38/38 133/37/37 51/122/122
f 51/122/122 133/37/37 193/40/40 145/124/124
f 46/120/120 47/123/123 52/126/126 48/127/127
f 48/127/127 52/126/126 157/82/82 158/81/81
f 47/123/123 146/125/125 147/128/128 52/126/126
f 52/126/126 147/128/128 201/83/83 157/82/82
f 46/120/120 48/127/127 53/129/129 49/130/130
f 49/130/130 53/129/129 153/131/131 152/132/132
f 48/127/127 158/81/81 159/97/97 53/129/129
f 53/129/129 159/97/97 203/99/99 153/131/131
f 46/120/120 49/130/130 54/133/133 50/121/121
f 50/121/121 54/133/133 135/45/45 134/38/38
f 49/130/130 152/132/132 151/134/134 54/133/133
f 54/133/133 151/134/134 197/46/46 135/45/45
f 55/135/135 59/136/136 60/137/137 56/138/138
f 56/138/138 60/137/137 148/139/139 149/140/140
f 59/136/136 140/112/112 141/111/111 60/137/137
f 60/137/137 141/111/111 196/114/114 148/139/139
f 55/135/135 56/138/138 61/141/141 57/142/142
f 57/142/142 61/141/141 160/58/58 161/57/57
f 56/138/138 149/140/140 150/143/143 61/141/141
f 61/141/141 150/143/143 202/59/59 160/58/58
f 55/135/135 57/142/142 62/144/144 58/145/145
f 58/145/145 62/144/144 156/24/24 155/19/19
f 57/142/142 161/57/57 162/73/73 62/144/144
f 62/144/144 162/73/73 204/25/25 156/24/24
f 55/135/135 58/145/145 63/146/146 59/136/136
f 59/136/136 63/146/146 139/117/117 140/112/112
f 58/145/145 155/19/19 154/18/18 63/146/146
f 63/146/146 154/18/18 200/21/21 139/117/117
f 64/147/147 68/148/148 69/149/149 65/150/150
f 65/150/150 69/149/149 183/151/151 182/152/152
f 68/148/148 173/153/153 174/154/154 69/149/149
f 69/149/149 174/154/154 207/50/50 183/151/151
f 64/147/147 65/150/150 70/155/155 66/156/156
f 66/156/156 70/155/155 163/8/8 164/7/7
f 65/150/150 182/152/152 181/157/157 70/155/155
f 70/155/155 181/157/157 209/9/9 163/8/8
f 64/147/147 66/156/156 71/158/158 67/159/159
f 67/159/159 71/158/158 130/74/74 131/69/69
f 66/156/156 164/7/7 165/23/23 71/158/158
f 71/158/158 165/23/23 204/25/25 130/74/74
f 64/147/147 67/159/159 72/160/160 68/148/148
f 68/148/148 72/160/160 172/161/161 173/153/153
f 67/159/159 131/69/69 132/68/68 72/160/160
f 72/160/160 132/68/68 199/71/71 172/161/161
f 73/162/162 77/163/163 78/164/164 74/165/165
f 74/165/165 78/164/164 151/134/134 152/132/132
f 77/163/163 122/44/44 123/43/43 78/164/164
f 78/164/164 123/43/43 197/46/46 151/134/134
f 73/162/162 74/165/165 79/166/166 75/167/167
f 75/167/167 79/166/166 178/168/168 179/169/169
f 74/165/165 152/132/132 153/131/131 79/166/166
f 79/166/166 153/131/131 203/99/99 178/168/168
f 73/162/162 75/167/167 80/170/170 76/171/171
f 76/171/171 80/170/170 181/157/157 182/152/152
f 75/167/167 179/169/169 180/172/172 80/170/170
f 80/170/170 180/172/172 209/9/9 181/157/157
f 73/162/162 76/171/171 81/173/173 77/163/163
f 77/163/163 81/173/173 121/49/49 122/44/44
f 76/171/171 182/152/152 183/151/151 81/173/173
f 81/173/173 183/151/151 207/50/50 121/49/49
f 82/174/174 86/175/175 87/176/176 83/177/177
f 83/177/177 87/176/176 169/178/178 170/179/179
f 86/175/175 143/87/87 142/86/86 87/176/176
f 87/176/176 142/86/86 194/89/89 169/178/178
f 82/174/174 83/177/177 88/180/180 84/181/181
f 84/181/181 88/180/180 184/107/107 185/106/106
f 83/177/177 170/179/179 171/182/182 88/180/180
f 88/180/180 171/182/182 206/108/108 184/107/107
f 82/174/174 84/181/181 89/183/183 85/184/184
f 85/184/184 89/183/183 177/185/185 176/186/186
f 84/181/181 185/106/106 186/119/119 89/183/183
f 89/183/183 186/119/119 208/15/15 177/185/185
f 82/174/174 85/184/184 90/187/187 86/175/175
f 86/175/175 90/187/187 144/94/94 143/87/87
f 85/184/184 176/186/186 175/188/188 90/187/187
f 90/187/187 175/188/188 198/95/95 144/94/94
f 91/189/189 95/190/190 96/191/191 92/192/192
f 92/192/192 96/191/191 166/193/193 167/194/194
f 95/190/190 137/63/63 138/62/62 96/191/191
f 96/191/191 138/62/62 195/65/65 166/193/193
f 91/189/189 92/192/192 97/195/195 93/196/196
f 93/196/196 97/195/195 187/33/33 188/32/32
f 92/192/192 167/194/194 168/197/197 97/195/195
f 97/195/195 168/197/197 205/34/34 187/33/33
f 91/189/189 93/196/196 98/198/198 94/199/199
f 94/199/199 98/198/198 174/154/154 173/153/153
f 93/196/196 188/32/32 189/48/48 98/198/198
f 98/198/198 189/48/48 207/50/50 174/154/154
f 91/189/189 94/199/199 99/200/200 95/190/190
f 95/190/190 99/200/200 136/70/70 137/63/63
f 94/199/199 173/153/153 172/161/161 99/200/200
f 99/200/200 172/161/161 199/71/71 136/70/70
f 100/201/201 104/202/202 105/203/203 101/204/204
f 101/204/204 105/203/203 124/98/98 125/93/93
f 104/202/202 179/169/169 178/168/168 105/203/203
f 105/203/203 178/168/168 203/99/99 124/98/98
f 100/201/201 101/204/204 106/205/205 102/206/206
f 102/206/206 106/205/205 175/188/188 176/186/186
f 101/204/204 125/93/93 126/92/92 106/205/205
f 106/205/205 126/92/92 198/95/95 175/188/188
f 100/201/201 102/206/206 107/207/207 103/208/208
f 103/208/208 107/207/207 190/14/14 191/6/6
f 102/206/206 176/186/186 177/185/185 107/207/207
f 107/207/207 177/185/185 208/15/15 190/14/14
f 100/201/201 103/208/208 108/209/209 104/202/202
f 104/202/202 108/209/209 180/172/172 179/169/169
f 103/208/208 191/6/6 192/5/5 108/209/209
f 108/209/209 192/5/5 209/9/9 180/172/172
f 210/210/210 211/211/210 213/212/210 212/213/210
f 214/214/211 215/215/211 217/216/211 216/217/211
f 218/218/212 219/219/212 221/220/212 220/221/212
f 222/222/213 223/223/213 225/224/213 224/225/213
f 226/226/214 227/227/214 229/228/214 228/229/214
f 230/230/215 231/231/215 233/232/215 232/233/215
f 234/234/216 235/235/216 237/236/216 236/237/216
f 238/238/217 239/239/217 241/240/217 240/241/217
f 242/242/218 243/243/218 245/244/218 244/245/218
f 246/246/219 247/247/219 249/248/219 248/249/219
f 250/250/220 251/251/220 253/252/220 252/253/220
f 254/254/221 255/255/221 257/256/221 256/257/221
f 258/258/220 259/259/220 261/260/220 260/261/220
f 262/262/221 263/263/221 265/264/221 264/265/221
f 266/266/222 267/267/222 269/268/222 268/269/222
f 270/270/223 271/271/223 273/272/223 272/273/223
f 274/274/222 275/275/222 277/276/222 276/277/222
f 278/278/223 279/279/223 281/280/223 280/281/223
f 282/282/224 283/283/224 285/284/224 284/285/224
f 286/286/225 287/287/225 289/288/225 288/289/225
f 290/290/226 291/291/226 293/292/226 292/293/226
f 294/294/227 295/295/227 297/296/227 296/297/227
f 298/298/228 299/299/228 301/300/228 300/301/228
f 302/302/229 303/303/229 305/304/229 304/305/229
f 306/306/230 307/307/230 309/308/230 308/309/230
f 310/310/231 311/311/231 313/312/231 312/313/231
f 314/314/232 315/315/232 317/316/232 316/317/232
f 318/318/233 319/319/233 321/320/233 320/321/233
f 322/322/234 323/323/234 325/324/234 324/325/234
f 326/326/235 327/327/235 329/328/235 328/329/235
f 330/330/232 331/331/232 333/332/232 332/333/232
f 334/334/233 335/335/233 337/336/233 336/337/233
f 338/338/236 339/339/236 341/340/236 340/341/236
f 342/342/237 343/343/237 345/344/237 344/345/237
f 346/346/238 347/347/238 349/348/238 348/349/238
f 350/350/239 351/351/239 353/352/239 352/353/239
f 354/354/240 355/355/240 357/356/240 356/357/240
f 358/358/241 359/359/241 361/360/241 360/361/241
f 362/362/242 363/363/242 365/364/242 364/365/242
f 366/366/243 367/367/243 369/368/243 368/369/243
f 370/370/244 371/371/244 373/372/244 372/373/244
f 374/374/245 375/375/245 377/376/245 376/377/245
f 378/378/246 379/379/246 381/380/246 380/381/246
f 382/382/247 383/383/247 385/384/247 384/385/247
f 386/386/248 387/387/248 389/388/248 388/389/248
f 390/390/249 391/391/249 393/392/249 392/393/249
f 394/394/250 395/395/250 397/396/250 396/397/250
f 398/398/251 399/399/251 401/400/251 400/401/251
f 402/402/252 403/403/252 405/404/252 404/405/252
f 406/406/253 407/407/253 409/408/253 408/409/253
f 410/410/252 411/411/252 413/412/252 412/413/252
f 414/414/253 415/415/253 417/416/253 416/417/253
f 418/418/252 419/419/252 421/420/252 420/421/252
f 422/422/253 423/423/253 425/424/253 424/425/253
f 426/426/252 427/427/252 429/428/252 428/429/252
f 430/430/253 431/431/253 433/432/253 432/433/253
f 434/434/250 435/435/250 437/436/250 436/437/250
f 438/438/251 439/439/251 441/440/251 440/441/251
f 442/442/248 443/443/248 445/444/248 444/445/248
f 446/446/249 447/447/249 449/448/249 448/449/249
f 450/450/246 451/451/246 453/452/246 452/453/246
f 454/454/247 455/455/247 457/456/247 456/457/247
f 458/458/244 459/459/244 461/460/244 460/461/244
f 462/462/245 463/463/245 465/464/245 464/465/245
f 466/466/254 467/467/254 469/468/254 468/469/254
f 470/470/255 471/471/255 473/472/255 472/473/255
f 474/474/256 475/475/256 477/476/256 476/477/256
f 478/478/257 479/479/257 481/480/257 480/481/257
f 482/482/258 483/483/258 485/484/258 484/485/258
f 486/486/259 487/487/259 489/488/259 488/489/259
f 490/490/260 491/491/260 493/492/260 492/493/260
f 494/494/261 495/495/261 497/496/261 496/497/261
f 498/498/262 499/499/262 501/500/262 500/501/262
f 502/502/263 503/503/263 505/504/263 504/505/263
f 506/506/262 507/507/262 509/508/262 508/509/262
f 510/510/263 511/511/263 513/512/263 512/513/263
f 514/514/264 515/515/264 517/516/264 516/517/264
f 518/518/265 519/519/265 521/520/265 520/521/265
f 522/522/264 523/523/264 525/524/264 524/525/264
f 526/526/265 527/527/265 529/528/265 528/529/265
f 530/530/266 531/531/266 533/532/266 532/533/266
f 534/534/267 535/535/267 537/536/267 536/537/267
f 538/538/268 539/539/268 541/540/268 540/541/268
f 542/542/269 543/543/269 545/544/269 544/545/269
f 546/546/270 547/547/270 549/548/270 548/549/270
f 550/550/271 551/551/271 553/552/271 552/553/271
f 554/554/272 555/555/272 557/556/272 556/557/272
f 558/558/273 559/559/273 561/560/273 560/561/273
